%TF.GenerationSoftware,KiCad,Pcbnew,9.0.1*%
%TF.CreationDate,2025-04-18T16:29:56+02:00*%
%TF.ProjectId,Pendulo_Invertido,50656e64-756c-46f5-9f49-6e7665727469,rev?*%
%TF.SameCoordinates,Original*%
%TF.FileFunction,Soldermask,Bot*%
%TF.FilePolarity,Negative*%
%FSLAX46Y46*%
G04 Gerber Fmt 4.6, Leading zero omitted, Abs format (unit mm)*
G04 Created by KiCad (PCBNEW 9.0.1) date 2025-04-18 16:29:56*
%MOMM*%
%LPD*%
G01*
G04 APERTURE LIST*
G04 Aperture macros list*
%AMRoundRect*
0 Rectangle with rounded corners*
0 $1 Rounding radius*
0 $2 $3 $4 $5 $6 $7 $8 $9 X,Y pos of 4 corners*
0 Add a 4 corners polygon primitive as box body*
4,1,4,$2,$3,$4,$5,$6,$7,$8,$9,$2,$3,0*
0 Add four circle primitives for the rounded corners*
1,1,$1+$1,$2,$3*
1,1,$1+$1,$4,$5*
1,1,$1+$1,$6,$7*
1,1,$1+$1,$8,$9*
0 Add four rect primitives between the rounded corners*
20,1,$1+$1,$2,$3,$4,$5,0*
20,1,$1+$1,$4,$5,$6,$7,0*
20,1,$1+$1,$6,$7,$8,$9,0*
20,1,$1+$1,$8,$9,$2,$3,0*%
G04 Aperture macros list end*
%ADD10RoundRect,0.102000X-0.754000X0.754000X-0.754000X-0.754000X0.754000X-0.754000X0.754000X0.754000X0*%
%ADD11C,2.200000*%
%ADD12C,2.184000*%
%ADD13RoundRect,0.102000X-0.930000X0.930000X-0.930000X-0.930000X0.930000X-0.930000X0.930000X0.930000X0*%
%ADD14C,2.064000*%
%ADD15C,2.904000*%
%ADD16RoundRect,0.102000X-0.765000X-0.765000X0.765000X-0.765000X0.765000X0.765000X-0.765000X0.765000X0*%
%ADD17C,1.734000*%
G04 APERTURE END LIST*
D10*
%TO.C,SEN0142*%
X148702550Y-82014250D03*
X148702550Y-84554250D03*
X148702550Y-87094250D03*
X148702550Y-89634250D03*
X148702550Y-92174250D03*
%TD*%
D11*
%TO.C,REF\u002A\u002A*%
X102347550Y-54094250D03*
%TD*%
D12*
%TO.C,ROB-1445*%
X142347550Y-106974250D03*
X142347550Y-109514250D03*
X142347550Y-112054250D03*
X142347550Y-114594250D03*
X142347550Y-117134250D03*
X142347550Y-119674250D03*
X142347550Y-122214250D03*
X142347550Y-124754250D03*
X157587550Y-124754250D03*
X157587550Y-122214250D03*
X157587550Y-119674250D03*
X157587550Y-117134250D03*
X157587550Y-114594250D03*
X157587550Y-112054250D03*
X157587550Y-109514250D03*
X157587550Y-106974250D03*
%TD*%
D13*
%TO.C,LM7805CT*%
X126847550Y-119094250D03*
D14*
X126847550Y-121634250D03*
X126847550Y-124174250D03*
%TD*%
D15*
%TO.C,XT 30 Alimentacion*%
X109347550Y-119094250D03*
X109347550Y-124094250D03*
%TD*%
%TO.C,Motor DER.*%
X138847550Y-56094250D03*
X143847550Y-56094250D03*
%TD*%
D11*
%TO.C,REF\u002A\u002A*%
X166847550Y-133094250D03*
%TD*%
D15*
%TO.C,Motor IZ.*%
X140847550Y-130594250D03*
X145847550Y-130594250D03*
%TD*%
D11*
%TO.C,REF\u002A\u002A*%
X166847550Y-54094250D03*
%TD*%
%TO.C,REF\u002A\u002A*%
X102347550Y-133094250D03*
%TD*%
D16*
%TO.C,ESP32-DEVKITC-32D-F*%
X107946843Y-64594250D03*
D17*
X107946843Y-67134250D03*
X107946843Y-69674250D03*
X107946843Y-72214250D03*
X107946843Y-74754250D03*
X107946843Y-77294250D03*
X107946843Y-79834250D03*
X107946843Y-82374250D03*
X107946843Y-84914250D03*
X107946843Y-87454250D03*
X107946843Y-89994250D03*
X107946843Y-92534250D03*
X107946843Y-95074250D03*
X107946843Y-97614250D03*
X107946843Y-100154250D03*
X107946843Y-102694250D03*
X107946843Y-105234250D03*
X107946843Y-107774250D03*
X107946843Y-110314250D03*
X133346843Y-110314250D03*
X133346843Y-107774250D03*
X133346843Y-105234250D03*
X133346843Y-102694250D03*
X133346843Y-100154250D03*
X133346843Y-97614250D03*
X133346843Y-95074250D03*
X133346843Y-92534250D03*
X133346843Y-89994250D03*
X133346843Y-87454250D03*
X133346843Y-84914250D03*
X133346843Y-82374250D03*
X133346843Y-79834250D03*
X133346843Y-77294250D03*
X133346843Y-74754250D03*
X133346843Y-72214250D03*
X133346843Y-69674250D03*
X133346843Y-67134250D03*
X133346843Y-64594250D03*
%TD*%
M02*
