%TF.GenerationSoftware,KiCad,Pcbnew,9.0.1*%
%TF.CreationDate,2025-04-18T16:29:56+02:00*%
%TF.ProjectId,Pendulo_Invertido,50656e64-756c-46f5-9f49-6e7665727469,rev?*%
%TF.SameCoordinates,Original*%
%TF.FileFunction,Copper,L1,Top*%
%TF.FilePolarity,Positive*%
%FSLAX46Y46*%
G04 Gerber Fmt 4.6, Leading zero omitted, Abs format (unit mm)*
G04 Created by KiCad (PCBNEW 9.0.1) date 2025-04-18 16:29:56*
%MOMM*%
%LPD*%
G01*
G04 APERTURE LIST*
%ADD10C,0.300000*%
%TA.AperFunction,NonConductor*%
%ADD11C,0.300000*%
%TD*%
%TA.AperFunction,NonConductor*%
%ADD12C,0.200000*%
%TD*%
%TA.AperFunction,ComponentPad*%
%ADD13R,1.508000X1.508000*%
%TD*%
%TA.AperFunction,ComponentPad*%
%ADD14C,1.980000*%
%TD*%
%TA.AperFunction,ComponentPad*%
%ADD15R,1.860000X1.860000*%
%TD*%
%TA.AperFunction,ComponentPad*%
%ADD16C,1.860000*%
%TD*%
%TA.AperFunction,ComponentPad*%
%ADD17C,2.700000*%
%TD*%
%TA.AperFunction,ComponentPad*%
%ADD18R,1.530000X1.530000*%
%TD*%
%TA.AperFunction,ComponentPad*%
%ADD19C,1.530000*%
%TD*%
%TA.AperFunction,ViaPad*%
%ADD20C,0.600000*%
%TD*%
%TA.AperFunction,ViaPad*%
%ADD21C,0.800000*%
%TD*%
%TA.AperFunction,Conductor*%
%ADD22C,0.250000*%
%TD*%
%TA.AperFunction,Conductor*%
%ADD23C,0.800000*%
%TD*%
%TA.AperFunction,Conductor*%
%ADD24C,0.550000*%
%TD*%
G04 APERTURE END LIST*
D10*
D11*
X128383266Y-145472578D02*
X128097551Y-145472578D01*
X128097551Y-145472578D02*
X127954694Y-145544007D01*
X127954694Y-145544007D02*
X127883266Y-145615435D01*
X127883266Y-145615435D02*
X127740408Y-145829721D01*
X127740408Y-145829721D02*
X127668980Y-146115435D01*
X127668980Y-146115435D02*
X127668980Y-146686864D01*
X127668980Y-146686864D02*
X127740408Y-146829721D01*
X127740408Y-146829721D02*
X127811837Y-146901150D01*
X127811837Y-146901150D02*
X127954694Y-146972578D01*
X127954694Y-146972578D02*
X128240408Y-146972578D01*
X128240408Y-146972578D02*
X128383266Y-146901150D01*
X128383266Y-146901150D02*
X128454694Y-146829721D01*
X128454694Y-146829721D02*
X128526123Y-146686864D01*
X128526123Y-146686864D02*
X128526123Y-146329721D01*
X128526123Y-146329721D02*
X128454694Y-146186864D01*
X128454694Y-146186864D02*
X128383266Y-146115435D01*
X128383266Y-146115435D02*
X128240408Y-146044007D01*
X128240408Y-146044007D02*
X127954694Y-146044007D01*
X127954694Y-146044007D02*
X127811837Y-146115435D01*
X127811837Y-146115435D02*
X127740408Y-146186864D01*
X127740408Y-146186864D02*
X127668980Y-146329721D01*
X129811837Y-145972578D02*
X129811837Y-146972578D01*
X129454694Y-145401150D02*
X129097551Y-146472578D01*
X129097551Y-146472578D02*
X130026122Y-146472578D01*
X130668979Y-146901150D02*
X130668979Y-146972578D01*
X130668979Y-146972578D02*
X130597550Y-147115435D01*
X130597550Y-147115435D02*
X130526122Y-147186864D01*
X132026122Y-145472578D02*
X131311836Y-145472578D01*
X131311836Y-145472578D02*
X131240408Y-146186864D01*
X131240408Y-146186864D02*
X131311836Y-146115435D01*
X131311836Y-146115435D02*
X131454694Y-146044007D01*
X131454694Y-146044007D02*
X131811836Y-146044007D01*
X131811836Y-146044007D02*
X131954694Y-146115435D01*
X131954694Y-146115435D02*
X132026122Y-146186864D01*
X132026122Y-146186864D02*
X132097551Y-146329721D01*
X132097551Y-146329721D02*
X132097551Y-146686864D01*
X132097551Y-146686864D02*
X132026122Y-146829721D01*
X132026122Y-146829721D02*
X131954694Y-146901150D01*
X131954694Y-146901150D02*
X131811836Y-146972578D01*
X131811836Y-146972578D02*
X131454694Y-146972578D01*
X131454694Y-146972578D02*
X131311836Y-146901150D01*
X131311836Y-146901150D02*
X131240408Y-146829721D01*
X133026122Y-145472578D02*
X133168979Y-145472578D01*
X133168979Y-145472578D02*
X133311836Y-145544007D01*
X133311836Y-145544007D02*
X133383265Y-145615435D01*
X133383265Y-145615435D02*
X133454693Y-145758292D01*
X133454693Y-145758292D02*
X133526122Y-146044007D01*
X133526122Y-146044007D02*
X133526122Y-146401150D01*
X133526122Y-146401150D02*
X133454693Y-146686864D01*
X133454693Y-146686864D02*
X133383265Y-146829721D01*
X133383265Y-146829721D02*
X133311836Y-146901150D01*
X133311836Y-146901150D02*
X133168979Y-146972578D01*
X133168979Y-146972578D02*
X133026122Y-146972578D01*
X133026122Y-146972578D02*
X132883265Y-146901150D01*
X132883265Y-146901150D02*
X132811836Y-146829721D01*
X132811836Y-146829721D02*
X132740407Y-146686864D01*
X132740407Y-146686864D02*
X132668979Y-146401150D01*
X132668979Y-146401150D02*
X132668979Y-146044007D01*
X132668979Y-146044007D02*
X132740407Y-145758292D01*
X132740407Y-145758292D02*
X132811836Y-145615435D01*
X132811836Y-145615435D02*
X132883265Y-145544007D01*
X132883265Y-145544007D02*
X133026122Y-145472578D01*
X134454693Y-145472578D02*
X134597550Y-145472578D01*
X134597550Y-145472578D02*
X134740407Y-145544007D01*
X134740407Y-145544007D02*
X134811836Y-145615435D01*
X134811836Y-145615435D02*
X134883264Y-145758292D01*
X134883264Y-145758292D02*
X134954693Y-146044007D01*
X134954693Y-146044007D02*
X134954693Y-146401150D01*
X134954693Y-146401150D02*
X134883264Y-146686864D01*
X134883264Y-146686864D02*
X134811836Y-146829721D01*
X134811836Y-146829721D02*
X134740407Y-146901150D01*
X134740407Y-146901150D02*
X134597550Y-146972578D01*
X134597550Y-146972578D02*
X134454693Y-146972578D01*
X134454693Y-146972578D02*
X134311836Y-146901150D01*
X134311836Y-146901150D02*
X134240407Y-146829721D01*
X134240407Y-146829721D02*
X134168978Y-146686864D01*
X134168978Y-146686864D02*
X134097550Y-146401150D01*
X134097550Y-146401150D02*
X134097550Y-146044007D01*
X134097550Y-146044007D02*
X134168978Y-145758292D01*
X134168978Y-145758292D02*
X134240407Y-145615435D01*
X134240407Y-145615435D02*
X134311836Y-145544007D01*
X134311836Y-145544007D02*
X134454693Y-145472578D01*
X135883264Y-145472578D02*
X136026121Y-145472578D01*
X136026121Y-145472578D02*
X136168978Y-145544007D01*
X136168978Y-145544007D02*
X136240407Y-145615435D01*
X136240407Y-145615435D02*
X136311835Y-145758292D01*
X136311835Y-145758292D02*
X136383264Y-146044007D01*
X136383264Y-146044007D02*
X136383264Y-146401150D01*
X136383264Y-146401150D02*
X136311835Y-146686864D01*
X136311835Y-146686864D02*
X136240407Y-146829721D01*
X136240407Y-146829721D02*
X136168978Y-146901150D01*
X136168978Y-146901150D02*
X136026121Y-146972578D01*
X136026121Y-146972578D02*
X135883264Y-146972578D01*
X135883264Y-146972578D02*
X135740407Y-146901150D01*
X135740407Y-146901150D02*
X135668978Y-146829721D01*
X135668978Y-146829721D02*
X135597549Y-146686864D01*
X135597549Y-146686864D02*
X135526121Y-146401150D01*
X135526121Y-146401150D02*
X135526121Y-146044007D01*
X135526121Y-146044007D02*
X135597549Y-145758292D01*
X135597549Y-145758292D02*
X135668978Y-145615435D01*
X135668978Y-145615435D02*
X135740407Y-145544007D01*
X135740407Y-145544007D02*
X135883264Y-145472578D01*
X138168977Y-146972578D02*
X138168977Y-145972578D01*
X138168977Y-146115435D02*
X138240406Y-146044007D01*
X138240406Y-146044007D02*
X138383263Y-145972578D01*
X138383263Y-145972578D02*
X138597549Y-145972578D01*
X138597549Y-145972578D02*
X138740406Y-146044007D01*
X138740406Y-146044007D02*
X138811835Y-146186864D01*
X138811835Y-146186864D02*
X138811835Y-146972578D01*
X138811835Y-146186864D02*
X138883263Y-146044007D01*
X138883263Y-146044007D02*
X139026120Y-145972578D01*
X139026120Y-145972578D02*
X139240406Y-145972578D01*
X139240406Y-145972578D02*
X139383263Y-146044007D01*
X139383263Y-146044007D02*
X139454692Y-146186864D01*
X139454692Y-146186864D02*
X139454692Y-146972578D01*
X140168977Y-146972578D02*
X140168977Y-145972578D01*
X140168977Y-146115435D02*
X140240406Y-146044007D01*
X140240406Y-146044007D02*
X140383263Y-145972578D01*
X140383263Y-145972578D02*
X140597549Y-145972578D01*
X140597549Y-145972578D02*
X140740406Y-146044007D01*
X140740406Y-146044007D02*
X140811835Y-146186864D01*
X140811835Y-146186864D02*
X140811835Y-146972578D01*
X140811835Y-146186864D02*
X140883263Y-146044007D01*
X140883263Y-146044007D02*
X141026120Y-145972578D01*
X141026120Y-145972578D02*
X141240406Y-145972578D01*
X141240406Y-145972578D02*
X141383263Y-146044007D01*
X141383263Y-146044007D02*
X141454692Y-146186864D01*
X141454692Y-146186864D02*
X141454692Y-146972578D01*
D12*
X102347550Y-136594250D02*
X102347550Y-148680670D01*
X166847550Y-148680670D02*
X166847550Y-136594250D01*
X102347550Y-148094250D02*
X166847550Y-148094250D01*
X102347550Y-148094250D02*
X103474054Y-147507829D01*
X102347550Y-148094250D02*
X103474054Y-148680671D01*
X166847550Y-148094250D02*
X165721046Y-148680671D01*
X166847550Y-148094250D02*
X165721046Y-147507829D01*
D10*
D11*
X92868735Y-100237105D02*
X92797307Y-100379962D01*
X92797307Y-100379962D02*
X92725878Y-100451391D01*
X92725878Y-100451391D02*
X92583021Y-100522819D01*
X92583021Y-100522819D02*
X92511592Y-100522819D01*
X92511592Y-100522819D02*
X92368735Y-100451391D01*
X92368735Y-100451391D02*
X92297307Y-100379962D01*
X92297307Y-100379962D02*
X92225878Y-100237105D01*
X92225878Y-100237105D02*
X92225878Y-99951391D01*
X92225878Y-99951391D02*
X92297307Y-99808534D01*
X92297307Y-99808534D02*
X92368735Y-99737105D01*
X92368735Y-99737105D02*
X92511592Y-99665676D01*
X92511592Y-99665676D02*
X92583021Y-99665676D01*
X92583021Y-99665676D02*
X92725878Y-99737105D01*
X92725878Y-99737105D02*
X92797307Y-99808534D01*
X92797307Y-99808534D02*
X92868735Y-99951391D01*
X92868735Y-99951391D02*
X92868735Y-100237105D01*
X92868735Y-100237105D02*
X92940164Y-100379962D01*
X92940164Y-100379962D02*
X93011592Y-100451391D01*
X93011592Y-100451391D02*
X93154450Y-100522819D01*
X93154450Y-100522819D02*
X93440164Y-100522819D01*
X93440164Y-100522819D02*
X93583021Y-100451391D01*
X93583021Y-100451391D02*
X93654450Y-100379962D01*
X93654450Y-100379962D02*
X93725878Y-100237105D01*
X93725878Y-100237105D02*
X93725878Y-99951391D01*
X93725878Y-99951391D02*
X93654450Y-99808534D01*
X93654450Y-99808534D02*
X93583021Y-99737105D01*
X93583021Y-99737105D02*
X93440164Y-99665676D01*
X93440164Y-99665676D02*
X93154450Y-99665676D01*
X93154450Y-99665676D02*
X93011592Y-99737105D01*
X93011592Y-99737105D02*
X92940164Y-99808534D01*
X92940164Y-99808534D02*
X92868735Y-99951391D01*
X92225878Y-98308534D02*
X92225878Y-99022820D01*
X92225878Y-99022820D02*
X92940164Y-99094248D01*
X92940164Y-99094248D02*
X92868735Y-99022820D01*
X92868735Y-99022820D02*
X92797307Y-98879963D01*
X92797307Y-98879963D02*
X92797307Y-98522820D01*
X92797307Y-98522820D02*
X92868735Y-98379963D01*
X92868735Y-98379963D02*
X92940164Y-98308534D01*
X92940164Y-98308534D02*
X93083021Y-98237105D01*
X93083021Y-98237105D02*
X93440164Y-98237105D01*
X93440164Y-98237105D02*
X93583021Y-98308534D01*
X93583021Y-98308534D02*
X93654450Y-98379963D01*
X93654450Y-98379963D02*
X93725878Y-98522820D01*
X93725878Y-98522820D02*
X93725878Y-98879963D01*
X93725878Y-98879963D02*
X93654450Y-99022820D01*
X93654450Y-99022820D02*
X93583021Y-99094248D01*
X93654450Y-97522820D02*
X93725878Y-97522820D01*
X93725878Y-97522820D02*
X93868735Y-97594249D01*
X93868735Y-97594249D02*
X93940164Y-97665677D01*
X92225878Y-96594248D02*
X92225878Y-96451391D01*
X92225878Y-96451391D02*
X92297307Y-96308534D01*
X92297307Y-96308534D02*
X92368735Y-96237106D01*
X92368735Y-96237106D02*
X92511592Y-96165677D01*
X92511592Y-96165677D02*
X92797307Y-96094248D01*
X92797307Y-96094248D02*
X93154450Y-96094248D01*
X93154450Y-96094248D02*
X93440164Y-96165677D01*
X93440164Y-96165677D02*
X93583021Y-96237106D01*
X93583021Y-96237106D02*
X93654450Y-96308534D01*
X93654450Y-96308534D02*
X93725878Y-96451391D01*
X93725878Y-96451391D02*
X93725878Y-96594248D01*
X93725878Y-96594248D02*
X93654450Y-96737106D01*
X93654450Y-96737106D02*
X93583021Y-96808534D01*
X93583021Y-96808534D02*
X93440164Y-96879963D01*
X93440164Y-96879963D02*
X93154450Y-96951391D01*
X93154450Y-96951391D02*
X92797307Y-96951391D01*
X92797307Y-96951391D02*
X92511592Y-96879963D01*
X92511592Y-96879963D02*
X92368735Y-96808534D01*
X92368735Y-96808534D02*
X92297307Y-96737106D01*
X92297307Y-96737106D02*
X92225878Y-96594248D01*
X92225878Y-95165677D02*
X92225878Y-95022820D01*
X92225878Y-95022820D02*
X92297307Y-94879963D01*
X92297307Y-94879963D02*
X92368735Y-94808535D01*
X92368735Y-94808535D02*
X92511592Y-94737106D01*
X92511592Y-94737106D02*
X92797307Y-94665677D01*
X92797307Y-94665677D02*
X93154450Y-94665677D01*
X93154450Y-94665677D02*
X93440164Y-94737106D01*
X93440164Y-94737106D02*
X93583021Y-94808535D01*
X93583021Y-94808535D02*
X93654450Y-94879963D01*
X93654450Y-94879963D02*
X93725878Y-95022820D01*
X93725878Y-95022820D02*
X93725878Y-95165677D01*
X93725878Y-95165677D02*
X93654450Y-95308535D01*
X93654450Y-95308535D02*
X93583021Y-95379963D01*
X93583021Y-95379963D02*
X93440164Y-95451392D01*
X93440164Y-95451392D02*
X93154450Y-95522820D01*
X93154450Y-95522820D02*
X92797307Y-95522820D01*
X92797307Y-95522820D02*
X92511592Y-95451392D01*
X92511592Y-95451392D02*
X92368735Y-95379963D01*
X92368735Y-95379963D02*
X92297307Y-95308535D01*
X92297307Y-95308535D02*
X92225878Y-95165677D01*
X92225878Y-93737106D02*
X92225878Y-93594249D01*
X92225878Y-93594249D02*
X92297307Y-93451392D01*
X92297307Y-93451392D02*
X92368735Y-93379964D01*
X92368735Y-93379964D02*
X92511592Y-93308535D01*
X92511592Y-93308535D02*
X92797307Y-93237106D01*
X92797307Y-93237106D02*
X93154450Y-93237106D01*
X93154450Y-93237106D02*
X93440164Y-93308535D01*
X93440164Y-93308535D02*
X93583021Y-93379964D01*
X93583021Y-93379964D02*
X93654450Y-93451392D01*
X93654450Y-93451392D02*
X93725878Y-93594249D01*
X93725878Y-93594249D02*
X93725878Y-93737106D01*
X93725878Y-93737106D02*
X93654450Y-93879964D01*
X93654450Y-93879964D02*
X93583021Y-93951392D01*
X93583021Y-93951392D02*
X93440164Y-94022821D01*
X93440164Y-94022821D02*
X93154450Y-94094249D01*
X93154450Y-94094249D02*
X92797307Y-94094249D01*
X92797307Y-94094249D02*
X92511592Y-94022821D01*
X92511592Y-94022821D02*
X92368735Y-93951392D01*
X92368735Y-93951392D02*
X92297307Y-93879964D01*
X92297307Y-93879964D02*
X92225878Y-93737106D01*
X92225878Y-92308535D02*
X92225878Y-92165678D01*
X92225878Y-92165678D02*
X92297307Y-92022821D01*
X92297307Y-92022821D02*
X92368735Y-91951393D01*
X92368735Y-91951393D02*
X92511592Y-91879964D01*
X92511592Y-91879964D02*
X92797307Y-91808535D01*
X92797307Y-91808535D02*
X93154450Y-91808535D01*
X93154450Y-91808535D02*
X93440164Y-91879964D01*
X93440164Y-91879964D02*
X93583021Y-91951393D01*
X93583021Y-91951393D02*
X93654450Y-92022821D01*
X93654450Y-92022821D02*
X93725878Y-92165678D01*
X93725878Y-92165678D02*
X93725878Y-92308535D01*
X93725878Y-92308535D02*
X93654450Y-92451393D01*
X93654450Y-92451393D02*
X93583021Y-92522821D01*
X93583021Y-92522821D02*
X93440164Y-92594250D01*
X93440164Y-92594250D02*
X93154450Y-92665678D01*
X93154450Y-92665678D02*
X92797307Y-92665678D01*
X92797307Y-92665678D02*
X92511592Y-92594250D01*
X92511592Y-92594250D02*
X92368735Y-92522821D01*
X92368735Y-92522821D02*
X92297307Y-92451393D01*
X92297307Y-92451393D02*
X92225878Y-92308535D01*
X93725878Y-90022822D02*
X92725878Y-90022822D01*
X92868735Y-90022822D02*
X92797307Y-89951393D01*
X92797307Y-89951393D02*
X92725878Y-89808536D01*
X92725878Y-89808536D02*
X92725878Y-89594250D01*
X92725878Y-89594250D02*
X92797307Y-89451393D01*
X92797307Y-89451393D02*
X92940164Y-89379965D01*
X92940164Y-89379965D02*
X93725878Y-89379965D01*
X92940164Y-89379965D02*
X92797307Y-89308536D01*
X92797307Y-89308536D02*
X92725878Y-89165679D01*
X92725878Y-89165679D02*
X92725878Y-88951393D01*
X92725878Y-88951393D02*
X92797307Y-88808536D01*
X92797307Y-88808536D02*
X92940164Y-88737107D01*
X92940164Y-88737107D02*
X93725878Y-88737107D01*
X93725878Y-88022822D02*
X92725878Y-88022822D01*
X92868735Y-88022822D02*
X92797307Y-87951393D01*
X92797307Y-87951393D02*
X92725878Y-87808536D01*
X92725878Y-87808536D02*
X92725878Y-87594250D01*
X92725878Y-87594250D02*
X92797307Y-87451393D01*
X92797307Y-87451393D02*
X92940164Y-87379965D01*
X92940164Y-87379965D02*
X93725878Y-87379965D01*
X92940164Y-87379965D02*
X92797307Y-87308536D01*
X92797307Y-87308536D02*
X92725878Y-87165679D01*
X92725878Y-87165679D02*
X92725878Y-86951393D01*
X92725878Y-86951393D02*
X92797307Y-86808536D01*
X92797307Y-86808536D02*
X92940164Y-86737107D01*
X92940164Y-86737107D02*
X93725878Y-86737107D01*
D12*
X98847550Y-51094250D02*
X94261130Y-51094250D01*
X94261130Y-136094250D02*
X98847550Y-136094250D01*
X94847550Y-51094250D02*
X94847550Y-136094250D01*
X94847550Y-51094250D02*
X95433971Y-52220754D01*
X94847550Y-51094250D02*
X94261129Y-52220754D01*
X94847550Y-136094250D02*
X94261129Y-134967746D01*
X94847550Y-136094250D02*
X95433971Y-134967746D01*
D10*
D11*
X127597551Y-39972578D02*
X128597551Y-39972578D01*
X128597551Y-39972578D02*
X127954694Y-41472578D01*
X129454694Y-39972578D02*
X129597551Y-39972578D01*
X129597551Y-39972578D02*
X129740408Y-40044007D01*
X129740408Y-40044007D02*
X129811837Y-40115435D01*
X129811837Y-40115435D02*
X129883265Y-40258292D01*
X129883265Y-40258292D02*
X129954694Y-40544007D01*
X129954694Y-40544007D02*
X129954694Y-40901150D01*
X129954694Y-40901150D02*
X129883265Y-41186864D01*
X129883265Y-41186864D02*
X129811837Y-41329721D01*
X129811837Y-41329721D02*
X129740408Y-41401150D01*
X129740408Y-41401150D02*
X129597551Y-41472578D01*
X129597551Y-41472578D02*
X129454694Y-41472578D01*
X129454694Y-41472578D02*
X129311837Y-41401150D01*
X129311837Y-41401150D02*
X129240408Y-41329721D01*
X129240408Y-41329721D02*
X129168979Y-41186864D01*
X129168979Y-41186864D02*
X129097551Y-40901150D01*
X129097551Y-40901150D02*
X129097551Y-40544007D01*
X129097551Y-40544007D02*
X129168979Y-40258292D01*
X129168979Y-40258292D02*
X129240408Y-40115435D01*
X129240408Y-40115435D02*
X129311837Y-40044007D01*
X129311837Y-40044007D02*
X129454694Y-39972578D01*
X130668979Y-41401150D02*
X130668979Y-41472578D01*
X130668979Y-41472578D02*
X130597550Y-41615435D01*
X130597550Y-41615435D02*
X130526122Y-41686864D01*
X132026122Y-39972578D02*
X131311836Y-39972578D01*
X131311836Y-39972578D02*
X131240408Y-40686864D01*
X131240408Y-40686864D02*
X131311836Y-40615435D01*
X131311836Y-40615435D02*
X131454694Y-40544007D01*
X131454694Y-40544007D02*
X131811836Y-40544007D01*
X131811836Y-40544007D02*
X131954694Y-40615435D01*
X131954694Y-40615435D02*
X132026122Y-40686864D01*
X132026122Y-40686864D02*
X132097551Y-40829721D01*
X132097551Y-40829721D02*
X132097551Y-41186864D01*
X132097551Y-41186864D02*
X132026122Y-41329721D01*
X132026122Y-41329721D02*
X131954694Y-41401150D01*
X131954694Y-41401150D02*
X131811836Y-41472578D01*
X131811836Y-41472578D02*
X131454694Y-41472578D01*
X131454694Y-41472578D02*
X131311836Y-41401150D01*
X131311836Y-41401150D02*
X131240408Y-41329721D01*
X133026122Y-39972578D02*
X133168979Y-39972578D01*
X133168979Y-39972578D02*
X133311836Y-40044007D01*
X133311836Y-40044007D02*
X133383265Y-40115435D01*
X133383265Y-40115435D02*
X133454693Y-40258292D01*
X133454693Y-40258292D02*
X133526122Y-40544007D01*
X133526122Y-40544007D02*
X133526122Y-40901150D01*
X133526122Y-40901150D02*
X133454693Y-41186864D01*
X133454693Y-41186864D02*
X133383265Y-41329721D01*
X133383265Y-41329721D02*
X133311836Y-41401150D01*
X133311836Y-41401150D02*
X133168979Y-41472578D01*
X133168979Y-41472578D02*
X133026122Y-41472578D01*
X133026122Y-41472578D02*
X132883265Y-41401150D01*
X132883265Y-41401150D02*
X132811836Y-41329721D01*
X132811836Y-41329721D02*
X132740407Y-41186864D01*
X132740407Y-41186864D02*
X132668979Y-40901150D01*
X132668979Y-40901150D02*
X132668979Y-40544007D01*
X132668979Y-40544007D02*
X132740407Y-40258292D01*
X132740407Y-40258292D02*
X132811836Y-40115435D01*
X132811836Y-40115435D02*
X132883265Y-40044007D01*
X132883265Y-40044007D02*
X133026122Y-39972578D01*
X134454693Y-39972578D02*
X134597550Y-39972578D01*
X134597550Y-39972578D02*
X134740407Y-40044007D01*
X134740407Y-40044007D02*
X134811836Y-40115435D01*
X134811836Y-40115435D02*
X134883264Y-40258292D01*
X134883264Y-40258292D02*
X134954693Y-40544007D01*
X134954693Y-40544007D02*
X134954693Y-40901150D01*
X134954693Y-40901150D02*
X134883264Y-41186864D01*
X134883264Y-41186864D02*
X134811836Y-41329721D01*
X134811836Y-41329721D02*
X134740407Y-41401150D01*
X134740407Y-41401150D02*
X134597550Y-41472578D01*
X134597550Y-41472578D02*
X134454693Y-41472578D01*
X134454693Y-41472578D02*
X134311836Y-41401150D01*
X134311836Y-41401150D02*
X134240407Y-41329721D01*
X134240407Y-41329721D02*
X134168978Y-41186864D01*
X134168978Y-41186864D02*
X134097550Y-40901150D01*
X134097550Y-40901150D02*
X134097550Y-40544007D01*
X134097550Y-40544007D02*
X134168978Y-40258292D01*
X134168978Y-40258292D02*
X134240407Y-40115435D01*
X134240407Y-40115435D02*
X134311836Y-40044007D01*
X134311836Y-40044007D02*
X134454693Y-39972578D01*
X135883264Y-39972578D02*
X136026121Y-39972578D01*
X136026121Y-39972578D02*
X136168978Y-40044007D01*
X136168978Y-40044007D02*
X136240407Y-40115435D01*
X136240407Y-40115435D02*
X136311835Y-40258292D01*
X136311835Y-40258292D02*
X136383264Y-40544007D01*
X136383264Y-40544007D02*
X136383264Y-40901150D01*
X136383264Y-40901150D02*
X136311835Y-41186864D01*
X136311835Y-41186864D02*
X136240407Y-41329721D01*
X136240407Y-41329721D02*
X136168978Y-41401150D01*
X136168978Y-41401150D02*
X136026121Y-41472578D01*
X136026121Y-41472578D02*
X135883264Y-41472578D01*
X135883264Y-41472578D02*
X135740407Y-41401150D01*
X135740407Y-41401150D02*
X135668978Y-41329721D01*
X135668978Y-41329721D02*
X135597549Y-41186864D01*
X135597549Y-41186864D02*
X135526121Y-40901150D01*
X135526121Y-40901150D02*
X135526121Y-40544007D01*
X135526121Y-40544007D02*
X135597549Y-40258292D01*
X135597549Y-40258292D02*
X135668978Y-40115435D01*
X135668978Y-40115435D02*
X135740407Y-40044007D01*
X135740407Y-40044007D02*
X135883264Y-39972578D01*
X138168977Y-41472578D02*
X138168977Y-40472578D01*
X138168977Y-40615435D02*
X138240406Y-40544007D01*
X138240406Y-40544007D02*
X138383263Y-40472578D01*
X138383263Y-40472578D02*
X138597549Y-40472578D01*
X138597549Y-40472578D02*
X138740406Y-40544007D01*
X138740406Y-40544007D02*
X138811835Y-40686864D01*
X138811835Y-40686864D02*
X138811835Y-41472578D01*
X138811835Y-40686864D02*
X138883263Y-40544007D01*
X138883263Y-40544007D02*
X139026120Y-40472578D01*
X139026120Y-40472578D02*
X139240406Y-40472578D01*
X139240406Y-40472578D02*
X139383263Y-40544007D01*
X139383263Y-40544007D02*
X139454692Y-40686864D01*
X139454692Y-40686864D02*
X139454692Y-41472578D01*
X140168977Y-41472578D02*
X140168977Y-40472578D01*
X140168977Y-40615435D02*
X140240406Y-40544007D01*
X140240406Y-40544007D02*
X140383263Y-40472578D01*
X140383263Y-40472578D02*
X140597549Y-40472578D01*
X140597549Y-40472578D02*
X140740406Y-40544007D01*
X140740406Y-40544007D02*
X140811835Y-40686864D01*
X140811835Y-40686864D02*
X140811835Y-41472578D01*
X140811835Y-40686864D02*
X140883263Y-40544007D01*
X140883263Y-40544007D02*
X141026120Y-40472578D01*
X141026120Y-40472578D02*
X141240406Y-40472578D01*
X141240406Y-40472578D02*
X141383263Y-40544007D01*
X141383263Y-40544007D02*
X141454692Y-40686864D01*
X141454692Y-40686864D02*
X141454692Y-41472578D01*
D12*
X99347550Y-50594250D02*
X99347550Y-42007830D01*
X169847550Y-42007830D02*
X169847550Y-50594250D01*
X99347550Y-42594250D02*
X169847550Y-42594250D01*
X99347550Y-42594250D02*
X100474054Y-42007829D01*
X99347550Y-42594250D02*
X100474054Y-43180671D01*
X169847550Y-42594250D02*
X168721046Y-43180671D01*
X169847550Y-42594250D02*
X168721046Y-42007829D01*
D10*
D11*
X186225878Y-100594248D02*
X186225878Y-99594248D01*
X186225878Y-99594248D02*
X187725878Y-100237105D01*
X187725878Y-98951391D02*
X187725878Y-98665677D01*
X187725878Y-98665677D02*
X187654450Y-98522820D01*
X187654450Y-98522820D02*
X187583021Y-98451391D01*
X187583021Y-98451391D02*
X187368735Y-98308534D01*
X187368735Y-98308534D02*
X187083021Y-98237105D01*
X187083021Y-98237105D02*
X186511592Y-98237105D01*
X186511592Y-98237105D02*
X186368735Y-98308534D01*
X186368735Y-98308534D02*
X186297307Y-98379963D01*
X186297307Y-98379963D02*
X186225878Y-98522820D01*
X186225878Y-98522820D02*
X186225878Y-98808534D01*
X186225878Y-98808534D02*
X186297307Y-98951391D01*
X186297307Y-98951391D02*
X186368735Y-99022820D01*
X186368735Y-99022820D02*
X186511592Y-99094248D01*
X186511592Y-99094248D02*
X186868735Y-99094248D01*
X186868735Y-99094248D02*
X187011592Y-99022820D01*
X187011592Y-99022820D02*
X187083021Y-98951391D01*
X187083021Y-98951391D02*
X187154450Y-98808534D01*
X187154450Y-98808534D02*
X187154450Y-98522820D01*
X187154450Y-98522820D02*
X187083021Y-98379963D01*
X187083021Y-98379963D02*
X187011592Y-98308534D01*
X187011592Y-98308534D02*
X186868735Y-98237105D01*
X187654450Y-97522820D02*
X187725878Y-97522820D01*
X187725878Y-97522820D02*
X187868735Y-97594249D01*
X187868735Y-97594249D02*
X187940164Y-97665677D01*
X186225878Y-96594248D02*
X186225878Y-96451391D01*
X186225878Y-96451391D02*
X186297307Y-96308534D01*
X186297307Y-96308534D02*
X186368735Y-96237106D01*
X186368735Y-96237106D02*
X186511592Y-96165677D01*
X186511592Y-96165677D02*
X186797307Y-96094248D01*
X186797307Y-96094248D02*
X187154450Y-96094248D01*
X187154450Y-96094248D02*
X187440164Y-96165677D01*
X187440164Y-96165677D02*
X187583021Y-96237106D01*
X187583021Y-96237106D02*
X187654450Y-96308534D01*
X187654450Y-96308534D02*
X187725878Y-96451391D01*
X187725878Y-96451391D02*
X187725878Y-96594248D01*
X187725878Y-96594248D02*
X187654450Y-96737106D01*
X187654450Y-96737106D02*
X187583021Y-96808534D01*
X187583021Y-96808534D02*
X187440164Y-96879963D01*
X187440164Y-96879963D02*
X187154450Y-96951391D01*
X187154450Y-96951391D02*
X186797307Y-96951391D01*
X186797307Y-96951391D02*
X186511592Y-96879963D01*
X186511592Y-96879963D02*
X186368735Y-96808534D01*
X186368735Y-96808534D02*
X186297307Y-96737106D01*
X186297307Y-96737106D02*
X186225878Y-96594248D01*
X186225878Y-95165677D02*
X186225878Y-95022820D01*
X186225878Y-95022820D02*
X186297307Y-94879963D01*
X186297307Y-94879963D02*
X186368735Y-94808535D01*
X186368735Y-94808535D02*
X186511592Y-94737106D01*
X186511592Y-94737106D02*
X186797307Y-94665677D01*
X186797307Y-94665677D02*
X187154450Y-94665677D01*
X187154450Y-94665677D02*
X187440164Y-94737106D01*
X187440164Y-94737106D02*
X187583021Y-94808535D01*
X187583021Y-94808535D02*
X187654450Y-94879963D01*
X187654450Y-94879963D02*
X187725878Y-95022820D01*
X187725878Y-95022820D02*
X187725878Y-95165677D01*
X187725878Y-95165677D02*
X187654450Y-95308535D01*
X187654450Y-95308535D02*
X187583021Y-95379963D01*
X187583021Y-95379963D02*
X187440164Y-95451392D01*
X187440164Y-95451392D02*
X187154450Y-95522820D01*
X187154450Y-95522820D02*
X186797307Y-95522820D01*
X186797307Y-95522820D02*
X186511592Y-95451392D01*
X186511592Y-95451392D02*
X186368735Y-95379963D01*
X186368735Y-95379963D02*
X186297307Y-95308535D01*
X186297307Y-95308535D02*
X186225878Y-95165677D01*
X186225878Y-93737106D02*
X186225878Y-93594249D01*
X186225878Y-93594249D02*
X186297307Y-93451392D01*
X186297307Y-93451392D02*
X186368735Y-93379964D01*
X186368735Y-93379964D02*
X186511592Y-93308535D01*
X186511592Y-93308535D02*
X186797307Y-93237106D01*
X186797307Y-93237106D02*
X187154450Y-93237106D01*
X187154450Y-93237106D02*
X187440164Y-93308535D01*
X187440164Y-93308535D02*
X187583021Y-93379964D01*
X187583021Y-93379964D02*
X187654450Y-93451392D01*
X187654450Y-93451392D02*
X187725878Y-93594249D01*
X187725878Y-93594249D02*
X187725878Y-93737106D01*
X187725878Y-93737106D02*
X187654450Y-93879964D01*
X187654450Y-93879964D02*
X187583021Y-93951392D01*
X187583021Y-93951392D02*
X187440164Y-94022821D01*
X187440164Y-94022821D02*
X187154450Y-94094249D01*
X187154450Y-94094249D02*
X186797307Y-94094249D01*
X186797307Y-94094249D02*
X186511592Y-94022821D01*
X186511592Y-94022821D02*
X186368735Y-93951392D01*
X186368735Y-93951392D02*
X186297307Y-93879964D01*
X186297307Y-93879964D02*
X186225878Y-93737106D01*
X186225878Y-92308535D02*
X186225878Y-92165678D01*
X186225878Y-92165678D02*
X186297307Y-92022821D01*
X186297307Y-92022821D02*
X186368735Y-91951393D01*
X186368735Y-91951393D02*
X186511592Y-91879964D01*
X186511592Y-91879964D02*
X186797307Y-91808535D01*
X186797307Y-91808535D02*
X187154450Y-91808535D01*
X187154450Y-91808535D02*
X187440164Y-91879964D01*
X187440164Y-91879964D02*
X187583021Y-91951393D01*
X187583021Y-91951393D02*
X187654450Y-92022821D01*
X187654450Y-92022821D02*
X187725878Y-92165678D01*
X187725878Y-92165678D02*
X187725878Y-92308535D01*
X187725878Y-92308535D02*
X187654450Y-92451393D01*
X187654450Y-92451393D02*
X187583021Y-92522821D01*
X187583021Y-92522821D02*
X187440164Y-92594250D01*
X187440164Y-92594250D02*
X187154450Y-92665678D01*
X187154450Y-92665678D02*
X186797307Y-92665678D01*
X186797307Y-92665678D02*
X186511592Y-92594250D01*
X186511592Y-92594250D02*
X186368735Y-92522821D01*
X186368735Y-92522821D02*
X186297307Y-92451393D01*
X186297307Y-92451393D02*
X186225878Y-92308535D01*
X187725878Y-90022822D02*
X186725878Y-90022822D01*
X186868735Y-90022822D02*
X186797307Y-89951393D01*
X186797307Y-89951393D02*
X186725878Y-89808536D01*
X186725878Y-89808536D02*
X186725878Y-89594250D01*
X186725878Y-89594250D02*
X186797307Y-89451393D01*
X186797307Y-89451393D02*
X186940164Y-89379965D01*
X186940164Y-89379965D02*
X187725878Y-89379965D01*
X186940164Y-89379965D02*
X186797307Y-89308536D01*
X186797307Y-89308536D02*
X186725878Y-89165679D01*
X186725878Y-89165679D02*
X186725878Y-88951393D01*
X186725878Y-88951393D02*
X186797307Y-88808536D01*
X186797307Y-88808536D02*
X186940164Y-88737107D01*
X186940164Y-88737107D02*
X187725878Y-88737107D01*
X187725878Y-88022822D02*
X186725878Y-88022822D01*
X186868735Y-88022822D02*
X186797307Y-87951393D01*
X186797307Y-87951393D02*
X186725878Y-87808536D01*
X186725878Y-87808536D02*
X186725878Y-87594250D01*
X186725878Y-87594250D02*
X186797307Y-87451393D01*
X186797307Y-87451393D02*
X186940164Y-87379965D01*
X186940164Y-87379965D02*
X187725878Y-87379965D01*
X186940164Y-87379965D02*
X186797307Y-87308536D01*
X186797307Y-87308536D02*
X186725878Y-87165679D01*
X186725878Y-87165679D02*
X186725878Y-86951393D01*
X186725878Y-86951393D02*
X186797307Y-86808536D01*
X186797307Y-86808536D02*
X186940164Y-86737107D01*
X186940164Y-86737107D02*
X187725878Y-86737107D01*
D12*
X170847550Y-133094250D02*
X189433970Y-133094250D01*
X189433970Y-54094250D02*
X171347550Y-54094250D01*
X188847550Y-133094250D02*
X188847550Y-54094250D01*
X188847550Y-133094250D02*
X188261129Y-131967746D01*
X188847550Y-133094250D02*
X189433971Y-131967746D01*
X188847550Y-54094250D02*
X189433971Y-55220754D01*
X188847550Y-54094250D02*
X188261129Y-55220754D01*
D13*
%TO.P,SEN0142,1,VIN*%
%TO.N,+3.3V*%
X148702550Y-82014250D03*
%TO.P,SEN0142,2,GND*%
%TO.N,GND*%
X148702550Y-84554250D03*
%TO.P,SEN0142,3,SDA*%
%TO.N,Net-(M1-SDA)*%
X148702550Y-87094250D03*
%TO.P,SEN0142,4,SCL*%
%TO.N,Net-(M1-SCL)*%
X148702550Y-89634250D03*
%TO.P,SEN0142,5,INT*%
%TO.N,unconnected-(M1-INT-Pad5)*%
X148702550Y-92174250D03*
%TD*%
D14*
%TO.P,ROB-1445,1,VM*%
%TO.N,+6V*%
X142347550Y-106974250D03*
%TO.P,ROB-1445,2,VCC*%
%TO.N,+3.3V*%
X142347550Y-109514250D03*
%TO.P,ROB-1445,3,GND*%
%TO.N,GND*%
X142347550Y-112054250D03*
%TO.P,ROB-1445,4,A01*%
%TO.N,Net-(U2-A01)*%
X142347550Y-114594250D03*
%TO.P,ROB-1445,5,A02*%
%TO.N,Net-(U2-A02)*%
X142347550Y-117134250D03*
%TO.P,ROB-1445,6,B02*%
%TO.N,Net-(U2-B02)*%
X142347550Y-119674250D03*
%TO.P,ROB-1445,7,B01*%
%TO.N,Net-(U2-B01)*%
X142347550Y-122214250D03*
%TO.P,ROB-1445,8,GND*%
%TO.N,GND*%
X142347550Y-124754250D03*
%TO.P,ROB-1445,9,GND*%
X157587550Y-124754250D03*
%TO.P,ROB-1445,10,PWMB*%
%TO.N,Net-(U1-IO16)*%
X157587550Y-122214250D03*
%TO.P,ROB-1445,11,BI2*%
%TO.N,Net-(U1-IO17)*%
X157587550Y-119674250D03*
%TO.P,ROB-1445,12,BI1*%
%TO.N,Net-(U1-IO5)*%
X157587550Y-117134250D03*
%TO.P,ROB-1445,13,STBY*%
%TO.N,Net-(U1-IO18)*%
X157587550Y-114594250D03*
%TO.P,ROB-1445,14,AI1*%
%TO.N,Net-(U1-IO4)*%
X157587550Y-112054250D03*
%TO.P,ROB-1445,15,AI2*%
%TO.N,Net-(U1-IO0)*%
X157587550Y-109514250D03*
%TO.P,ROB-1445,16,PWMA*%
%TO.N,Net-(U1-IO23)*%
X157587550Y-106974250D03*
%TD*%
D15*
%TO.P,LM7805CT,1,IN*%
%TO.N,+6V*%
X126847550Y-119094250D03*
D16*
%TO.P,LM7805CT,2,GND*%
%TO.N,GND*%
X126847550Y-121634250D03*
%TO.P,LM7805CT,3,OUT*%
%TO.N,+5V*%
X126847550Y-124174250D03*
%TD*%
D17*
%TO.P,XT 30 Alimentacion,P$1,+*%
%TO.N,+6V*%
X109347550Y-119094250D03*
%TO.P,XT 30 Alimentacion,P$2,-*%
%TO.N,GND*%
X109347550Y-124094250D03*
%TD*%
%TO.P,Motor DER.,P$1,+*%
%TO.N,Net-(U2-B01)*%
X138847550Y-56094250D03*
%TO.P,Motor DER.,P$2,-*%
%TO.N,Net-(U2-B02)*%
X143847550Y-56094250D03*
%TD*%
%TO.P,Motor IZ.,P$1,+*%
%TO.N,Net-(U2-A01)*%
X140847550Y-130594250D03*
%TO.P,Motor IZ.,P$2,-*%
%TO.N,Net-(U2-A02)*%
X145847550Y-130594250D03*
%TD*%
D18*
%TO.P,ESP32-DEVKITC-32D-F,1,3V3*%
%TO.N,+3.3V*%
X107946843Y-64594250D03*
D19*
%TO.P,ESP32-DEVKITC-32D-F,2,EN*%
%TO.N,unconnected-(U1-EN-Pad2)*%
X107946843Y-67134250D03*
%TO.P,ESP32-DEVKITC-32D-F,3,SENSOR_VP*%
%TO.N,unconnected-(U1-SENSOR_VP-Pad3)*%
X107946843Y-69674250D03*
%TO.P,ESP32-DEVKITC-32D-F,4,SENSOR_VN*%
%TO.N,unconnected-(U1-SENSOR_VN-Pad4)*%
X107946843Y-72214250D03*
%TO.P,ESP32-DEVKITC-32D-F,5,IO34*%
%TO.N,unconnected-(U1-IO34-Pad5)*%
X107946843Y-74754250D03*
%TO.P,ESP32-DEVKITC-32D-F,6,IO35*%
%TO.N,unconnected-(U1-IO35-Pad6)*%
X107946843Y-77294250D03*
%TO.P,ESP32-DEVKITC-32D-F,7,IO32*%
%TO.N,unconnected-(U1-IO32-Pad7)*%
X107946843Y-79834250D03*
%TO.P,ESP32-DEVKITC-32D-F,8,IO33*%
%TO.N,unconnected-(U1-IO33-Pad8)*%
X107946843Y-82374250D03*
%TO.P,ESP32-DEVKITC-32D-F,9,IO25*%
%TO.N,unconnected-(U1-IO25-Pad9)*%
X107946843Y-84914250D03*
%TO.P,ESP32-DEVKITC-32D-F,10,IO26*%
%TO.N,unconnected-(U1-IO26-Pad10)*%
X107946843Y-87454250D03*
%TO.P,ESP32-DEVKITC-32D-F,11,IO27*%
%TO.N,unconnected-(U1-IO27-Pad11)*%
X107946843Y-89994250D03*
%TO.P,ESP32-DEVKITC-32D-F,12,IO14*%
%TO.N,unconnected-(U1-IO14-Pad12)*%
X107946843Y-92534250D03*
%TO.P,ESP32-DEVKITC-32D-F,13,IO12*%
%TO.N,unconnected-(U1-IO12-Pad13)*%
X107946843Y-95074250D03*
%TO.P,ESP32-DEVKITC-32D-F,14,GND1*%
%TO.N,GND*%
X107946843Y-97614250D03*
%TO.P,ESP32-DEVKITC-32D-F,15,IO13*%
%TO.N,unconnected-(U1-IO13-Pad15)*%
X107946843Y-100154250D03*
%TO.P,ESP32-DEVKITC-32D-F,16,SD2*%
%TO.N,unconnected-(U1-SD2-Pad16)*%
X107946843Y-102694250D03*
%TO.P,ESP32-DEVKITC-32D-F,17,SD3*%
%TO.N,unconnected-(U1-SD3-Pad17)*%
X107946843Y-105234250D03*
%TO.P,ESP32-DEVKITC-32D-F,18,CMD*%
%TO.N,unconnected-(U1-CMD-Pad18)*%
X107946843Y-107774250D03*
%TO.P,ESP32-DEVKITC-32D-F,19,EXT_5V*%
%TO.N,+5V*%
X107946843Y-110314250D03*
%TO.P,ESP32-DEVKITC-32D-F,20,CLK*%
%TO.N,unconnected-(U1-CLK-Pad20)*%
X133346843Y-110314250D03*
%TO.P,ESP32-DEVKITC-32D-F,21,SD0*%
%TO.N,unconnected-(U1-SD0-Pad21)*%
X133346843Y-107774250D03*
%TO.P,ESP32-DEVKITC-32D-F,22,SD1*%
%TO.N,unconnected-(U1-SD1-Pad22)*%
X133346843Y-105234250D03*
%TO.P,ESP32-DEVKITC-32D-F,23,IO15*%
%TO.N,unconnected-(U1-IO15-Pad23)*%
X133346843Y-102694250D03*
%TO.P,ESP32-DEVKITC-32D-F,24,IO2*%
%TO.N,unconnected-(U1-IO2-Pad24)*%
X133346843Y-100154250D03*
%TO.P,ESP32-DEVKITC-32D-F,25,IO0*%
%TO.N,Net-(U1-IO0)*%
X133346843Y-97614250D03*
%TO.P,ESP32-DEVKITC-32D-F,26,IO4*%
%TO.N,Net-(U1-IO4)*%
X133346843Y-95074250D03*
%TO.P,ESP32-DEVKITC-32D-F,27,IO16*%
%TO.N,Net-(U1-IO16)*%
X133346843Y-92534250D03*
%TO.P,ESP32-DEVKITC-32D-F,28,IO17*%
%TO.N,Net-(U1-IO17)*%
X133346843Y-89994250D03*
%TO.P,ESP32-DEVKITC-32D-F,29,IO5*%
%TO.N,Net-(U1-IO5)*%
X133346843Y-87454250D03*
%TO.P,ESP32-DEVKITC-32D-F,30,IO18*%
%TO.N,Net-(U1-IO18)*%
X133346843Y-84914250D03*
%TO.P,ESP32-DEVKITC-32D-F,31,IO19*%
%TO.N,unconnected-(U1-IO19-Pad31)*%
X133346843Y-82374250D03*
%TO.P,ESP32-DEVKITC-32D-F,32,GND2*%
%TO.N,GND*%
X133346843Y-79834250D03*
%TO.P,ESP32-DEVKITC-32D-F,33,IO21*%
%TO.N,Net-(M1-SDA)*%
X133346843Y-77294250D03*
%TO.P,ESP32-DEVKITC-32D-F,34,RXD0*%
%TO.N,unconnected-(U1-RXD0-Pad34)*%
X133346843Y-74754250D03*
%TO.P,ESP32-DEVKITC-32D-F,35,TXD0*%
%TO.N,unconnected-(U1-TXD0-Pad35)*%
X133346843Y-72214250D03*
%TO.P,ESP32-DEVKITC-32D-F,36,IO22*%
%TO.N,Net-(M1-SCL)*%
X133346843Y-69674250D03*
%TO.P,ESP32-DEVKITC-32D-F,37,IO23*%
%TO.N,Net-(U1-IO23)*%
X133346843Y-67134250D03*
%TO.P,ESP32-DEVKITC-32D-F,38,GND3*%
%TO.N,GND*%
X133346843Y-64594250D03*
%TD*%
D20*
%TO.N,Net-(M1-SCL)*%
X136847550Y-85594250D03*
%TO.N,+3.3V*%
X141347550Y-65094250D03*
X144347550Y-78594250D03*
D21*
X147847550Y-109594250D03*
%TO.N,+5V*%
X117782550Y-110594250D03*
D20*
%TO.N,Net-(U1-IO16)*%
X145347550Y-121594250D03*
%TO.N,Net-(U1-IO5)*%
X146222750Y-117094250D03*
%TO.N,Net-(U1-IO23)*%
X153847550Y-64843623D03*
%TO.N,Net-(U1-IO18)*%
X146986450Y-114594250D03*
%TO.N,Net-(U1-IO17)*%
X151847550Y-94094250D03*
%TO.N,Net-(U1-IO4)*%
X143847550Y-111594250D03*
%TO.N,Net-(U2-B01)*%
X155842359Y-124219250D03*
D21*
%TO.N,Net-(U2-A01)*%
X144097550Y-126319250D03*
%TO.N,Net-(U2-A02)*%
X154579150Y-118594250D03*
%TO.N,Net-(U2-B02)*%
X152219950Y-61844250D03*
D20*
X149217450Y-119594250D03*
%TD*%
D22*
%TO.N,Net-(M1-SDA)*%
X148597550Y-77094250D02*
X133546843Y-77094250D01*
X149347550Y-87094250D02*
X150347550Y-86094250D01*
X133546843Y-77094250D02*
X133346843Y-77294250D01*
X150347550Y-86094250D02*
X150347550Y-78844250D01*
X148702550Y-87094250D02*
X149347550Y-87094250D01*
X150347550Y-78844250D02*
X148597550Y-77094250D01*
D23*
%TO.N,GND*%
X140397550Y-84554250D02*
X135677550Y-79834250D01*
D22*
X142347550Y-124754250D02*
X143187550Y-125594250D01*
D23*
X131017550Y-79834250D02*
X113237550Y-97614250D01*
X135677550Y-79834250D02*
X131017550Y-79834250D01*
X135187550Y-124754250D02*
X142347550Y-124754250D01*
X130307550Y-125094250D02*
X134847550Y-125094250D01*
X109347550Y-124094250D02*
X114137550Y-128884250D01*
D22*
X156747550Y-125594250D02*
X157587550Y-124754250D01*
X143187550Y-125594250D02*
X156747550Y-125594250D01*
D23*
X131057550Y-128884250D02*
X134847550Y-125094250D01*
X113237550Y-97614250D02*
X107946843Y-97614250D01*
X114137550Y-128884250D02*
X131057550Y-128884250D01*
X126847550Y-121634250D02*
X130307550Y-125094250D01*
X134847550Y-125094250D02*
X135187550Y-124754250D01*
X148702550Y-84554250D02*
X140397550Y-84554250D01*
D22*
%TO.N,Net-(M1-SCL)*%
X136847550Y-85594250D02*
X136847550Y-87945750D01*
X138536050Y-89634250D02*
X148702550Y-89634250D01*
X136847550Y-87945750D02*
X138536050Y-89634250D01*
D24*
%TO.N,+3.3V*%
X147847550Y-109594250D02*
X142427550Y-109594250D01*
X147767550Y-82014250D02*
X148702550Y-82014250D01*
X111345900Y-64595900D02*
X113847550Y-62094250D01*
X110279200Y-64595900D02*
X111345900Y-64595900D01*
X110279200Y-64595900D02*
X110277550Y-64594250D01*
X113847550Y-62094250D02*
X137847550Y-62094250D01*
X110277550Y-64594250D02*
X107946843Y-64594250D01*
X144347550Y-78594250D02*
X147767550Y-82014250D01*
X140847550Y-65094250D02*
X141347550Y-65094250D01*
X137847550Y-62094250D02*
X140847550Y-65094250D01*
X142427550Y-109594250D02*
X142347550Y-109514250D01*
%TO.N,+5V*%
X108226843Y-110594250D02*
X107946843Y-110314250D01*
X117782550Y-110594250D02*
X108226843Y-110594250D01*
D23*
%TO.N,+6V*%
X126847550Y-119094250D02*
X130227550Y-119094250D01*
X130227550Y-119094250D02*
X142347550Y-106974250D01*
X109347550Y-119094250D02*
X126847550Y-119094250D01*
D22*
%TO.N,Net-(U1-IO16)*%
X145347550Y-121594250D02*
X145847550Y-122094250D01*
X145847550Y-122094250D02*
X157467550Y-122094250D01*
X157467550Y-122094250D02*
X157587550Y-122214250D01*
%TO.N,Net-(U1-IO5)*%
X146222750Y-117094250D02*
X157547550Y-117094250D01*
X157547550Y-117094250D02*
X157587550Y-117134250D01*
%TO.N,unconnected-(U1-CMD-Pad18)*%
X108246550Y-108283250D02*
X107947550Y-107984250D01*
%TO.N,Net-(U1-IO23)*%
X151556923Y-67134250D02*
X133346843Y-67134250D01*
X153847550Y-64843623D02*
X151556923Y-67134250D01*
%TO.N,Net-(U1-IO0)*%
X153457550Y-109514250D02*
X141537550Y-97594250D01*
X133366843Y-97594250D02*
X133346843Y-97614250D01*
X157587550Y-109514250D02*
X153457550Y-109514250D01*
X141537550Y-97594250D02*
X133366843Y-97594250D01*
%TO.N,Net-(U1-IO18)*%
X146986450Y-114594250D02*
X157587550Y-114594250D01*
%TO.N,Net-(U1-IO17)*%
X134961250Y-89994250D02*
X133346843Y-89994250D01*
X151847550Y-94094250D02*
X151748550Y-93995250D01*
X138962250Y-93995250D02*
X134961250Y-89994250D01*
X151748550Y-93995250D02*
X138962250Y-93995250D01*
%TO.N,Net-(U1-IO4)*%
X157127550Y-111594250D02*
X157587550Y-112054250D01*
X143847550Y-111594250D02*
X157127550Y-111594250D01*
D23*
%TO.N,Net-(U2-B01)*%
X155717359Y-124094250D02*
X144227550Y-124094250D01*
X144227550Y-124094250D02*
X142347550Y-122214250D01*
D22*
X155842359Y-124219250D02*
X155717359Y-124094250D01*
D23*
%TO.N,Net-(U2-A01)*%
X144097550Y-126319250D02*
X144097550Y-127094250D01*
X140847550Y-130344250D02*
X140847550Y-130594250D01*
X144097550Y-127094250D02*
X140847550Y-130344250D01*
%TO.N,Net-(U2-A02)*%
X146347550Y-118594250D02*
X144887550Y-117134250D01*
X144887550Y-117134250D02*
X142347550Y-117134250D01*
X154579150Y-118594250D02*
X146347550Y-118594250D01*
%TO.N,Net-(U2-B02)*%
X145847550Y-120094250D02*
X145427550Y-119674250D01*
X150597550Y-61844250D02*
X143847550Y-55094250D01*
X145427550Y-119674250D02*
X142347550Y-119674250D01*
X152219950Y-61844250D02*
X150597550Y-61844250D01*
X148717450Y-120094250D02*
X145847550Y-120094250D01*
X149217450Y-119594250D02*
X148717450Y-120094250D01*
%TD*%
%TA.AperFunction,Conductor*%
%TO.N,Net-(M1-SCL)*%
G36*
X137129029Y-85650196D02*
G01*
X137136457Y-85655195D01*
X137138176Y-85663983D01*
X137137865Y-85665187D01*
X136975133Y-86180310D01*
X136969373Y-86187167D01*
X136963976Y-86188486D01*
X136731124Y-86188486D01*
X136722851Y-86185059D01*
X136719967Y-86180310D01*
X136557234Y-85665187D01*
X136558010Y-85656266D01*
X136564867Y-85650506D01*
X136566050Y-85650200D01*
X136845232Y-85593719D01*
X136849868Y-85593719D01*
X137129029Y-85650196D01*
G37*
%TD.AperFunction*%
%TD*%
%TA.AperFunction,Conductor*%
%TO.N,Net-(U1-IO5)*%
G36*
X157043114Y-116319429D02*
G01*
X157584193Y-117127742D01*
X157585947Y-117136523D01*
X157584193Y-117140758D01*
X157043376Y-117948677D01*
X157035926Y-117953646D01*
X157028229Y-117952536D01*
X155632849Y-117222533D01*
X155627107Y-117215662D01*
X155626573Y-117212166D01*
X155626573Y-116976702D01*
X155630000Y-116968429D01*
X155633324Y-116966100D01*
X157028447Y-116315333D01*
X157037391Y-116314942D01*
X157043114Y-116319429D01*
G37*
%TD.AperFunction*%
%TD*%
%TA.AperFunction,Conductor*%
%TO.N,Net-(U1-IO18)*%
G36*
X147057379Y-114303931D02*
G01*
X147572510Y-114466667D01*
X147579367Y-114472427D01*
X147580686Y-114477824D01*
X147580686Y-114710675D01*
X147577259Y-114718948D01*
X147572510Y-114721832D01*
X147057387Y-114884565D01*
X147048466Y-114883789D01*
X147042706Y-114876932D01*
X147042399Y-114875744D01*
X146985919Y-114596568D01*
X146985919Y-114591930D01*
X147009004Y-114477824D01*
X147042396Y-114312768D01*
X147047395Y-114305342D01*
X147056183Y-114303623D01*
X147057379Y-114303931D01*
G37*
%TD.AperFunction*%
%TD*%
%TA.AperFunction,Conductor*%
%TO.N,Net-(U1-IO0)*%
G36*
X133780872Y-96982237D02*
G01*
X134855249Y-97466144D01*
X134861385Y-97472666D01*
X134862144Y-97476812D01*
X134862144Y-97711934D01*
X134858717Y-97720207D01*
X134855568Y-97722453D01*
X133781023Y-98245857D01*
X133772084Y-98246399D01*
X133766178Y-98241849D01*
X133701655Y-98145510D01*
X133350202Y-97620759D01*
X133348446Y-97611980D01*
X133350201Y-97607741D01*
X133766350Y-96986393D01*
X133773799Y-96981428D01*
X133780872Y-96982237D01*
G37*
%TD.AperFunction*%
%TD*%
%TA.AperFunction,Conductor*%
%TO.N,Net-(U1-IO0)*%
G36*
X157043245Y-108699625D02*
G01*
X157584193Y-109507742D01*
X157585947Y-109516523D01*
X157584193Y-109520758D01*
X157043245Y-110328874D01*
X157035795Y-110333843D01*
X157028333Y-110332852D01*
X155633084Y-109642471D01*
X155627189Y-109635731D01*
X155626573Y-109631985D01*
X155626573Y-109396514D01*
X155630000Y-109388241D01*
X155633082Y-109386028D01*
X157028335Y-108695646D01*
X157037268Y-108695049D01*
X157043245Y-108699625D01*
G37*
%TD.AperFunction*%
%TD*%
%TA.AperFunction,Conductor*%
%TO.N,Net-(U1-IO4)*%
G36*
X157391486Y-111087472D02*
G01*
X157396700Y-111094752D01*
X157396778Y-111095112D01*
X157587597Y-112049485D01*
X157585859Y-112058270D01*
X157585847Y-112058287D01*
X157045007Y-112866241D01*
X157037557Y-112871210D01*
X157028776Y-112869456D01*
X157027503Y-112868470D01*
X155741029Y-111722740D01*
X155737130Y-111714679D01*
X155737110Y-111714003D01*
X155737110Y-111478538D01*
X155740537Y-111470265D01*
X155746155Y-111467143D01*
X157382653Y-111086011D01*
X157391486Y-111087472D01*
G37*
%TD.AperFunction*%
%TD*%
%TA.AperFunction,Conductor*%
%TO.N,+3.3V*%
G36*
X147767095Y-109205805D02*
G01*
X147771742Y-109212999D01*
X147848084Y-109591939D01*
X147848084Y-109596561D01*
X147771742Y-109975500D01*
X147766748Y-109982933D01*
X147758376Y-109984734D01*
X147065040Y-109870860D01*
X147057431Y-109866138D01*
X147055236Y-109859315D01*
X147055236Y-109329184D01*
X147058663Y-109320911D01*
X147065037Y-109317640D01*
X147758376Y-109203765D01*
X147767095Y-109205805D01*
G37*
%TD.AperFunction*%
%TD*%
%TA.AperFunction,Conductor*%
%TO.N,Net-(U1-IO18)*%
G36*
X157043245Y-113779625D02*
G01*
X157584193Y-114587742D01*
X157585947Y-114596523D01*
X157584193Y-114600758D01*
X157043245Y-115408874D01*
X157035795Y-115413843D01*
X157028333Y-115412852D01*
X155633084Y-114722471D01*
X155627189Y-114715731D01*
X155626573Y-114711985D01*
X155626573Y-114476514D01*
X155630000Y-114468241D01*
X155633082Y-114466028D01*
X157028335Y-113775646D01*
X157037268Y-113775049D01*
X157043245Y-113779625D01*
G37*
%TD.AperFunction*%
%TD*%
%TA.AperFunction,Conductor*%
%TO.N,+3.3V*%
G36*
X147950366Y-81263218D02*
G01*
X147953975Y-81265675D01*
X148693662Y-82005362D01*
X148697089Y-82013635D01*
X148693662Y-82021908D01*
X148692356Y-82023035D01*
X147956603Y-82568326D01*
X147947915Y-82570499D01*
X147941417Y-82567252D01*
X147176301Y-81811804D01*
X147172822Y-81803554D01*
X147176195Y-81795261D01*
X147555114Y-81416342D01*
X147559092Y-81413733D01*
X147941412Y-81263063D01*
X147950366Y-81263218D01*
G37*
%TD.AperFunction*%
%TD*%
%TA.AperFunction,Conductor*%
%TO.N,Net-(U1-IO16)*%
G36*
X145602362Y-121438055D02*
G01*
X145602994Y-121439126D01*
X145852171Y-121918441D01*
X145852947Y-121927362D01*
X145850063Y-121932111D01*
X145685411Y-122096763D01*
X145677138Y-122100190D01*
X145671741Y-122098871D01*
X145192426Y-121849694D01*
X145186666Y-121842837D01*
X145187442Y-121833916D01*
X145188066Y-121832857D01*
X145345535Y-121595513D01*
X145348813Y-121592235D01*
X145586146Y-121434773D01*
X145594933Y-121433055D01*
X145602362Y-121438055D01*
G37*
%TD.AperFunction*%
%TD*%
%TA.AperFunction,Conductor*%
%TO.N,+6V*%
G36*
X110248075Y-118097433D02*
G01*
X111678786Y-118691255D01*
X111685114Y-118697591D01*
X111686001Y-118702061D01*
X111686001Y-119486438D01*
X111682574Y-119494711D01*
X111678786Y-119497244D01*
X110248077Y-120091065D01*
X110239122Y-120091072D01*
X110234869Y-120088056D01*
X109353519Y-119102047D01*
X109350560Y-119093595D01*
X109353519Y-119086453D01*
X109701106Y-118697591D01*
X110234869Y-118100442D01*
X110242937Y-118096558D01*
X110248075Y-118097433D01*
G37*
%TD.AperFunction*%
%TD*%
%TA.AperFunction,Conductor*%
%TO.N,Net-(U1-IO5)*%
G36*
X146293679Y-116803931D02*
G01*
X146808810Y-116966667D01*
X146815667Y-116972427D01*
X146816986Y-116977824D01*
X146816986Y-117210675D01*
X146813559Y-117218948D01*
X146808810Y-117221832D01*
X146293687Y-117384565D01*
X146284766Y-117383789D01*
X146279006Y-117376932D01*
X146278699Y-117375744D01*
X146222219Y-117096568D01*
X146222219Y-117091930D01*
X146245304Y-116977824D01*
X146278696Y-116812768D01*
X146283695Y-116805342D01*
X146292483Y-116803623D01*
X146293679Y-116803931D01*
G37*
%TD.AperFunction*%
%TD*%
%TA.AperFunction,Conductor*%
%TO.N,Net-(U2-B02)*%
G36*
X145103502Y-55608841D02*
G01*
X145107685Y-55611951D01*
X146134640Y-56814455D01*
X146137407Y-56822971D01*
X146134016Y-56830326D01*
X145579409Y-57384933D01*
X145571136Y-57388360D01*
X145571126Y-57388360D01*
X144202400Y-57387244D01*
X144194130Y-57383810D01*
X144191110Y-57378573D01*
X143849557Y-56103674D01*
X143850726Y-56094798D01*
X143856619Y-56089743D01*
X145094551Y-55608644D01*
X145103502Y-55608841D01*
G37*
%TD.AperFunction*%
%TD*%
%TA.AperFunction,Conductor*%
%TO.N,+6V*%
G36*
X141534158Y-106430838D02*
G01*
X141535312Y-106431514D01*
X142165887Y-106851948D01*
X142346310Y-106972245D01*
X142349554Y-106975489D01*
X142890281Y-107786480D01*
X142892019Y-107795265D01*
X142887037Y-107802706D01*
X142885876Y-107803386D01*
X141251353Y-108639833D01*
X141242427Y-108640552D01*
X141237750Y-108637691D01*
X140684108Y-108084049D01*
X140680681Y-108075776D01*
X140681965Y-108070449D01*
X141518414Y-106435921D01*
X141525232Y-106430119D01*
X141534158Y-106430838D01*
G37*
%TD.AperFunction*%
%TD*%
%TA.AperFunction,Conductor*%
%TO.N,Net-(U2-A02)*%
G36*
X142553177Y-116167306D02*
G01*
X144300424Y-116731632D01*
X144307242Y-116737436D01*
X144308527Y-116742766D01*
X144308527Y-117525733D01*
X144305100Y-117534006D01*
X144300423Y-117536867D01*
X142553183Y-118101191D01*
X142544257Y-118100472D01*
X142538453Y-118093653D01*
X142538116Y-118092360D01*
X142347008Y-117136540D01*
X142347008Y-117131959D01*
X142538115Y-116176146D01*
X142543096Y-116168707D01*
X142551881Y-116166969D01*
X142553177Y-116167306D01*
G37*
%TD.AperFunction*%
%TD*%
%TA.AperFunction,Conductor*%
%TO.N,+5V*%
G36*
X117702095Y-110205805D02*
G01*
X117706742Y-110212999D01*
X117783084Y-110591939D01*
X117783084Y-110596561D01*
X117706742Y-110975500D01*
X117701748Y-110982933D01*
X117693376Y-110984734D01*
X117000040Y-110870860D01*
X116992431Y-110866138D01*
X116990236Y-110859315D01*
X116990236Y-110329184D01*
X116993663Y-110320911D01*
X117000037Y-110317640D01*
X117693376Y-110203765D01*
X117702095Y-110205805D01*
G37*
%TD.AperFunction*%
%TD*%
%TA.AperFunction,Conductor*%
%TO.N,Net-(U1-IO23)*%
G36*
X153607883Y-64683515D02*
G01*
X153608950Y-64684144D01*
X153834969Y-64834100D01*
X153846284Y-64841607D01*
X153849565Y-64844888D01*
X154007025Y-65082218D01*
X154008744Y-65091006D01*
X154003744Y-65098435D01*
X154002673Y-65099067D01*
X153523358Y-65348244D01*
X153514437Y-65349020D01*
X153509688Y-65346136D01*
X153345036Y-65181484D01*
X153341609Y-65173211D01*
X153342927Y-65167817D01*
X153592107Y-64688497D01*
X153598962Y-64682739D01*
X153607883Y-64683515D01*
G37*
%TD.AperFunction*%
%TD*%
%TA.AperFunction,Conductor*%
%TO.N,+6V*%
G36*
X125923861Y-118170554D02*
G01*
X126840263Y-119085972D01*
X126843694Y-119094244D01*
X126840272Y-119102519D01*
X126840263Y-119102528D01*
X125923861Y-120017945D01*
X125915586Y-120021367D01*
X125909799Y-120019832D01*
X124993457Y-119497616D01*
X124987966Y-119490543D01*
X124987550Y-119487451D01*
X124987550Y-118701048D01*
X124990977Y-118692775D01*
X124993453Y-118690885D01*
X125909799Y-118168666D01*
X125918684Y-118167548D01*
X125923861Y-118170554D01*
G37*
%TD.AperFunction*%
%TD*%
%TA.AperFunction,Conductor*%
%TO.N,Net-(U1-IO16)*%
G36*
X157390231Y-121248693D02*
G01*
X157396544Y-121255044D01*
X157397194Y-121257195D01*
X157587597Y-122209485D01*
X157585859Y-122218270D01*
X157585847Y-122218287D01*
X157043637Y-123028289D01*
X157036187Y-123033258D01*
X157028045Y-123031902D01*
X155632404Y-122222631D01*
X155626966Y-122215517D01*
X155626573Y-122212510D01*
X155626573Y-121977093D01*
X155630000Y-121968820D01*
X155633825Y-121966271D01*
X157381278Y-121248666D01*
X157390231Y-121248693D01*
G37*
%TD.AperFunction*%
%TD*%
%TA.AperFunction,Conductor*%
%TO.N,Net-(M1-SDA)*%
G36*
X133508513Y-76547878D02*
G01*
X134832948Y-76966666D01*
X134839802Y-76972427D01*
X134841120Y-76977821D01*
X134841120Y-77212980D01*
X134837693Y-77221253D01*
X134835899Y-77222722D01*
X133781564Y-77923866D01*
X133772777Y-77925594D01*
X133765365Y-77920635D01*
X133348547Y-77298288D01*
X133346791Y-77289511D01*
X133493525Y-76556738D01*
X133498509Y-76549300D01*
X133507294Y-76547565D01*
X133508513Y-76547878D01*
G37*
%TD.AperFunction*%
%TD*%
%TA.AperFunction,Conductor*%
%TO.N,Net-(U2-B01)*%
G36*
X143176006Y-121674762D02*
G01*
X143176686Y-121675923D01*
X144013133Y-123310446D01*
X144013852Y-123319372D01*
X144010991Y-123324049D01*
X143457349Y-123877691D01*
X143449076Y-123881118D01*
X143443746Y-123879833D01*
X141809223Y-123043386D01*
X141803419Y-123036567D01*
X141804138Y-123027641D01*
X141804809Y-123026495D01*
X142345546Y-122215487D01*
X142348787Y-122212246D01*
X143159782Y-121671517D01*
X143168565Y-121669780D01*
X143176006Y-121674762D01*
G37*
%TD.AperFunction*%
%TD*%
%TA.AperFunction,Conductor*%
%TO.N,Net-(M1-SCL)*%
G36*
X147956108Y-88887798D02*
G01*
X148695260Y-89625971D01*
X148698692Y-89634242D01*
X148695271Y-89642518D01*
X148695260Y-89642529D01*
X147956108Y-90380701D01*
X147947832Y-90384122D01*
X147940346Y-90381406D01*
X147598949Y-90096607D01*
X147198755Y-89762757D01*
X147194597Y-89754826D01*
X147194550Y-89753773D01*
X147194550Y-89514726D01*
X147197977Y-89506453D01*
X147198755Y-89505742D01*
X147940348Y-88887091D01*
X147948893Y-88884424D01*
X147956108Y-88887798D01*
G37*
%TD.AperFunction*%
%TD*%
%TA.AperFunction,Conductor*%
%TO.N,Net-(U2-B02)*%
G36*
X142553177Y-118707306D02*
G01*
X144300424Y-119271632D01*
X144307242Y-119277436D01*
X144308527Y-119282766D01*
X144308527Y-120065733D01*
X144305100Y-120074006D01*
X144300423Y-120076867D01*
X142553183Y-120641191D01*
X142544257Y-120640472D01*
X142538453Y-120633653D01*
X142538116Y-120632360D01*
X142347008Y-119676540D01*
X142347008Y-119671959D01*
X142538115Y-118716146D01*
X142543096Y-118708707D01*
X142551881Y-118706969D01*
X142553177Y-118707306D01*
G37*
%TD.AperFunction*%
%TD*%
%TA.AperFunction,Conductor*%
%TO.N,Net-(M1-SDA)*%
G36*
X149461739Y-86340523D02*
G01*
X149896838Y-86363467D01*
X149904494Y-86366878D01*
X150071592Y-86533976D01*
X150075019Y-86542249D01*
X150073311Y-86548335D01*
X149462673Y-87550893D01*
X149455443Y-87556176D01*
X149446595Y-87554799D01*
X149446534Y-87554762D01*
X148714427Y-87102726D01*
X148709188Y-87095464D01*
X148710619Y-87086624D01*
X148712297Y-87084502D01*
X149452865Y-86343934D01*
X149461137Y-86340508D01*
X149461739Y-86340523D01*
G37*
%TD.AperFunction*%
%TD*%
%TA.AperFunction,Conductor*%
%TO.N,+5V*%
G36*
X108381449Y-109684112D02*
G01*
X109402440Y-110315820D01*
X109407671Y-110323087D01*
X109407983Y-110325769D01*
X109407983Y-110859163D01*
X109404556Y-110867436D01*
X109398006Y-110870735D01*
X108107096Y-111062912D01*
X108098408Y-111060741D01*
X108093901Y-111053638D01*
X107946797Y-110319016D01*
X107948531Y-110310235D01*
X108365575Y-109687550D01*
X108373024Y-109682585D01*
X108381449Y-109684112D01*
G37*
%TD.AperFunction*%
%TD*%
%TA.AperFunction,Conductor*%
%TO.N,Net-(U1-IO17)*%
G36*
X151786817Y-93803770D02*
G01*
X151791196Y-93810758D01*
X151847580Y-94089460D01*
X151845861Y-94098248D01*
X151845822Y-94098307D01*
X151686821Y-94334850D01*
X151679362Y-94339804D01*
X151671521Y-94338601D01*
X151276189Y-94123573D01*
X151270558Y-94116610D01*
X151270079Y-94113295D01*
X151270079Y-93880472D01*
X151273506Y-93872199D01*
X151280207Y-93868879D01*
X151778159Y-93801484D01*
X151786817Y-93803770D01*
G37*
%TD.AperFunction*%
%TD*%
%TA.AperFunction,Conductor*%
%TO.N,+6V*%
G36*
X127785300Y-118168667D02*
G01*
X128097460Y-118346564D01*
X128701643Y-118690884D01*
X128707134Y-118697956D01*
X128707550Y-118701048D01*
X128707550Y-119487451D01*
X128704123Y-119495724D01*
X128701643Y-119497616D01*
X127785300Y-120019832D01*
X127776415Y-120020951D01*
X127771238Y-120017945D01*
X126854835Y-119102526D01*
X126851405Y-119094256D01*
X126854826Y-119085982D01*
X127771240Y-118170553D01*
X127779513Y-118167132D01*
X127785300Y-118168667D01*
G37*
%TD.AperFunction*%
%TD*%
%TA.AperFunction,Conductor*%
%TO.N,Net-(U1-IO23)*%
G36*
X133780950Y-66502440D02*
G01*
X134168937Y-66684309D01*
X134855410Y-67006093D01*
X134861446Y-67012707D01*
X134862144Y-67016687D01*
X134862144Y-67251812D01*
X134858717Y-67260085D01*
X134855410Y-67262406D01*
X133780950Y-67766059D01*
X133772004Y-67766467D01*
X133766263Y-67761976D01*
X133726569Y-67702709D01*
X133350202Y-67140759D01*
X133348446Y-67131980D01*
X133350201Y-67127741D01*
X133766264Y-66506522D01*
X133773714Y-66501556D01*
X133780950Y-66502440D01*
G37*
%TD.AperFunction*%
%TD*%
%TA.AperFunction,Conductor*%
%TO.N,Net-(U2-A01)*%
G36*
X142099153Y-128539000D02*
G01*
X142653768Y-129093615D01*
X142657195Y-129101888D01*
X142656635Y-129105465D01*
X142188560Y-130563068D01*
X142182767Y-130569897D01*
X142177629Y-130571189D01*
X140857355Y-130594769D01*
X140849022Y-130591491D01*
X140845537Y-130584524D01*
X140843706Y-130569897D01*
X140680242Y-129263935D01*
X140682614Y-129255302D01*
X140686523Y-129252067D01*
X142085556Y-128536854D01*
X142094481Y-128536141D01*
X142099153Y-128539000D01*
G37*
%TD.AperFunction*%
%TD*%
%TA.AperFunction,Conductor*%
%TO.N,Net-(U1-IO4)*%
G36*
X143918479Y-111303931D02*
G01*
X144433610Y-111466667D01*
X144440467Y-111472427D01*
X144441786Y-111477824D01*
X144441786Y-111710675D01*
X144438359Y-111718948D01*
X144433610Y-111721832D01*
X143918487Y-111884565D01*
X143909566Y-111883789D01*
X143903806Y-111876932D01*
X143903499Y-111875744D01*
X143847019Y-111596568D01*
X143847019Y-111591930D01*
X143870104Y-111477824D01*
X143903496Y-111312768D01*
X143908495Y-111305342D01*
X143917283Y-111303623D01*
X143918479Y-111303931D01*
G37*
%TD.AperFunction*%
%TD*%
%TA.AperFunction,Conductor*%
%TO.N,+3.3V*%
G36*
X142906565Y-108695102D02*
G01*
X143195969Y-108823943D01*
X144301587Y-109316160D01*
X144307750Y-109322655D01*
X144308527Y-109326848D01*
X144308527Y-109860936D01*
X144305100Y-109869209D01*
X144300677Y-109871985D01*
X142553377Y-110480805D01*
X142544437Y-110480291D01*
X142538478Y-110473606D01*
X142538054Y-110472050D01*
X142415867Y-109860936D01*
X142347502Y-109519012D01*
X142349239Y-109510232D01*
X142892084Y-108699281D01*
X142899533Y-108694314D01*
X142906565Y-108695102D01*
G37*
%TD.AperFunction*%
%TD*%
%TA.AperFunction,Conductor*%
%TO.N,Net-(U1-IO17)*%
G36*
X133780950Y-89362440D02*
G01*
X134168937Y-89544309D01*
X134855410Y-89866093D01*
X134861446Y-89872707D01*
X134862144Y-89876687D01*
X134862144Y-90111812D01*
X134858717Y-90120085D01*
X134855410Y-90122406D01*
X133780950Y-90626059D01*
X133772004Y-90626467D01*
X133766263Y-90621976D01*
X133726569Y-90562709D01*
X133350202Y-90000759D01*
X133348446Y-89991980D01*
X133350201Y-89987741D01*
X133766264Y-89366522D01*
X133773714Y-89361556D01*
X133780950Y-89362440D01*
G37*
%TD.AperFunction*%
%TD*%
%TA.AperFunction,Conductor*%
%TO.N,+3.3V*%
G36*
X108719764Y-63834323D02*
G01*
X108722221Y-63835897D01*
X109471454Y-64315798D01*
X109476572Y-64323146D01*
X109476843Y-64325650D01*
X109476843Y-64862849D01*
X109473416Y-64871122D01*
X109471454Y-64872701D01*
X108719765Y-65354175D01*
X108710950Y-65355752D01*
X108705186Y-65352602D01*
X107954131Y-64602527D01*
X107950700Y-64594258D01*
X107954120Y-64585983D01*
X108705188Y-63835896D01*
X108713462Y-63832476D01*
X108719764Y-63834323D01*
G37*
%TD.AperFunction*%
%TD*%
%TA.AperFunction,Conductor*%
%TO.N,GND*%
G36*
X169290089Y-51614435D02*
G01*
X169335844Y-51667239D01*
X169347050Y-51718750D01*
X169347050Y-135469750D01*
X169327365Y-135536789D01*
X169274561Y-135582544D01*
X169223050Y-135593750D01*
X99972050Y-135593750D01*
X99905011Y-135574065D01*
X99859256Y-135521261D01*
X99848050Y-135469750D01*
X99848050Y-132987963D01*
X100997050Y-132987963D01*
X100997050Y-133200536D01*
X101030303Y-133410489D01*
X101095994Y-133612664D01*
X101192501Y-133802070D01*
X101317440Y-133974036D01*
X101467763Y-134124359D01*
X101639729Y-134249298D01*
X101639731Y-134249299D01*
X101639734Y-134249301D01*
X101829138Y-134345807D01*
X102031307Y-134411496D01*
X102241263Y-134444750D01*
X102241264Y-134444750D01*
X102453836Y-134444750D01*
X102453837Y-134444750D01*
X102663793Y-134411496D01*
X102865962Y-134345807D01*
X103055366Y-134249301D01*
X103077339Y-134233336D01*
X103227336Y-134124359D01*
X103227338Y-134124356D01*
X103227342Y-134124354D01*
X103377654Y-133974042D01*
X103377656Y-133974038D01*
X103377659Y-133974036D01*
X103502598Y-133802070D01*
X103502597Y-133802070D01*
X103502601Y-133802066D01*
X103599107Y-133612662D01*
X103664796Y-133410493D01*
X103698050Y-133200537D01*
X103698050Y-132987963D01*
X165497050Y-132987963D01*
X165497050Y-133200536D01*
X165530303Y-133410489D01*
X165595994Y-133612664D01*
X165692501Y-133802070D01*
X165817440Y-133974036D01*
X165967763Y-134124359D01*
X166139729Y-134249298D01*
X166139731Y-134249299D01*
X166139734Y-134249301D01*
X166329138Y-134345807D01*
X166531307Y-134411496D01*
X166741263Y-134444750D01*
X166741264Y-134444750D01*
X166953836Y-134444750D01*
X166953837Y-134444750D01*
X167163793Y-134411496D01*
X167365962Y-134345807D01*
X167555366Y-134249301D01*
X167577339Y-134233336D01*
X167727336Y-134124359D01*
X167727338Y-134124356D01*
X167727342Y-134124354D01*
X167877654Y-133974042D01*
X167877656Y-133974038D01*
X167877659Y-133974036D01*
X168002598Y-133802070D01*
X168002597Y-133802070D01*
X168002601Y-133802066D01*
X168099107Y-133612662D01*
X168164796Y-133410493D01*
X168198050Y-133200537D01*
X168198050Y-132987963D01*
X168164796Y-132778007D01*
X168099107Y-132575838D01*
X168002601Y-132386434D01*
X168002599Y-132386431D01*
X168002598Y-132386429D01*
X167877659Y-132214463D01*
X167727336Y-132064140D01*
X167555370Y-131939201D01*
X167365964Y-131842694D01*
X167365963Y-131842693D01*
X167365962Y-131842693D01*
X167163793Y-131777004D01*
X167163791Y-131777003D01*
X167163790Y-131777003D01*
X167002507Y-131751458D01*
X166953837Y-131743750D01*
X166741263Y-131743750D01*
X166692592Y-131751458D01*
X166531310Y-131777003D01*
X166329135Y-131842694D01*
X166139729Y-131939201D01*
X165967763Y-132064140D01*
X165817440Y-132214463D01*
X165692501Y-132386429D01*
X165595994Y-132575835D01*
X165530303Y-132778010D01*
X165497050Y-132987963D01*
X103698050Y-132987963D01*
X103664796Y-132778007D01*
X103599107Y-132575838D01*
X103502601Y-132386434D01*
X103502599Y-132386431D01*
X103502598Y-132386429D01*
X103377659Y-132214463D01*
X103227336Y-132064140D01*
X103055370Y-131939201D01*
X102865964Y-131842694D01*
X102865963Y-131842693D01*
X102865962Y-131842693D01*
X102663793Y-131777004D01*
X102663791Y-131777003D01*
X102663790Y-131777003D01*
X102502507Y-131751458D01*
X102453837Y-131743750D01*
X102241263Y-131743750D01*
X102192592Y-131751458D01*
X102031310Y-131777003D01*
X101829135Y-131842694D01*
X101639729Y-131939201D01*
X101467763Y-132064140D01*
X101317440Y-132214463D01*
X101192501Y-132386429D01*
X101095994Y-132575835D01*
X101030303Y-132778010D01*
X100997050Y-132987963D01*
X99848050Y-132987963D01*
X99848050Y-130472961D01*
X138997050Y-130472961D01*
X138997050Y-130715538D01*
X139028711Y-130956035D01*
X139091497Y-131190354D01*
X139184323Y-131414455D01*
X139184326Y-131414462D01*
X139305614Y-131624539D01*
X139305616Y-131624542D01*
X139305617Y-131624543D01*
X139453283Y-131816986D01*
X139453289Y-131816993D01*
X139624806Y-131988510D01*
X139624812Y-131988515D01*
X139817261Y-132136186D01*
X140027338Y-132257474D01*
X140251450Y-132350304D01*
X140485761Y-132413088D01*
X140666136Y-132436834D01*
X140726261Y-132444750D01*
X140726262Y-132444750D01*
X140968839Y-132444750D01*
X141016938Y-132438417D01*
X141209339Y-132413088D01*
X141443650Y-132350304D01*
X141667762Y-132257474D01*
X141877839Y-132136186D01*
X142070288Y-131988515D01*
X142241815Y-131816988D01*
X142389486Y-131624539D01*
X142510774Y-131414462D01*
X142603604Y-131190350D01*
X142666388Y-130956039D01*
X142698050Y-130715538D01*
X142698050Y-130649238D01*
X142698371Y-130647183D01*
X142698089Y-130646123D01*
X142703988Y-130611325D01*
X142748420Y-130472962D01*
X142748420Y-130472961D01*
X143997050Y-130472961D01*
X143997050Y-130715538D01*
X144028711Y-130956035D01*
X144091497Y-131190354D01*
X144184323Y-131414455D01*
X144184326Y-131414462D01*
X144305614Y-131624539D01*
X144305616Y-131624542D01*
X144305617Y-131624543D01*
X144453283Y-131816986D01*
X144453289Y-131816993D01*
X144624806Y-131988510D01*
X144624812Y-131988515D01*
X144817261Y-132136186D01*
X145027338Y-132257474D01*
X145251450Y-132350304D01*
X145485761Y-132413088D01*
X145666136Y-132436834D01*
X145726261Y-132444750D01*
X145726262Y-132444750D01*
X145968839Y-132444750D01*
X146016938Y-132438417D01*
X146209339Y-132413088D01*
X146443650Y-132350304D01*
X146667762Y-132257474D01*
X146877839Y-132136186D01*
X147070288Y-131988515D01*
X147241815Y-131816988D01*
X147389486Y-131624539D01*
X147510774Y-131414462D01*
X147603604Y-131190350D01*
X147666388Y-130956039D01*
X147698050Y-130715538D01*
X147698050Y-130472962D01*
X147666388Y-130232461D01*
X147603604Y-129998150D01*
X147510774Y-129774038D01*
X147389486Y-129563961D01*
X147241815Y-129371512D01*
X147241810Y-129371506D01*
X147070293Y-129199989D01*
X147070286Y-129199983D01*
X146877843Y-129052317D01*
X146877842Y-129052316D01*
X146877839Y-129052314D01*
X146667762Y-128931026D01*
X146667755Y-128931023D01*
X146443654Y-128838197D01*
X146209335Y-128775411D01*
X145968839Y-128743750D01*
X145968838Y-128743750D01*
X145726262Y-128743750D01*
X145726261Y-128743750D01*
X145485764Y-128775411D01*
X145251445Y-128838197D01*
X145027344Y-128931023D01*
X145027335Y-128931027D01*
X144817256Y-129052317D01*
X144624813Y-129199983D01*
X144624806Y-129199989D01*
X144453289Y-129371506D01*
X144453283Y-129371513D01*
X144305617Y-129563956D01*
X144184327Y-129774035D01*
X144184323Y-129774044D01*
X144091497Y-129998145D01*
X144028711Y-130232464D01*
X143997050Y-130472961D01*
X142748420Y-130472961D01*
X143096899Y-129387784D01*
X143127277Y-129338021D01*
X144797014Y-127668286D01*
X144836486Y-127609209D01*
X144895563Y-127520797D01*
X144929503Y-127438856D01*
X144963445Y-127356916D01*
X144998050Y-127182942D01*
X144998050Y-127005558D01*
X144998050Y-126230559D01*
X144998050Y-126230556D01*
X144998049Y-126230554D01*
X144963446Y-126056591D01*
X144963443Y-126056582D01*
X144895566Y-125892709D01*
X144895559Y-125892696D01*
X144797014Y-125745215D01*
X144797011Y-125745211D01*
X144671588Y-125619788D01*
X144671584Y-125619785D01*
X144524103Y-125521240D01*
X144524090Y-125521233D01*
X144360217Y-125453356D01*
X144360208Y-125453353D01*
X144186244Y-125418750D01*
X144186241Y-125418750D01*
X144008859Y-125418750D01*
X144008856Y-125418750D01*
X143834891Y-125453353D01*
X143834882Y-125453356D01*
X143671009Y-125521233D01*
X143670996Y-125521240D01*
X143523515Y-125619785D01*
X143523511Y-125619788D01*
X143398088Y-125745211D01*
X143398085Y-125745215D01*
X143299540Y-125892696D01*
X143299533Y-125892709D01*
X143231656Y-126056582D01*
X143231653Y-126056591D01*
X143197050Y-126230554D01*
X143197050Y-126669887D01*
X143177365Y-126736926D01*
X143160731Y-126757568D01*
X141820351Y-128097947D01*
X141789113Y-128120675D01*
X140535272Y-128761663D01*
X140495021Y-128774192D01*
X140485775Y-128775409D01*
X140485761Y-128775412D01*
X140251445Y-128838197D01*
X140027344Y-128931023D01*
X140027335Y-128931027D01*
X139817256Y-129052317D01*
X139624813Y-129199983D01*
X139624806Y-129199989D01*
X139453289Y-129371506D01*
X139453283Y-129371513D01*
X139305617Y-129563956D01*
X139184327Y-129774035D01*
X139184323Y-129774044D01*
X139091497Y-129998145D01*
X139028711Y-130232464D01*
X138997050Y-130472961D01*
X99848050Y-130472961D01*
X99848050Y-124061667D01*
X125417050Y-124061667D01*
X125417050Y-124286832D01*
X125452273Y-124509226D01*
X125521855Y-124723375D01*
X125607907Y-124892259D01*
X125624077Y-124923995D01*
X125756426Y-125106158D01*
X125915642Y-125265374D01*
X126097805Y-125397723D01*
X126139073Y-125418750D01*
X126298424Y-125499944D01*
X126298426Y-125499944D01*
X126298429Y-125499946D01*
X126413216Y-125537242D01*
X126512573Y-125569526D01*
X126623770Y-125587138D01*
X126734967Y-125604750D01*
X126734968Y-125604750D01*
X126960132Y-125604750D01*
X126960133Y-125604750D01*
X127182526Y-125569526D01*
X127396671Y-125499946D01*
X127597295Y-125397723D01*
X127779458Y-125265374D01*
X127938674Y-125106158D01*
X128071023Y-124923995D01*
X128173246Y-124723371D01*
X128242826Y-124509226D01*
X128278050Y-124286833D01*
X128278050Y-124061667D01*
X128242826Y-123839273D01*
X128199116Y-123704750D01*
X128173246Y-123625129D01*
X128173244Y-123625126D01*
X128173244Y-123625124D01*
X128097735Y-123476930D01*
X128071023Y-123424505D01*
X127938674Y-123242342D01*
X127779458Y-123083126D01*
X127597295Y-122950777D01*
X127396675Y-122848555D01*
X127182526Y-122778973D01*
X126990539Y-122748566D01*
X126960133Y-122743750D01*
X126734967Y-122743750D01*
X126708217Y-122747986D01*
X126512573Y-122778973D01*
X126298424Y-122848555D01*
X126097804Y-122950777D01*
X125915639Y-123083128D01*
X125756428Y-123242339D01*
X125624077Y-123424504D01*
X125521855Y-123625124D01*
X125452273Y-123839273D01*
X125417050Y-124061667D01*
X99848050Y-124061667D01*
X99848050Y-118972962D01*
X107497050Y-118972962D01*
X107497050Y-119215538D01*
X107528712Y-119456039D01*
X107539084Y-119494749D01*
X107591497Y-119690354D01*
X107684323Y-119914455D01*
X107684327Y-119914464D01*
X107706524Y-119952911D01*
X107805614Y-120124539D01*
X107805616Y-120124542D01*
X107805617Y-120124543D01*
X107953283Y-120316986D01*
X107953289Y-120316993D01*
X108124806Y-120488510D01*
X108124813Y-120488516D01*
X108152774Y-120509971D01*
X108317261Y-120636186D01*
X108527338Y-120757474D01*
X108751450Y-120850304D01*
X108985761Y-120913088D01*
X109163611Y-120936502D01*
X109226261Y-120944750D01*
X109226262Y-120944750D01*
X109468839Y-120944750D01*
X109531489Y-120936502D01*
X109709339Y-120913088D01*
X109943650Y-120850304D01*
X110167762Y-120757474D01*
X110377839Y-120636186D01*
X110511593Y-120533551D01*
X110539539Y-120517403D01*
X111775960Y-120004222D01*
X111823495Y-119994750D01*
X124811997Y-119994750D01*
X124873393Y-120011017D01*
X125657800Y-120458045D01*
X125657803Y-120458046D01*
X125659510Y-120459019D01*
X125667568Y-120462318D01*
X125675219Y-120468046D01*
X125746329Y-120494568D01*
X125780197Y-120508436D01*
X125785814Y-120509926D01*
X125797359Y-120513601D01*
X125806384Y-120516967D01*
X125810067Y-120518341D01*
X125869677Y-120524750D01*
X127825422Y-120524749D01*
X127885033Y-120518341D01*
X128019881Y-120468046D01*
X128019883Y-120468044D01*
X128027670Y-120463793D01*
X128027725Y-120463894D01*
X128031846Y-120461398D01*
X128031741Y-120461213D01*
X128821707Y-120011017D01*
X128883103Y-119994750D01*
X130316243Y-119994750D01*
X130316244Y-119994749D01*
X130490216Y-119960145D01*
X130572156Y-119926203D01*
X130654097Y-119892263D01*
X130750651Y-119827747D01*
X130801586Y-119793714D01*
X140711008Y-109884290D01*
X140772329Y-109850807D01*
X140842021Y-109855791D01*
X140897954Y-109897663D01*
X140916618Y-109933655D01*
X140966247Y-110086400D01*
X141072762Y-110295445D01*
X141210654Y-110485239D01*
X141210658Y-110485244D01*
X141376555Y-110651141D01*
X141376560Y-110651145D01*
X141500748Y-110741372D01*
X141566358Y-110789040D01*
X141775391Y-110895548D01*
X141775399Y-110895552D01*
X141886960Y-110931800D01*
X141998524Y-110968049D01*
X142230245Y-111004750D01*
X142230246Y-111004750D01*
X142464854Y-111004750D01*
X142464855Y-111004750D01*
X142696576Y-110968049D01*
X142919703Y-110895551D01*
X142956134Y-110876988D01*
X142971627Y-110870378D01*
X143177991Y-110798473D01*
X143247772Y-110795004D01*
X143308354Y-110829813D01*
X143340499Y-110891848D01*
X143334002Y-110961415D01*
X143306471Y-111003250D01*
X143225760Y-111083961D01*
X143138159Y-111215064D01*
X143138152Y-111215077D01*
X143077814Y-111360748D01*
X143077811Y-111360760D01*
X143047050Y-111515403D01*
X143047050Y-111673096D01*
X143077811Y-111827739D01*
X143077814Y-111827751D01*
X143138152Y-111973422D01*
X143138159Y-111973435D01*
X143225760Y-112104538D01*
X143225763Y-112104542D01*
X143337257Y-112216036D01*
X143337261Y-112216039D01*
X143468364Y-112303640D01*
X143468377Y-112303647D01*
X143612399Y-112363302D01*
X143614053Y-112363987D01*
X143768703Y-112394749D01*
X143768706Y-112394750D01*
X143768708Y-112394750D01*
X143926393Y-112394750D01*
X143969139Y-112386246D01*
X144054673Y-112369233D01*
X144070762Y-112366584D01*
X144075469Y-112365095D01*
X144077413Y-112364709D01*
X144081047Y-112363987D01*
X144082712Y-112363296D01*
X144092803Y-112359620D01*
X144517325Y-112225510D01*
X144554678Y-112219750D01*
X155491817Y-112219750D01*
X155558856Y-112239435D01*
X155574286Y-112251150D01*
X155735525Y-112394749D01*
X156443474Y-113025246D01*
X156506475Y-113081354D01*
X156509364Y-113084009D01*
X156510520Y-113085106D01*
X156616554Y-113191140D01*
X156640862Y-113208800D01*
X156646758Y-113214396D01*
X156660381Y-113237865D01*
X156676951Y-113259352D01*
X156677662Y-113267634D01*
X156681835Y-113274822D01*
X156680608Y-113301926D01*
X156682931Y-113328965D01*
X156679051Y-113336316D01*
X156678676Y-113344621D01*
X156662986Y-113366764D01*
X156650325Y-113390760D01*
X156641352Y-113397296D01*
X156638282Y-113401630D01*
X156631838Y-113404227D01*
X156616392Y-113415480D01*
X155524235Y-113955889D01*
X155469243Y-113968750D01*
X147693583Y-113968750D01*
X147656229Y-113962990D01*
X147231714Y-113828880D01*
X147230671Y-113828550D01*
X147226563Y-113827253D01*
X147219947Y-113824513D01*
X147214388Y-113823407D01*
X147209655Y-113821912D01*
X147209486Y-113821863D01*
X147209443Y-113821850D01*
X147183448Y-113814403D01*
X147182251Y-113814095D01*
X147100412Y-113799858D01*
X147087801Y-113798227D01*
X147086075Y-113797883D01*
X147065292Y-113793750D01*
X146907608Y-113793750D01*
X146907605Y-113793750D01*
X146752960Y-113824511D01*
X146752948Y-113824514D01*
X146607277Y-113884852D01*
X146607264Y-113884859D01*
X146476161Y-113972460D01*
X146476157Y-113972463D01*
X146364663Y-114083957D01*
X146364660Y-114083961D01*
X146277059Y-114215064D01*
X146277052Y-114215077D01*
X146216714Y-114360748D01*
X146216711Y-114360760D01*
X146185950Y-114515403D01*
X146185950Y-114673096D01*
X146216711Y-114827739D01*
X146216714Y-114827751D01*
X146277052Y-114973422D01*
X146277059Y-114973435D01*
X146364660Y-115104538D01*
X146364663Y-115104542D01*
X146476157Y-115216036D01*
X146476161Y-115216039D01*
X146607264Y-115303640D01*
X146607277Y-115303647D01*
X146751299Y-115363302D01*
X146752953Y-115363987D01*
X146907603Y-115394749D01*
X146907606Y-115394750D01*
X146907608Y-115394750D01*
X147065293Y-115394750D01*
X147108039Y-115386246D01*
X147193573Y-115369233D01*
X147209662Y-115366584D01*
X147214369Y-115365095D01*
X147216313Y-115364709D01*
X147219947Y-115363987D01*
X147221612Y-115363296D01*
X147231703Y-115359620D01*
X147656225Y-115225510D01*
X147693578Y-115219750D01*
X155469247Y-115219750D01*
X155524238Y-115232610D01*
X156531760Y-115731141D01*
X156568973Y-115749554D01*
X156620330Y-115796928D01*
X156637921Y-115864547D01*
X156616162Y-115930942D01*
X156566399Y-115973069D01*
X155576566Y-116434786D01*
X155528673Y-116457126D01*
X155476254Y-116468750D01*
X146929883Y-116468750D01*
X146892529Y-116462990D01*
X146468014Y-116328880D01*
X146466971Y-116328550D01*
X146462863Y-116327253D01*
X146456247Y-116324513D01*
X146450688Y-116323407D01*
X146445955Y-116321912D01*
X146445786Y-116321863D01*
X146445743Y-116321850D01*
X146419748Y-116314403D01*
X146418551Y-116314095D01*
X146336712Y-116299858D01*
X146324101Y-116298227D01*
X146322375Y-116297883D01*
X146301592Y-116293750D01*
X146143908Y-116293750D01*
X146143905Y-116293750D01*
X145989260Y-116324511D01*
X145989248Y-116324514D01*
X145843577Y-116384852D01*
X145843564Y-116384859D01*
X145712461Y-116472460D01*
X145712456Y-116472464D01*
X145693539Y-116491381D01*
X145691609Y-116492434D01*
X145690489Y-116494329D01*
X145661091Y-116509097D01*
X145632215Y-116524865D01*
X145630019Y-116524707D01*
X145628055Y-116525695D01*
X145595343Y-116522227D01*
X145562524Y-116519879D01*
X145560077Y-116518488D01*
X145558575Y-116518329D01*
X145551531Y-116513630D01*
X145528195Y-116500364D01*
X145522949Y-116496149D01*
X145461586Y-116434786D01*
X145376951Y-116378235D01*
X145314097Y-116336237D01*
X145314096Y-116336236D01*
X145314094Y-116336235D01*
X145314092Y-116336234D01*
X145227291Y-116300281D01*
X145150216Y-116268355D01*
X145150208Y-116268353D01*
X144976246Y-116233750D01*
X144976242Y-116233750D01*
X144976241Y-116233750D01*
X144423149Y-116233750D01*
X144385038Y-116227748D01*
X144185354Y-116163254D01*
X143396472Y-115908460D01*
X143338728Y-115869125D01*
X143311417Y-115804814D01*
X143323211Y-115735947D01*
X143346897Y-115702788D01*
X143484440Y-115565246D01*
X143622340Y-115375442D01*
X143728851Y-115166403D01*
X143801349Y-114943276D01*
X143838050Y-114711555D01*
X143838050Y-114476945D01*
X143801349Y-114245224D01*
X143748952Y-114083961D01*
X143728852Y-114022099D01*
X143703560Y-113972461D01*
X143622340Y-113813058D01*
X143604721Y-113788808D01*
X143484445Y-113623260D01*
X143484441Y-113623255D01*
X143318544Y-113457358D01*
X143318539Y-113457354D01*
X143128745Y-113319462D01*
X143128744Y-113319461D01*
X143128742Y-113319460D01*
X143010774Y-113259352D01*
X142919700Y-113212947D01*
X142696577Y-113140451D01*
X142580715Y-113122100D01*
X142464855Y-113103750D01*
X142230245Y-113103750D01*
X142153004Y-113115983D01*
X141998522Y-113140451D01*
X141775399Y-113212947D01*
X141566354Y-113319462D01*
X141376560Y-113457354D01*
X141376555Y-113457358D01*
X141210658Y-113623255D01*
X141210654Y-113623260D01*
X141072762Y-113813054D01*
X140966247Y-114022099D01*
X140893751Y-114245222D01*
X140857050Y-114476945D01*
X140857050Y-114711554D01*
X140893751Y-114943277D01*
X140966247Y-115166400D01*
X140999984Y-115232611D01*
X141069802Y-115369637D01*
X141072762Y-115375445D01*
X141210654Y-115565239D01*
X141210658Y-115565244D01*
X141376555Y-115731141D01*
X141376560Y-115731145D01*
X141421687Y-115763932D01*
X141464353Y-115819262D01*
X141470332Y-115888875D01*
X141437726Y-115950670D01*
X141421687Y-115964568D01*
X141376560Y-115997354D01*
X141376555Y-115997358D01*
X141210658Y-116163255D01*
X141210654Y-116163260D01*
X141072762Y-116353054D01*
X140966247Y-116562099D01*
X140893751Y-116785222D01*
X140893751Y-116785224D01*
X140857050Y-117016945D01*
X140857050Y-117251555D01*
X140860829Y-117275412D01*
X140893751Y-117483277D01*
X140966247Y-117706400D01*
X140991145Y-117755264D01*
X141071003Y-117911994D01*
X141072762Y-117915445D01*
X141210654Y-118105239D01*
X141210658Y-118105244D01*
X141376555Y-118271141D01*
X141376560Y-118271145D01*
X141421687Y-118303932D01*
X141464353Y-118359262D01*
X141470332Y-118428875D01*
X141437726Y-118490670D01*
X141421687Y-118504568D01*
X141376560Y-118537354D01*
X141376555Y-118537358D01*
X141210658Y-118703255D01*
X141210654Y-118703260D01*
X141072762Y-118893054D01*
X140966247Y-119102099D01*
X140893751Y-119325222D01*
X140857050Y-119556945D01*
X140857050Y-119791554D01*
X140893751Y-120023277D01*
X140966247Y-120246400D01*
X141072762Y-120455445D01*
X141210654Y-120645239D01*
X141210658Y-120645244D01*
X141376555Y-120811141D01*
X141376560Y-120811145D01*
X141421687Y-120843932D01*
X141464353Y-120899262D01*
X141470332Y-120968875D01*
X141437726Y-121030670D01*
X141421687Y-121044568D01*
X141376560Y-121077354D01*
X141376555Y-121077358D01*
X141210658Y-121243255D01*
X141210654Y-121243260D01*
X141072762Y-121433054D01*
X140966247Y-121642099D01*
X140893751Y-121865222D01*
X140857050Y-122096945D01*
X140857050Y-122331554D01*
X140893751Y-122563277D01*
X140966247Y-122786400D01*
X141072762Y-122995445D01*
X141210654Y-123185239D01*
X141210658Y-123185244D01*
X141376555Y-123351141D01*
X141376560Y-123351145D01*
X141566353Y-123489037D01*
X141566355Y-123489038D01*
X141566358Y-123489040D01*
X141775397Y-123595551D01*
X141775404Y-123595553D01*
X141779903Y-123597417D01*
X141779880Y-123597472D01*
X141792905Y-123602879D01*
X143147279Y-124295964D01*
X143178463Y-124318663D01*
X143528086Y-124668285D01*
X143653515Y-124793714D01*
X143653516Y-124793715D01*
X143800996Y-124892259D01*
X143801009Y-124892266D01*
X143923913Y-124943173D01*
X143964884Y-124960144D01*
X143964886Y-124960144D01*
X143964891Y-124960146D01*
X144138854Y-124994749D01*
X144138857Y-124994750D01*
X144138859Y-124994750D01*
X155625623Y-124994750D01*
X155649813Y-124997132D01*
X155675973Y-125002336D01*
X155763514Y-125019750D01*
X155763517Y-125019750D01*
X155921203Y-125019750D01*
X155921204Y-125019749D01*
X156075856Y-124988987D01*
X156221538Y-124928644D01*
X156352648Y-124841039D01*
X156464148Y-124729539D01*
X156551753Y-124598429D01*
X156612096Y-124452747D01*
X156642859Y-124298092D01*
X156642859Y-124140408D01*
X156642859Y-124140405D01*
X156620242Y-124026705D01*
X156618753Y-124011589D01*
X156618456Y-124011619D01*
X156617859Y-124005564D01*
X156617859Y-124005559D01*
X156584783Y-123839274D01*
X156583255Y-123831591D01*
X156583252Y-123831582D01*
X156515375Y-123667709D01*
X156515373Y-123667705D01*
X156515372Y-123667703D01*
X156486925Y-123625129D01*
X156431675Y-123542442D01*
X156429531Y-123535595D01*
X156424579Y-123530405D01*
X156419229Y-123502696D01*
X156410797Y-123475765D01*
X156412694Y-123468846D01*
X156411335Y-123461802D01*
X156421815Y-123435600D01*
X156429281Y-123408385D01*
X156434618Y-123403590D01*
X156437283Y-123396929D01*
X156460265Y-123380552D01*
X156481260Y-123361694D01*
X156488342Y-123360546D01*
X156494185Y-123356383D01*
X156522376Y-123355031D01*
X156550230Y-123350518D01*
X156558507Y-123353299D01*
X156563974Y-123353037D01*
X156596120Y-123365935D01*
X156596743Y-123366144D01*
X156774474Y-123469203D01*
X156785717Y-123475172D01*
X156787610Y-123476264D01*
X156788246Y-123476930D01*
X156798519Y-123483345D01*
X156806358Y-123489040D01*
X157015397Y-123595551D01*
X157015399Y-123595552D01*
X157106414Y-123625124D01*
X157238524Y-123668049D01*
X157470245Y-123704750D01*
X157470246Y-123704750D01*
X157704854Y-123704750D01*
X157704855Y-123704750D01*
X157936576Y-123668049D01*
X158159703Y-123595551D01*
X158368742Y-123489040D01*
X158558546Y-123351140D01*
X158724440Y-123185246D01*
X158862340Y-122995442D01*
X158968851Y-122786403D01*
X159041349Y-122563276D01*
X159078050Y-122331555D01*
X159078050Y-122096945D01*
X159041349Y-121865224D01*
X158970308Y-121646580D01*
X158968852Y-121642099D01*
X158968851Y-121642097D01*
X158862340Y-121433058D01*
X158792380Y-121336766D01*
X158724445Y-121243260D01*
X158724441Y-121243255D01*
X158558542Y-121077356D01*
X158513413Y-121044569D01*
X158470746Y-120989239D01*
X158464766Y-120919626D01*
X158497372Y-120857831D01*
X158513413Y-120843931D01*
X158558542Y-120811143D01*
X158558542Y-120811142D01*
X158558546Y-120811140D01*
X158724440Y-120645246D01*
X158862340Y-120455442D01*
X158968851Y-120246403D01*
X159041349Y-120023276D01*
X159078050Y-119791555D01*
X159078050Y-119556945D01*
X159041349Y-119325224D01*
X158968851Y-119102097D01*
X158862340Y-118893058D01*
X158775429Y-118773434D01*
X158724445Y-118703260D01*
X158724441Y-118703255D01*
X158558542Y-118537356D01*
X158513413Y-118504569D01*
X158470746Y-118449239D01*
X158464766Y-118379626D01*
X158497372Y-118317831D01*
X158513413Y-118303931D01*
X158558542Y-118271143D01*
X158558542Y-118271142D01*
X158558546Y-118271140D01*
X158724440Y-118105246D01*
X158862340Y-117915442D01*
X158968851Y-117706403D01*
X159041349Y-117483276D01*
X159078050Y-117251555D01*
X159078050Y-117016945D01*
X159041349Y-116785224D01*
X158968851Y-116562097D01*
X158862340Y-116353058D01*
X158841601Y-116324513D01*
X158724445Y-116163260D01*
X158724441Y-116163255D01*
X158558542Y-115997356D01*
X158513413Y-115964569D01*
X158470746Y-115909239D01*
X158464766Y-115839626D01*
X158497372Y-115777831D01*
X158513413Y-115763931D01*
X158558542Y-115731143D01*
X158558542Y-115731142D01*
X158558546Y-115731140D01*
X158724440Y-115565246D01*
X158862340Y-115375442D01*
X158968851Y-115166403D01*
X159041349Y-114943276D01*
X159078050Y-114711555D01*
X159078050Y-114476945D01*
X159041349Y-114245224D01*
X158988952Y-114083961D01*
X158968852Y-114022099D01*
X158943560Y-113972461D01*
X158862340Y-113813058D01*
X158844721Y-113788808D01*
X158724445Y-113623260D01*
X158724441Y-113623255D01*
X158558542Y-113457356D01*
X158513413Y-113424569D01*
X158470746Y-113369239D01*
X158464766Y-113299626D01*
X158497372Y-113237831D01*
X158513413Y-113223931D01*
X158558542Y-113191143D01*
X158558542Y-113191142D01*
X158558546Y-113191140D01*
X158724440Y-113025246D01*
X158862340Y-112835442D01*
X158968851Y-112626403D01*
X159041349Y-112403276D01*
X159078050Y-112171555D01*
X159078050Y-111936945D01*
X159041349Y-111705224D01*
X158995106Y-111562901D01*
X158968852Y-111482099D01*
X158957665Y-111460143D01*
X158862340Y-111273058D01*
X158786221Y-111168288D01*
X158724445Y-111083260D01*
X158724441Y-111083255D01*
X158558542Y-110917356D01*
X158513413Y-110884569D01*
X158470746Y-110829239D01*
X158464766Y-110759626D01*
X158497372Y-110697831D01*
X158513413Y-110683931D01*
X158558542Y-110651143D01*
X158558542Y-110651142D01*
X158558546Y-110651140D01*
X158724440Y-110485246D01*
X158862340Y-110295442D01*
X158968851Y-110086403D01*
X159041349Y-109863276D01*
X159078050Y-109631555D01*
X159078050Y-109396945D01*
X159041349Y-109165224D01*
X159003768Y-109049561D01*
X158968852Y-108942099D01*
X158931639Y-108869065D01*
X158862340Y-108733058D01*
X158764702Y-108598670D01*
X158724445Y-108543260D01*
X158724441Y-108543255D01*
X158558542Y-108377356D01*
X158513413Y-108344569D01*
X158470746Y-108289239D01*
X158464766Y-108219626D01*
X158497372Y-108157831D01*
X158513413Y-108143931D01*
X158558542Y-108111143D01*
X158558542Y-108111142D01*
X158558546Y-108111140D01*
X158724440Y-107945246D01*
X158862340Y-107755442D01*
X158968851Y-107546403D01*
X159041349Y-107323276D01*
X159078050Y-107091555D01*
X159078050Y-106856945D01*
X159041349Y-106625224D01*
X159003768Y-106509561D01*
X158968852Y-106402099D01*
X158964606Y-106393765D01*
X158862340Y-106193058D01*
X158764702Y-106058670D01*
X158724445Y-106003260D01*
X158724441Y-106003255D01*
X158558544Y-105837358D01*
X158558539Y-105837354D01*
X158368745Y-105699462D01*
X158368744Y-105699461D01*
X158368742Y-105699460D01*
X158264222Y-105646204D01*
X158159700Y-105592947D01*
X157936577Y-105520451D01*
X157820715Y-105502100D01*
X157704855Y-105483750D01*
X157470245Y-105483750D01*
X157393004Y-105495983D01*
X157238522Y-105520451D01*
X157015399Y-105592947D01*
X156806354Y-105699462D01*
X156616560Y-105837354D01*
X156616555Y-105837358D01*
X156450658Y-106003255D01*
X156450654Y-106003260D01*
X156312762Y-106193054D01*
X156206247Y-106402099D01*
X156133751Y-106625222D01*
X156097050Y-106856945D01*
X156097050Y-107091554D01*
X156133751Y-107323277D01*
X156206247Y-107546400D01*
X156312762Y-107755445D01*
X156450654Y-107945239D01*
X156450658Y-107945244D01*
X156616557Y-108111143D01*
X156634284Y-108124022D01*
X156676951Y-108179352D01*
X156682931Y-108248965D01*
X156650325Y-108310760D01*
X156616392Y-108335480D01*
X155524235Y-108875889D01*
X155469243Y-108888750D01*
X153768003Y-108888750D01*
X153700964Y-108869065D01*
X153680322Y-108852431D01*
X142033372Y-97205482D01*
X142023409Y-97195519D01*
X142023408Y-97195517D01*
X141936283Y-97108392D01*
X141885059Y-97074165D01*
X141833836Y-97039938D01*
X141833833Y-97039936D01*
X141833830Y-97039935D01*
X141757078Y-97008144D01*
X141757074Y-97008143D01*
X141750061Y-97005238D01*
X141720002Y-96992787D01*
X141659579Y-96980768D01*
X141655071Y-96979871D01*
X141655070Y-96979871D01*
X141599160Y-96968750D01*
X141599157Y-96968750D01*
X141599156Y-96968750D01*
X135008470Y-96968750D01*
X134957547Y-96957811D01*
X133998985Y-96526068D01*
X133993612Y-96523491D01*
X133858669Y-96454733D01*
X133807874Y-96406759D01*
X133791079Y-96338938D01*
X133813617Y-96272803D01*
X133858669Y-96233765D01*
X134010109Y-96156603D01*
X134171261Y-96039519D01*
X134312112Y-95898668D01*
X134429196Y-95737516D01*
X134519628Y-95560033D01*
X134581182Y-95370589D01*
X134612343Y-95173847D01*
X134612343Y-94974653D01*
X134581182Y-94777911D01*
X134581181Y-94777907D01*
X134581181Y-94777906D01*
X134519629Y-94588469D01*
X134461013Y-94473429D01*
X134429196Y-94410984D01*
X134312112Y-94249832D01*
X134171261Y-94108981D01*
X134010109Y-93991897D01*
X133858670Y-93914735D01*
X133807874Y-93866760D01*
X133791079Y-93798939D01*
X133813616Y-93732804D01*
X133858670Y-93693765D01*
X133867959Y-93689031D01*
X134010109Y-93616603D01*
X134171261Y-93499519D01*
X134312112Y-93358668D01*
X134429196Y-93197516D01*
X134519628Y-93020033D01*
X134581182Y-92830589D01*
X134612343Y-92633847D01*
X134612343Y-92434653D01*
X134581182Y-92237911D01*
X134581181Y-92237907D01*
X134581181Y-92237906D01*
X134519629Y-92048469D01*
X134429195Y-91870983D01*
X134312112Y-91709832D01*
X134171261Y-91568981D01*
X134074850Y-91498934D01*
X134010104Y-91451893D01*
X133858670Y-91374733D01*
X133849516Y-91366088D01*
X133837850Y-91361353D01*
X133824596Y-91342552D01*
X133807874Y-91326759D01*
X133804847Y-91314537D01*
X133797593Y-91304247D01*
X133796607Y-91281264D01*
X133791079Y-91258938D01*
X133795140Y-91247020D01*
X133794601Y-91234441D01*
X133806197Y-91214575D01*
X133813617Y-91192803D01*
X133824320Y-91183528D01*
X133829824Y-91174100D01*
X133858665Y-91153767D01*
X134000495Y-91081500D01*
X134004132Y-91079722D01*
X134713774Y-90747077D01*
X134782829Y-90736448D01*
X134846670Y-90764840D01*
X134854083Y-90771673D01*
X138476391Y-94393982D01*
X138476392Y-94393983D01*
X138555831Y-94473422D01*
X138563518Y-94481109D01*
X138665957Y-94549557D01*
X138665963Y-94549560D01*
X138665964Y-94549561D01*
X138779798Y-94596713D01*
X138900638Y-94620749D01*
X138900642Y-94620750D01*
X138900643Y-94620750D01*
X138900644Y-94620750D01*
X151100765Y-94620750D01*
X151160014Y-94635821D01*
X151429987Y-94782664D01*
X151451963Y-94793771D01*
X151464897Y-94801323D01*
X151468371Y-94803644D01*
X151614053Y-94863987D01*
X151768703Y-94894749D01*
X151768706Y-94894750D01*
X151768708Y-94894750D01*
X151926394Y-94894750D01*
X151926395Y-94894749D01*
X152081047Y-94863987D01*
X152226729Y-94803644D01*
X152357839Y-94716039D01*
X152469339Y-94604539D01*
X152556944Y-94473429D01*
X152617287Y-94327747D01*
X152648050Y-94173092D01*
X152648050Y-94015408D01*
X152648050Y-94015405D01*
X152648049Y-94015403D01*
X152620259Y-93875696D01*
X152617287Y-93860753D01*
X152567991Y-93741740D01*
X152556947Y-93715077D01*
X152556940Y-93715064D01*
X152469339Y-93583961D01*
X152469336Y-93583957D01*
X152357842Y-93472463D01*
X152357838Y-93472460D01*
X152226735Y-93384859D01*
X152226722Y-93384852D01*
X152081051Y-93324514D01*
X152081039Y-93324511D01*
X151926395Y-93293750D01*
X151926392Y-93293750D01*
X151768708Y-93293750D01*
X151751098Y-93297252D01*
X151746031Y-93298260D01*
X151720830Y-93300637D01*
X151710366Y-93300551D01*
X151710362Y-93300551D01*
X151710361Y-93300551D01*
X151676167Y-93305179D01*
X151212396Y-93367947D01*
X151210302Y-93368274D01*
X151191226Y-93369750D01*
X149998971Y-93369750D01*
X149931932Y-93350065D01*
X149886177Y-93297261D01*
X149876233Y-93228103D01*
X149896698Y-93178693D01*
X149896096Y-93178364D01*
X149899156Y-93172760D01*
X149899702Y-93171442D01*
X149900035Y-93170995D01*
X149900346Y-93170581D01*
X149950641Y-93035733D01*
X149957050Y-92976123D01*
X149957049Y-91372378D01*
X149950641Y-91312767D01*
X149947463Y-91304247D01*
X149900347Y-91177921D01*
X149900343Y-91177914D01*
X149814097Y-91062705D01*
X149814094Y-91062702D01*
X149735032Y-91003516D01*
X149693161Y-90947583D01*
X149688177Y-90877891D01*
X149721663Y-90816568D01*
X149735032Y-90804984D01*
X149782338Y-90769570D01*
X149814096Y-90745796D01*
X149900346Y-90630581D01*
X149950641Y-90495733D01*
X149957050Y-90436123D01*
X149957049Y-88832378D01*
X149950641Y-88772767D01*
X149934526Y-88729561D01*
X149900347Y-88637921D01*
X149900343Y-88637914D01*
X149814097Y-88522705D01*
X149814094Y-88522702D01*
X149735032Y-88463516D01*
X149693161Y-88407583D01*
X149688177Y-88337891D01*
X149721663Y-88276568D01*
X149735032Y-88264984D01*
X149779965Y-88231346D01*
X149814096Y-88205796D01*
X149900346Y-88090581D01*
X149950641Y-87955733D01*
X149957050Y-87896123D01*
X149957049Y-87745772D01*
X149975145Y-87681270D01*
X150481631Y-86849713D01*
X150499842Y-86826547D01*
X150833408Y-86492983D01*
X150901862Y-86390535D01*
X150937853Y-86303644D01*
X150949013Y-86276702D01*
X150953001Y-86256652D01*
X150973051Y-86155856D01*
X150973051Y-86032643D01*
X150973051Y-86027533D01*
X150973050Y-86027507D01*
X150973050Y-78782643D01*
X150973049Y-78782639D01*
X150949014Y-78661805D01*
X150949013Y-78661798D01*
X150906743Y-78559750D01*
X150901862Y-78547965D01*
X150880108Y-78515408D01*
X150870975Y-78501740D01*
X150833408Y-78445517D01*
X150833405Y-78445513D01*
X150743187Y-78355295D01*
X150743156Y-78355266D01*
X149090700Y-76702810D01*
X149083410Y-76695520D01*
X149083408Y-76695517D01*
X148996283Y-76608392D01*
X148945059Y-76574165D01*
X148893836Y-76539938D01*
X148893833Y-76539936D01*
X148893830Y-76539935D01*
X148820153Y-76509418D01*
X148820151Y-76509417D01*
X148813342Y-76506597D01*
X148780002Y-76492787D01*
X148719579Y-76480768D01*
X148714856Y-76479828D01*
X148714854Y-76479828D01*
X148659160Y-76468750D01*
X148659157Y-76468750D01*
X148659156Y-76468750D01*
X134954086Y-76468750D01*
X134916701Y-76462980D01*
X133887355Y-76137499D01*
X133829370Y-76098519D01*
X133801664Y-76034377D01*
X133813034Y-75965439D01*
X133859869Y-75913591D01*
X133868438Y-75908787D01*
X134010109Y-75836603D01*
X134171261Y-75719519D01*
X134312112Y-75578668D01*
X134429196Y-75417516D01*
X134519628Y-75240033D01*
X134581182Y-75050589D01*
X134612343Y-74853847D01*
X134612343Y-74654653D01*
X134581182Y-74457911D01*
X134581181Y-74457907D01*
X134581181Y-74457906D01*
X134519629Y-74268469D01*
X134429195Y-74090983D01*
X134312112Y-73929832D01*
X134171261Y-73788981D01*
X134010109Y-73671897D01*
X133858670Y-73594735D01*
X133807874Y-73546760D01*
X133791079Y-73478939D01*
X133813616Y-73412804D01*
X133858670Y-73373765D01*
X133867959Y-73369031D01*
X134010109Y-73296603D01*
X134171261Y-73179519D01*
X134312112Y-73038668D01*
X134429196Y-72877516D01*
X134519628Y-72700033D01*
X134581182Y-72510589D01*
X134612343Y-72313847D01*
X134612343Y-72114653D01*
X134581182Y-71917911D01*
X134581181Y-71917907D01*
X134581181Y-71917906D01*
X134519629Y-71728469D01*
X134429195Y-71550983D01*
X134312112Y-71389832D01*
X134171261Y-71248981D01*
X134010109Y-71131897D01*
X133858670Y-71054735D01*
X133807874Y-71006760D01*
X133791079Y-70938939D01*
X133813616Y-70872804D01*
X133858670Y-70833765D01*
X133867959Y-70829031D01*
X134010109Y-70756603D01*
X134171261Y-70639519D01*
X134312112Y-70498668D01*
X134429196Y-70337516D01*
X134519628Y-70160033D01*
X134581182Y-69970589D01*
X134612343Y-69773847D01*
X134612343Y-69574653D01*
X134581182Y-69377911D01*
X134581181Y-69377907D01*
X134581181Y-69377906D01*
X134519629Y-69188469D01*
X134429195Y-69010983D01*
X134312112Y-68849832D01*
X134171261Y-68708981D01*
X134074850Y-68638934D01*
X134010104Y-68591893D01*
X133858670Y-68514733D01*
X133849516Y-68506088D01*
X133837850Y-68501353D01*
X133824596Y-68482552D01*
X133807874Y-68466759D01*
X133804847Y-68454537D01*
X133797593Y-68444247D01*
X133796607Y-68421264D01*
X133791079Y-68398938D01*
X133795140Y-68387020D01*
X133794601Y-68374441D01*
X133806197Y-68354575D01*
X133813617Y-68332803D01*
X133824320Y-68323528D01*
X133829824Y-68314100D01*
X133858665Y-68293767D01*
X134000495Y-68221500D01*
X134004132Y-68219722D01*
X134845700Y-67825237D01*
X134960399Y-67771473D01*
X135013029Y-67759750D01*
X151618530Y-67759750D01*
X151678952Y-67747731D01*
X151739375Y-67735713D01*
X151777029Y-67720116D01*
X151853209Y-67688562D01*
X151904432Y-67654334D01*
X151955656Y-67620108D01*
X152042781Y-67532983D01*
X152042782Y-67532981D01*
X152049848Y-67525915D01*
X152049851Y-67525911D01*
X153789827Y-65785934D01*
X153820306Y-65763599D01*
X154220097Y-65555763D01*
X154226729Y-65553017D01*
X154231452Y-65549860D01*
X154235838Y-65547581D01*
X154259575Y-65534419D01*
X154260646Y-65533787D01*
X154326602Y-65487399D01*
X154326604Y-65487396D01*
X154328526Y-65486045D01*
X154338726Y-65478182D01*
X154357839Y-65465412D01*
X154469339Y-65353912D01*
X154556944Y-65222802D01*
X154617287Y-65077120D01*
X154648050Y-64922465D01*
X154648050Y-64764781D01*
X154648050Y-64764778D01*
X154648049Y-64764776D01*
X154638162Y-64715071D01*
X154617287Y-64610126D01*
X154560265Y-64472461D01*
X154556947Y-64464450D01*
X154556940Y-64464437D01*
X154469339Y-64333334D01*
X154469336Y-64333330D01*
X154357842Y-64221836D01*
X154357838Y-64221833D01*
X154226735Y-64134232D01*
X154226722Y-64134225D01*
X154081051Y-64073887D01*
X154081039Y-64073884D01*
X153926395Y-64043123D01*
X153926392Y-64043123D01*
X153768708Y-64043123D01*
X153768705Y-64043123D01*
X153614060Y-64073884D01*
X153614048Y-64073887D01*
X153468377Y-64134225D01*
X153468364Y-64134232D01*
X153337261Y-64221833D01*
X153337257Y-64221836D01*
X153225763Y-64333330D01*
X153154248Y-64440359D01*
X153154247Y-64440358D01*
X153153086Y-64442094D01*
X153143593Y-64455332D01*
X153141311Y-64459718D01*
X153138160Y-64464436D01*
X153138154Y-64464446D01*
X153137463Y-64466116D01*
X153132932Y-64475836D01*
X152927572Y-64870864D01*
X152905232Y-64901349D01*
X151334152Y-66472431D01*
X151272829Y-66505916D01*
X151246471Y-66508750D01*
X135013032Y-66508750D01*
X134960402Y-66497027D01*
X134004122Y-66048770D01*
X134000458Y-66046978D01*
X133832626Y-65961464D01*
X133643185Y-65899911D01*
X133467799Y-65872133D01*
X133446440Y-65868750D01*
X133247246Y-65868750D01*
X133225887Y-65872133D01*
X133050502Y-65899911D01*
X133050499Y-65899911D01*
X132861062Y-65961463D01*
X132683576Y-66051897D01*
X132591633Y-66118697D01*
X132522425Y-66168981D01*
X132522423Y-66168983D01*
X132522422Y-66168983D01*
X132381576Y-66309829D01*
X132381576Y-66309830D01*
X132381574Y-66309832D01*
X132331290Y-66379040D01*
X132264490Y-66470983D01*
X132174056Y-66648469D01*
X132112504Y-66837906D01*
X132112504Y-66837909D01*
X132081343Y-67034653D01*
X132081343Y-67233846D01*
X132112504Y-67430590D01*
X132112504Y-67430593D01*
X132174056Y-67620030D01*
X132223668Y-67717398D01*
X132264490Y-67797516D01*
X132381574Y-67958668D01*
X132522425Y-68099519D01*
X132683577Y-68216603D01*
X132693204Y-68221508D01*
X132835015Y-68293765D01*
X132885811Y-68341740D01*
X132902606Y-68409561D01*
X132880068Y-68475696D01*
X132835015Y-68514735D01*
X132683576Y-68591897D01*
X132591633Y-68658697D01*
X132522425Y-68708981D01*
X132522423Y-68708983D01*
X132522422Y-68708983D01*
X132381576Y-68849829D01*
X132381576Y-68849830D01*
X132381574Y-68849832D01*
X132331290Y-68919040D01*
X132264490Y-69010983D01*
X132174056Y-69188469D01*
X132112504Y-69377906D01*
X132112504Y-69377909D01*
X132081343Y-69574653D01*
X132081343Y-69773846D01*
X132112504Y-69970590D01*
X132112504Y-69970593D01*
X132174056Y-70160030D01*
X132174058Y-70160033D01*
X132264490Y-70337516D01*
X132381574Y-70498668D01*
X132522425Y-70639519D01*
X132683577Y-70756603D01*
X132753296Y-70792127D01*
X132835015Y-70833765D01*
X132885811Y-70881740D01*
X132902606Y-70949561D01*
X132880068Y-71015696D01*
X132835015Y-71054735D01*
X132683576Y-71131897D01*
X132591633Y-71198697D01*
X132522425Y-71248981D01*
X132522423Y-71248983D01*
X132522422Y-71248983D01*
X132381576Y-71389829D01*
X132381576Y-71389830D01*
X132381574Y-71389832D01*
X132331290Y-71459040D01*
X132264490Y-71550983D01*
X132174056Y-71728469D01*
X132112504Y-71917906D01*
X132112504Y-71917909D01*
X132081343Y-72114653D01*
X132081343Y-72313846D01*
X132112504Y-72510590D01*
X132112504Y-72510593D01*
X132174056Y-72700030D01*
X132174058Y-72700033D01*
X132264490Y-72877516D01*
X132381574Y-73038668D01*
X132522425Y-73179519D01*
X132683577Y-73296603D01*
X132753296Y-73332127D01*
X132835015Y-73373765D01*
X132885811Y-73421740D01*
X132902606Y-73489561D01*
X132880068Y-73555696D01*
X132835015Y-73594735D01*
X132683576Y-73671897D01*
X132591633Y-73738697D01*
X132522425Y-73788981D01*
X132522423Y-73788983D01*
X132522422Y-73788983D01*
X132381576Y-73929829D01*
X132381576Y-73929830D01*
X132381574Y-73929832D01*
X132331290Y-73999040D01*
X132264490Y-74090983D01*
X132174056Y-74268469D01*
X132112504Y-74457906D01*
X132112504Y-74457909D01*
X132081343Y-74654653D01*
X132081343Y-74853846D01*
X132112504Y-75050590D01*
X132112504Y-75050593D01*
X132174056Y-75240030D01*
X132174058Y-75240033D01*
X132264490Y-75417516D01*
X132381574Y-75578668D01*
X132522425Y-75719519D01*
X132683577Y-75836603D01*
X132753296Y-75872127D01*
X132835015Y-75913765D01*
X132885811Y-75961740D01*
X132902606Y-76029561D01*
X132880068Y-76095696D01*
X132835015Y-76134735D01*
X132683576Y-76211897D01*
X132591633Y-76278697D01*
X132522425Y-76328981D01*
X132522423Y-76328983D01*
X132522422Y-76328983D01*
X132381576Y-76469829D01*
X132381576Y-76469830D01*
X132381574Y-76469832D01*
X132354863Y-76506597D01*
X132264490Y-76630983D01*
X132174056Y-76808469D01*
X132112504Y-76997906D01*
X132112504Y-76997909D01*
X132081343Y-77194653D01*
X132081343Y-77393846D01*
X132112504Y-77590590D01*
X132112504Y-77590593D01*
X132174056Y-77780030D01*
X132215515Y-77861397D01*
X132264490Y-77957516D01*
X132381574Y-78118668D01*
X132522425Y-78259519D01*
X132683577Y-78376603D01*
X132835016Y-78453765D01*
X132861062Y-78467036D01*
X133050500Y-78528588D01*
X133050501Y-78528588D01*
X133050504Y-78528589D01*
X133247246Y-78559750D01*
X133247247Y-78559750D01*
X133446439Y-78559750D01*
X133446440Y-78559750D01*
X133643182Y-78528589D01*
X133643185Y-78528588D01*
X133643186Y-78528588D01*
X133832623Y-78467036D01*
X133832623Y-78467035D01*
X133832626Y-78467035D01*
X134010109Y-78376603D01*
X134030240Y-78361975D01*
X134049858Y-78350319D01*
X134061472Y-78344794D01*
X134061473Y-78344792D01*
X134061482Y-78344789D01*
X134970177Y-77740496D01*
X135036900Y-77719765D01*
X135038841Y-77719750D01*
X143806696Y-77719750D01*
X143873735Y-77739435D01*
X143919490Y-77792239D01*
X143929434Y-77861397D01*
X143900409Y-77924953D01*
X143875587Y-77946852D01*
X143837261Y-77972460D01*
X143837257Y-77972463D01*
X143725763Y-78083957D01*
X143725760Y-78083961D01*
X143638159Y-78215064D01*
X143638152Y-78215077D01*
X143577814Y-78360748D01*
X143577811Y-78360760D01*
X143547050Y-78515403D01*
X143547050Y-78673096D01*
X143577811Y-78827739D01*
X143577814Y-78827751D01*
X143638152Y-78973422D01*
X143638159Y-78973435D01*
X143725760Y-79104538D01*
X143725763Y-79104542D01*
X143837257Y-79216036D01*
X143837265Y-79216042D01*
X143933658Y-79280450D01*
X143952449Y-79295871D01*
X146793307Y-82136729D01*
X146804414Y-82149464D01*
X146821138Y-82171512D01*
X146821141Y-82171515D01*
X146821142Y-82171516D01*
X147413525Y-82756414D01*
X147447399Y-82817523D01*
X147449693Y-82831398D01*
X147454458Y-82875733D01*
X147504752Y-83010578D01*
X147504756Y-83010585D01*
X147591002Y-83125794D01*
X147591005Y-83125797D01*
X147706214Y-83212043D01*
X147706221Y-83212047D01*
X147841067Y-83262341D01*
X147841066Y-83262341D01*
X147847994Y-83263085D01*
X147900677Y-83268750D01*
X149504422Y-83268749D01*
X149564033Y-83262341D01*
X149569525Y-83261043D01*
X149639295Y-83264777D01*
X149695970Y-83305640D01*
X149721556Y-83370656D01*
X149722050Y-83381717D01*
X149722050Y-85717335D01*
X149719368Y-85726466D01*
X149720653Y-85735897D01*
X149709683Y-85759450D01*
X149702365Y-85784374D01*
X149695173Y-85790605D01*
X149691155Y-85799234D01*
X149669192Y-85813118D01*
X149649561Y-85830129D01*
X149638569Y-85832477D01*
X149632097Y-85836569D01*
X149605124Y-85839622D01*
X149597125Y-85841332D01*
X149594313Y-85841311D01*
X149488358Y-85835724D01*
X149474331Y-85835180D01*
X149473729Y-85835165D01*
X149407121Y-85837902D01*
X149399879Y-85839750D01*
X149384947Y-85839750D01*
X149384946Y-85839750D01*
X147900679Y-85839750D01*
X147900673Y-85839751D01*
X147841066Y-85846158D01*
X147706221Y-85896452D01*
X147706214Y-85896456D01*
X147591005Y-85982702D01*
X147591002Y-85982705D01*
X147504756Y-86097914D01*
X147504752Y-86097921D01*
X147454458Y-86232767D01*
X147448051Y-86292366D01*
X147448050Y-86292385D01*
X147448050Y-87896120D01*
X147448051Y-87896126D01*
X147454458Y-87955733D01*
X147504752Y-88090578D01*
X147504756Y-88090585D01*
X147532914Y-88128198D01*
X147591004Y-88205796D01*
X147670068Y-88264983D01*
X147685904Y-88286138D01*
X147704591Y-88304827D01*
X147706514Y-88313670D01*
X147711938Y-88320916D01*
X147713822Y-88347273D01*
X147719440Y-88373100D01*
X147716276Y-88381580D01*
X147716922Y-88390608D01*
X147704256Y-88413802D01*
X147695020Y-88438564D01*
X147685584Y-88447998D01*
X147683437Y-88451931D01*
X147670065Y-88463516D01*
X147670062Y-88463519D01*
X147656351Y-88473782D01*
X147647124Y-88480062D01*
X147616540Y-88498919D01*
X147616534Y-88498922D01*
X147039892Y-88979968D01*
X146975803Y-89007797D01*
X146960459Y-89008750D01*
X138846503Y-89008750D01*
X138779464Y-88989065D01*
X138758822Y-88972431D01*
X137509369Y-87722978D01*
X137475884Y-87661655D01*
X137473050Y-87635297D01*
X137473050Y-86301378D01*
X137478810Y-86264025D01*
X137505433Y-86179750D01*
X137614537Y-85834384D01*
X137617287Y-85827747D01*
X137618396Y-85822170D01*
X137619884Y-85817461D01*
X137627301Y-85791611D01*
X137627612Y-85790407D01*
X137641518Y-85710640D01*
X137641517Y-85710638D01*
X137641939Y-85708223D01*
X137643573Y-85695595D01*
X137648050Y-85673094D01*
X137648050Y-85673092D01*
X137648050Y-85515408D01*
X137648050Y-85515405D01*
X137648049Y-85515403D01*
X137625100Y-85400033D01*
X137617287Y-85360753D01*
X137617285Y-85360748D01*
X137556947Y-85215077D01*
X137556940Y-85215064D01*
X137469339Y-85083961D01*
X137469336Y-85083957D01*
X137357842Y-84972463D01*
X137357838Y-84972460D01*
X137226735Y-84884859D01*
X137226722Y-84884852D01*
X137081051Y-84824514D01*
X137081039Y-84824511D01*
X136926395Y-84793750D01*
X136926392Y-84793750D01*
X136768708Y-84793750D01*
X136768705Y-84793750D01*
X136614060Y-84824511D01*
X136614048Y-84824514D01*
X136468377Y-84884852D01*
X136468364Y-84884859D01*
X136337261Y-84972460D01*
X136337257Y-84972463D01*
X136225763Y-85083957D01*
X136225760Y-85083961D01*
X136138159Y-85215064D01*
X136138152Y-85215077D01*
X136077814Y-85360748D01*
X136077811Y-85360760D01*
X136047050Y-85515403D01*
X136047050Y-85515408D01*
X136047050Y-85673092D01*
X136047050Y-85673094D01*
X136047049Y-85673094D01*
X136070425Y-85790605D01*
X136072561Y-85801343D01*
X136075215Y-85817462D01*
X136076705Y-85822181D01*
X136077812Y-85827744D01*
X136077813Y-85827748D01*
X136078503Y-85829414D01*
X136082174Y-85839493D01*
X136216290Y-86264027D01*
X136222050Y-86301378D01*
X136222050Y-88007356D01*
X136243961Y-88117516D01*
X136243962Y-88117520D01*
X136243961Y-88117520D01*
X136246085Y-88128198D01*
X136246086Y-88128202D01*
X136293235Y-88242031D01*
X136293237Y-88242035D01*
X136317716Y-88278668D01*
X136326655Y-88292046D01*
X136361692Y-88344483D01*
X136448817Y-88431608D01*
X136448819Y-88431609D01*
X136458828Y-88441618D01*
X138137313Y-90120105D01*
X138137317Y-90120108D01*
X138239760Y-90188559D01*
X138239761Y-90188559D01*
X138239765Y-90188562D01*
X138306447Y-90216182D01*
X138353598Y-90235713D01*
X138373647Y-90239701D01*
X138438674Y-90252635D01*
X138474442Y-90259751D01*
X138474444Y-90259751D01*
X138603771Y-90259751D01*
X138603791Y-90259750D01*
X146960461Y-90259750D01*
X147027500Y-90279435D01*
X147039891Y-90288530D01*
X147216804Y-90436114D01*
X147589564Y-90747078D01*
X147616530Y-90769573D01*
X147641048Y-90788777D01*
X147653487Y-90795425D01*
X147703333Y-90844384D01*
X147718798Y-90912521D01*
X147694970Y-90978202D01*
X147669351Y-91004052D01*
X147591002Y-91062705D01*
X147504756Y-91177914D01*
X147504752Y-91177921D01*
X147454458Y-91312767D01*
X147449235Y-91361353D01*
X147448051Y-91372373D01*
X147448050Y-91372385D01*
X147448050Y-92976120D01*
X147448051Y-92976126D01*
X147454458Y-93035733D01*
X147504752Y-93170578D01*
X147504755Y-93170583D01*
X147505398Y-93171442D01*
X147505772Y-93172445D01*
X147509004Y-93178364D01*
X147508152Y-93178828D01*
X147529813Y-93236907D01*
X147514960Y-93305179D01*
X147465553Y-93354584D01*
X147406129Y-93369750D01*
X139272703Y-93369750D01*
X139205664Y-93350065D01*
X139185022Y-93333431D01*
X135457072Y-89605482D01*
X135447109Y-89595519D01*
X135447108Y-89595517D01*
X135359983Y-89508392D01*
X135308759Y-89474165D01*
X135257536Y-89439938D01*
X135257533Y-89439936D01*
X135257530Y-89439935D01*
X135183853Y-89409418D01*
X135183851Y-89409417D01*
X135177042Y-89406597D01*
X135143702Y-89392787D01*
X135083279Y-89380768D01*
X135078556Y-89379828D01*
X135078554Y-89379828D01*
X135022860Y-89368750D01*
X135022857Y-89368750D01*
X135022856Y-89368750D01*
X135013032Y-89368750D01*
X134960402Y-89357027D01*
X134004122Y-88908770D01*
X134000457Y-88906978D01*
X133858670Y-88834734D01*
X133807874Y-88786760D01*
X133791079Y-88718939D01*
X133813616Y-88652804D01*
X133858669Y-88613765D01*
X134010109Y-88536603D01*
X134171261Y-88419519D01*
X134312112Y-88278668D01*
X134429196Y-88117516D01*
X134519628Y-87940033D01*
X134581182Y-87750589D01*
X134612343Y-87553847D01*
X134612343Y-87354653D01*
X134581182Y-87157911D01*
X134581181Y-87157907D01*
X134581181Y-87157906D01*
X134519629Y-86968469D01*
X134459122Y-86849717D01*
X134429196Y-86790984D01*
X134312112Y-86629832D01*
X134171261Y-86488981D01*
X134010109Y-86371897D01*
X133876155Y-86303644D01*
X133858670Y-86294735D01*
X133807874Y-86246760D01*
X133791079Y-86178939D01*
X133813616Y-86112804D01*
X133858670Y-86073765D01*
X133867959Y-86069031D01*
X134010109Y-85996603D01*
X134171261Y-85879519D01*
X134312112Y-85738668D01*
X134429196Y-85577516D01*
X134519628Y-85400033D01*
X134532391Y-85360753D01*
X134581181Y-85210593D01*
X134581181Y-85210592D01*
X134581182Y-85210589D01*
X134612343Y-85013847D01*
X134612343Y-84814653D01*
X134581182Y-84617911D01*
X134581181Y-84617907D01*
X134581181Y-84617906D01*
X134519629Y-84428469D01*
X134429195Y-84250983D01*
X134312112Y-84089832D01*
X134171261Y-83948981D01*
X134010109Y-83831897D01*
X133858670Y-83754735D01*
X133807874Y-83706760D01*
X133791079Y-83638939D01*
X133813616Y-83572804D01*
X133858670Y-83533765D01*
X133867959Y-83529031D01*
X134010109Y-83456603D01*
X134171261Y-83339519D01*
X134312112Y-83198668D01*
X134429196Y-83037516D01*
X134519628Y-82860033D01*
X134581182Y-82670589D01*
X134612343Y-82473847D01*
X134612343Y-82274653D01*
X134581182Y-82077911D01*
X134581181Y-82077907D01*
X134581181Y-82077906D01*
X134519629Y-81888469D01*
X134429195Y-81710983D01*
X134312112Y-81549832D01*
X134171261Y-81408981D01*
X134010109Y-81291897D01*
X133832623Y-81201463D01*
X133643185Y-81139911D01*
X133451560Y-81109561D01*
X133446440Y-81108750D01*
X133247246Y-81108750D01*
X133242126Y-81109561D01*
X133050502Y-81139911D01*
X133050499Y-81139911D01*
X132861062Y-81201463D01*
X132683576Y-81291897D01*
X132591633Y-81358697D01*
X132522425Y-81408981D01*
X132522423Y-81408983D01*
X132522422Y-81408983D01*
X132381576Y-81549829D01*
X132381576Y-81549830D01*
X132381574Y-81549832D01*
X132331290Y-81619040D01*
X132264490Y-81710983D01*
X132174056Y-81888469D01*
X132112504Y-82077906D01*
X132112504Y-82077909D01*
X132081343Y-82274653D01*
X132081343Y-82473846D01*
X132112504Y-82670590D01*
X132112504Y-82670593D01*
X132174056Y-82860030D01*
X132250764Y-83010578D01*
X132264490Y-83037516D01*
X132381574Y-83198668D01*
X132522425Y-83339519D01*
X132683577Y-83456603D01*
X132753296Y-83492127D01*
X132835015Y-83533765D01*
X132885811Y-83581740D01*
X132902606Y-83649561D01*
X132880068Y-83715696D01*
X132835015Y-83754735D01*
X132683576Y-83831897D01*
X132591633Y-83898697D01*
X132522425Y-83948981D01*
X132522423Y-83948983D01*
X132522422Y-83948983D01*
X132381576Y-84089829D01*
X132381576Y-84089830D01*
X132381574Y-84089832D01*
X132331290Y-84159040D01*
X132264490Y-84250983D01*
X132174056Y-84428469D01*
X132112504Y-84617906D01*
X132112504Y-84617909D01*
X132081343Y-84814653D01*
X132081343Y-85013846D01*
X132112504Y-85210590D01*
X132112504Y-85210593D01*
X132174056Y-85400030D01*
X132174058Y-85400033D01*
X132264490Y-85577516D01*
X132381574Y-85738668D01*
X132522425Y-85879519D01*
X132683577Y-85996603D01*
X132744230Y-86027507D01*
X132835015Y-86073765D01*
X132885811Y-86121740D01*
X132902606Y-86189561D01*
X132880068Y-86255696D01*
X132835015Y-86294735D01*
X132683576Y-86371897D01*
X132591633Y-86438697D01*
X132522425Y-86488981D01*
X132522423Y-86488983D01*
X132522422Y-86488983D01*
X132381576Y-86629829D01*
X132381576Y-86629830D01*
X132381574Y-86629832D01*
X132331290Y-86699040D01*
X132264490Y-86790983D01*
X132174056Y-86968469D01*
X132112504Y-87157906D01*
X132112504Y-87157909D01*
X132081343Y-87354653D01*
X132081343Y-87553846D01*
X132112504Y-87750590D01*
X132112504Y-87750593D01*
X132174056Y-87940030D01*
X132250764Y-88090578D01*
X132264490Y-88117516D01*
X132381574Y-88278668D01*
X132522425Y-88419519D01*
X132683577Y-88536603D01*
X132753296Y-88572127D01*
X132835015Y-88613765D01*
X132885811Y-88661740D01*
X132902606Y-88729561D01*
X132880068Y-88795696D01*
X132835015Y-88834735D01*
X132683576Y-88911897D01*
X132600259Y-88972431D01*
X132522425Y-89028981D01*
X132522423Y-89028983D01*
X132522422Y-89028983D01*
X132381576Y-89169829D01*
X132381576Y-89169830D01*
X132381574Y-89169832D01*
X132331290Y-89239040D01*
X132264490Y-89330983D01*
X132174056Y-89508469D01*
X132112504Y-89697906D01*
X132112504Y-89697909D01*
X132081343Y-89894653D01*
X132081343Y-90093846D01*
X132112504Y-90290590D01*
X132112504Y-90290593D01*
X132174056Y-90480030D01*
X132250764Y-90630578D01*
X132264490Y-90657516D01*
X132381574Y-90818668D01*
X132522425Y-90959519D01*
X132683577Y-91076603D01*
X132693204Y-91081508D01*
X132835015Y-91153765D01*
X132885811Y-91201740D01*
X132902606Y-91269561D01*
X132880068Y-91335696D01*
X132835015Y-91374735D01*
X132683576Y-91451897D01*
X132591633Y-91518697D01*
X132522425Y-91568981D01*
X132522423Y-91568983D01*
X132522422Y-91568983D01*
X132381576Y-91709829D01*
X132381576Y-91709830D01*
X132381574Y-91709832D01*
X132331290Y-91779040D01*
X132264490Y-91870983D01*
X132174056Y-92048469D01*
X132112504Y-92237906D01*
X132112504Y-92237909D01*
X132081343Y-92434653D01*
X132081343Y-92633846D01*
X132112504Y-92830590D01*
X132112504Y-92830593D01*
X132174056Y-93020030D01*
X132250764Y-93170578D01*
X132264490Y-93197516D01*
X132381574Y-93358668D01*
X132522425Y-93499519D01*
X132683577Y-93616603D01*
X132753296Y-93652127D01*
X132835015Y-93693765D01*
X132885811Y-93741740D01*
X132902606Y-93809561D01*
X132880068Y-93875696D01*
X132835015Y-93914735D01*
X132683576Y-93991897D01*
X132591633Y-94058697D01*
X132522425Y-94108981D01*
X132522423Y-94108983D01*
X132522422Y-94108983D01*
X132381576Y-94249829D01*
X132381576Y-94249830D01*
X132381574Y-94249832D01*
X132331290Y-94319040D01*
X132264490Y-94410983D01*
X132174056Y-94588469D01*
X132112504Y-94777906D01*
X132112504Y-94777909D01*
X132081343Y-94974653D01*
X132081343Y-95173846D01*
X132112504Y-95370590D01*
X132112504Y-95370593D01*
X132174056Y-95560030D01*
X132174058Y-95560033D01*
X132264490Y-95737516D01*
X132381574Y-95898668D01*
X132522425Y-96039519D01*
X132683577Y-96156603D01*
X132753296Y-96192127D01*
X132835015Y-96233765D01*
X132885811Y-96281740D01*
X132902606Y-96349561D01*
X132880068Y-96415696D01*
X132835015Y-96454735D01*
X132683576Y-96531897D01*
X132591633Y-96598697D01*
X132522425Y-96648981D01*
X132522423Y-96648983D01*
X132522422Y-96648983D01*
X132381576Y-96789829D01*
X132381576Y-96789830D01*
X132381574Y-96789832D01*
X132331290Y-96859040D01*
X132264490Y-96950983D01*
X132174056Y-97128469D01*
X132112504Y-97317906D01*
X132112504Y-97317909D01*
X132081343Y-97514653D01*
X132081343Y-97713846D01*
X132112504Y-97910590D01*
X132112504Y-97910593D01*
X132174056Y-98100030D01*
X132245087Y-98239435D01*
X132264490Y-98277516D01*
X132381574Y-98438668D01*
X132522425Y-98579519D01*
X132683577Y-98696603D01*
X132753296Y-98732127D01*
X132835015Y-98773765D01*
X132885811Y-98821740D01*
X132902606Y-98889561D01*
X132880068Y-98955696D01*
X132835015Y-98994735D01*
X132683576Y-99071897D01*
X132591633Y-99138697D01*
X132522425Y-99188981D01*
X132522423Y-99188983D01*
X132522422Y-99188983D01*
X132381576Y-99329829D01*
X132381576Y-99329830D01*
X132381574Y-99329832D01*
X132331290Y-99399040D01*
X132264490Y-99490983D01*
X132174056Y-99668469D01*
X132112504Y-99857906D01*
X132112504Y-99857909D01*
X132081343Y-100054653D01*
X132081343Y-100253846D01*
X132112504Y-100450590D01*
X132112504Y-100450593D01*
X132174056Y-100640030D01*
X132174058Y-100640033D01*
X132264490Y-100817516D01*
X132381574Y-100978668D01*
X132522425Y-101119519D01*
X132683577Y-101236603D01*
X132753296Y-101272127D01*
X132835015Y-101313765D01*
X132885811Y-101361740D01*
X132902606Y-101429561D01*
X132880068Y-101495696D01*
X132835015Y-101534735D01*
X132683576Y-101611897D01*
X132591633Y-101678697D01*
X132522425Y-101728981D01*
X132522423Y-101728983D01*
X132522422Y-101728983D01*
X132381576Y-101869829D01*
X132381576Y-101869830D01*
X132381574Y-101869832D01*
X132331290Y-101939040D01*
X132264490Y-102030983D01*
X132174056Y-102208469D01*
X132112504Y-102397906D01*
X132112504Y-102397909D01*
X132081343Y-102594653D01*
X132081343Y-102793846D01*
X132112504Y-102990590D01*
X132112504Y-102990593D01*
X132174056Y-103180030D01*
X132174058Y-103180033D01*
X132264490Y-103357516D01*
X132381574Y-103518668D01*
X132522425Y-103659519D01*
X132683577Y-103776603D01*
X132753296Y-103812127D01*
X132835015Y-103853765D01*
X132885811Y-103901740D01*
X132902606Y-103969561D01*
X132880068Y-104035696D01*
X132835015Y-104074735D01*
X132683576Y-104151897D01*
X132591633Y-104218697D01*
X132522425Y-104268981D01*
X132522423Y-104268983D01*
X132522422Y-104268983D01*
X132381576Y-104409829D01*
X132381576Y-104409830D01*
X132381574Y-104409832D01*
X132331290Y-104479040D01*
X132264490Y-104570983D01*
X132174056Y-104748469D01*
X132112504Y-104937906D01*
X132112504Y-104937909D01*
X132081343Y-105134653D01*
X132081343Y-105333846D01*
X132112504Y-105530590D01*
X132112504Y-105530593D01*
X132174056Y-105720030D01*
X132174058Y-105720033D01*
X132264490Y-105897516D01*
X132381574Y-106058668D01*
X132522425Y-106199519D01*
X132683577Y-106316603D01*
X132753296Y-106352127D01*
X132835015Y-106393765D01*
X132885811Y-106441740D01*
X132902606Y-106509561D01*
X132880068Y-106575696D01*
X132835015Y-106614735D01*
X132683576Y-106691897D01*
X132591633Y-106758697D01*
X132522425Y-106808981D01*
X132522423Y-106808983D01*
X132522422Y-106808983D01*
X132381576Y-106949829D01*
X132381576Y-106949830D01*
X132381574Y-106949832D01*
X132331290Y-107019040D01*
X132264490Y-107110983D01*
X132174056Y-107288469D01*
X132112504Y-107477906D01*
X132112504Y-107477909D01*
X132081343Y-107674653D01*
X132081343Y-107873846D01*
X132112504Y-108070590D01*
X132112504Y-108070593D01*
X132174056Y-108260030D01*
X132210325Y-108331211D01*
X132264490Y-108437516D01*
X132381574Y-108598668D01*
X132522425Y-108739519D01*
X132683577Y-108856603D01*
X132721428Y-108875889D01*
X132835015Y-108933765D01*
X132885811Y-108981740D01*
X132902606Y-109049561D01*
X132880068Y-109115696D01*
X132835015Y-109154735D01*
X132683576Y-109231897D01*
X132652820Y-109254243D01*
X132522425Y-109348981D01*
X132522423Y-109348983D01*
X132522422Y-109348983D01*
X132381576Y-109489829D01*
X132381576Y-109489830D01*
X132381574Y-109489832D01*
X132370150Y-109505556D01*
X132264490Y-109650983D01*
X132174056Y-109828469D01*
X132112504Y-110017906D01*
X132112504Y-110017909D01*
X132081343Y-110214653D01*
X132081343Y-110413846D01*
X132112504Y-110610590D01*
X132112504Y-110610593D01*
X132174056Y-110800030D01*
X132261914Y-110972461D01*
X132264490Y-110977516D01*
X132381574Y-111138668D01*
X132522425Y-111279519D01*
X132683577Y-111396603D01*
X132851369Y-111482097D01*
X132861062Y-111487036D01*
X133050500Y-111548588D01*
X133050501Y-111548588D01*
X133050504Y-111548589D01*
X133247246Y-111579750D01*
X133247247Y-111579750D01*
X133446439Y-111579750D01*
X133446440Y-111579750D01*
X133643182Y-111548589D01*
X133643185Y-111548588D01*
X133643186Y-111548588D01*
X133832623Y-111487036D01*
X133832623Y-111487035D01*
X133832626Y-111487035D01*
X134010109Y-111396603D01*
X134171261Y-111279519D01*
X134312112Y-111138668D01*
X134429196Y-110977516D01*
X134519628Y-110800033D01*
X134521262Y-110795004D01*
X134581181Y-110610593D01*
X134581181Y-110610592D01*
X134581182Y-110610589D01*
X134612343Y-110413847D01*
X134612343Y-110214653D01*
X134581182Y-110017911D01*
X134581181Y-110017907D01*
X134581181Y-110017906D01*
X134519629Y-109828469D01*
X134505224Y-109800198D01*
X134429196Y-109650984D01*
X134312112Y-109489832D01*
X134171261Y-109348981D01*
X134010109Y-109231897D01*
X133858670Y-109154735D01*
X133807874Y-109106760D01*
X133791079Y-109038939D01*
X133813616Y-108972804D01*
X133858670Y-108933765D01*
X133867959Y-108929031D01*
X134010109Y-108856603D01*
X134171261Y-108739519D01*
X134312112Y-108598668D01*
X134429196Y-108437516D01*
X134519628Y-108260033D01*
X134545843Y-108179352D01*
X134581181Y-108070593D01*
X134581181Y-108070592D01*
X134581182Y-108070589D01*
X134612343Y-107873847D01*
X134612343Y-107674653D01*
X134581182Y-107477911D01*
X134581181Y-107477907D01*
X134581181Y-107477906D01*
X134519629Y-107288469D01*
X134429195Y-107110983D01*
X134415079Y-107091554D01*
X134312112Y-106949832D01*
X134171261Y-106808981D01*
X134010109Y-106691897D01*
X133858670Y-106614735D01*
X133807874Y-106566760D01*
X133791079Y-106498939D01*
X133813616Y-106432804D01*
X133858670Y-106393765D01*
X133867959Y-106389031D01*
X134010109Y-106316603D01*
X134171261Y-106199519D01*
X134312112Y-106058668D01*
X134429196Y-105897516D01*
X134519628Y-105720033D01*
X134581182Y-105530589D01*
X134612343Y-105333847D01*
X134612343Y-105134653D01*
X134581182Y-104937911D01*
X134581181Y-104937907D01*
X134581181Y-104937906D01*
X134519629Y-104748469D01*
X134429195Y-104570983D01*
X134312112Y-104409832D01*
X134171261Y-104268981D01*
X134010109Y-104151897D01*
X133858670Y-104074735D01*
X133807874Y-104026760D01*
X133791079Y-103958939D01*
X133813616Y-103892804D01*
X133858670Y-103853765D01*
X133867959Y-103849031D01*
X134010109Y-103776603D01*
X134171261Y-103659519D01*
X134312112Y-103518668D01*
X134429196Y-103357516D01*
X134519628Y-103180033D01*
X134581182Y-102990589D01*
X134612343Y-102793847D01*
X134612343Y-102594653D01*
X134581182Y-102397911D01*
X134581181Y-102397907D01*
X134581181Y-102397906D01*
X134519629Y-102208469D01*
X134429195Y-102030983D01*
X134312112Y-101869832D01*
X134171261Y-101728981D01*
X134010109Y-101611897D01*
X133858670Y-101534735D01*
X133807874Y-101486760D01*
X133791079Y-101418939D01*
X133813616Y-101352804D01*
X133858670Y-101313765D01*
X133867959Y-101309031D01*
X134010109Y-101236603D01*
X134171261Y-101119519D01*
X134312112Y-100978668D01*
X134429196Y-100817516D01*
X134519628Y-100640033D01*
X134581182Y-100450589D01*
X134612343Y-100253847D01*
X134612343Y-100054653D01*
X134581182Y-99857911D01*
X134581181Y-99857907D01*
X134581181Y-99857906D01*
X134519629Y-99668469D01*
X134429195Y-99490983D01*
X134312112Y-99329832D01*
X134171261Y-99188981D01*
X134010109Y-99071897D01*
X133858670Y-98994735D01*
X133849516Y-98986089D01*
X133837851Y-98981355D01*
X133824597Y-98962554D01*
X133807874Y-98946760D01*
X133804847Y-98934540D01*
X133797593Y-98924249D01*
X133796607Y-98901265D01*
X133791079Y-98878939D01*
X133795140Y-98867021D01*
X133794601Y-98854443D01*
X133806195Y-98834579D01*
X133813616Y-98812804D01*
X133824319Y-98803529D01*
X133829823Y-98794101D01*
X133858670Y-98773765D01*
X133873093Y-98766415D01*
X134010109Y-98696603D01*
X134010111Y-98696600D01*
X134011513Y-98695887D01*
X134013462Y-98694915D01*
X134963270Y-98232270D01*
X135017570Y-98219750D01*
X141227098Y-98219750D01*
X141294137Y-98239435D01*
X141314779Y-98256069D01*
X153058813Y-110000105D01*
X153058817Y-110000108D01*
X153161260Y-110068559D01*
X153161261Y-110068559D01*
X153161265Y-110068562D01*
X153226399Y-110095541D01*
X153275098Y-110115713D01*
X153295147Y-110119701D01*
X153357147Y-110132033D01*
X153395942Y-110139751D01*
X153395944Y-110139751D01*
X153525271Y-110139751D01*
X153525291Y-110139750D01*
X155469247Y-110139750D01*
X155524238Y-110152610D01*
X155554740Y-110167703D01*
X156378346Y-110575230D01*
X156429703Y-110622604D01*
X156447294Y-110690223D01*
X156425535Y-110756618D01*
X156371335Y-110800710D01*
X156351480Y-110807137D01*
X155671431Y-110965518D01*
X155643305Y-110968750D01*
X144554683Y-110968750D01*
X144517329Y-110962990D01*
X144512343Y-110961415D01*
X144465610Y-110946651D01*
X144092814Y-110828880D01*
X144091771Y-110828550D01*
X144087663Y-110827253D01*
X144081047Y-110824513D01*
X144075488Y-110823407D01*
X144070755Y-110821912D01*
X144070586Y-110821863D01*
X144070543Y-110821850D01*
X144044548Y-110814403D01*
X144043351Y-110814095D01*
X143963084Y-110800132D01*
X143955832Y-110799402D01*
X143952343Y-110798911D01*
X143926392Y-110793750D01*
X143915617Y-110793750D01*
X143907029Y-110792543D01*
X143882782Y-110781562D01*
X143857248Y-110774065D01*
X143851449Y-110767373D01*
X143843382Y-110763720D01*
X143828919Y-110741372D01*
X143811493Y-110721261D01*
X143810232Y-110712497D01*
X143805421Y-110705062D01*
X143805336Y-110678446D01*
X143801549Y-110652103D01*
X143805228Y-110644047D01*
X143805200Y-110635192D01*
X143819516Y-110612758D01*
X143830574Y-110588547D01*
X143838323Y-110583290D01*
X143842788Y-110576295D01*
X143861001Y-110567907D01*
X143883487Y-110552655D01*
X144388604Y-110376655D01*
X144429404Y-110369750D01*
X146973440Y-110369750D01*
X146993536Y-110371389D01*
X147195744Y-110404599D01*
X147676450Y-110483551D01*
X147721151Y-110488862D01*
X147721152Y-110488861D01*
X147726927Y-110489548D01*
X147726917Y-110489625D01*
X147740870Y-110491171D01*
X147758859Y-110494750D01*
X147758860Y-110494750D01*
X147936243Y-110494750D01*
X147936244Y-110494749D01*
X147994232Y-110483214D01*
X148110208Y-110460146D01*
X148110211Y-110460144D01*
X148110216Y-110460144D01*
X148274097Y-110392263D01*
X148421585Y-110293714D01*
X148547014Y-110168285D01*
X148645563Y-110020797D01*
X148646761Y-110017906D01*
X148697757Y-109894788D01*
X148713444Y-109856916D01*
X148714660Y-109850807D01*
X148739950Y-109723661D01*
X148748050Y-109682941D01*
X148748050Y-109505559D01*
X148748050Y-109505556D01*
X148748049Y-109505554D01*
X148713446Y-109331591D01*
X148713443Y-109331582D01*
X148645566Y-109167709D01*
X148645559Y-109167696D01*
X148547014Y-109020215D01*
X148547011Y-109020211D01*
X148421588Y-108894788D01*
X148421584Y-108894785D01*
X148274103Y-108796240D01*
X148274090Y-108796233D01*
X148110217Y-108728356D01*
X148110208Y-108728353D01*
X147936244Y-108693750D01*
X147936241Y-108693750D01*
X147758859Y-108693750D01*
X147716228Y-108702229D01*
X147694519Y-108704586D01*
X147676463Y-108704947D01*
X147676454Y-108704947D01*
X146993534Y-108817111D01*
X146973437Y-108818750D01*
X144453554Y-108818750D01*
X144403122Y-108808031D01*
X143332090Y-108331211D01*
X143278851Y-108285962D01*
X143258528Y-108219114D01*
X143277571Y-108151889D01*
X143309639Y-108117611D01*
X143318546Y-108111140D01*
X143484440Y-107945246D01*
X143622340Y-107755442D01*
X143728851Y-107546403D01*
X143801349Y-107323276D01*
X143838050Y-107091555D01*
X143838050Y-106856945D01*
X143801349Y-106625224D01*
X143763768Y-106509561D01*
X143728852Y-106402099D01*
X143724606Y-106393765D01*
X143622340Y-106193058D01*
X143524702Y-106058670D01*
X143484445Y-106003260D01*
X143484441Y-106003255D01*
X143318544Y-105837358D01*
X143318539Y-105837354D01*
X143128745Y-105699462D01*
X143128744Y-105699461D01*
X143128742Y-105699460D01*
X143024222Y-105646204D01*
X142919700Y-105592947D01*
X142696577Y-105520451D01*
X142580715Y-105502100D01*
X142464855Y-105483750D01*
X142230245Y-105483750D01*
X142153004Y-105495983D01*
X141998522Y-105520451D01*
X141775399Y-105592947D01*
X141566354Y-105699462D01*
X141376560Y-105837354D01*
X141376555Y-105837358D01*
X141210658Y-106003255D01*
X141210654Y-106003260D01*
X141072762Y-106193054D01*
X140966249Y-106402096D01*
X140964385Y-106406597D01*
X140964330Y-106406574D01*
X140958920Y-106419600D01*
X140265836Y-107773976D01*
X140243131Y-107805168D01*
X129890869Y-118157431D01*
X129829546Y-118190916D01*
X129803188Y-118193750D01*
X128883104Y-118193750D01*
X128821708Y-118177483D01*
X128035590Y-117729480D01*
X128027529Y-117726179D01*
X128019881Y-117720454D01*
X127948789Y-117693938D01*
X127947048Y-117693225D01*
X127946924Y-117693174D01*
X127914905Y-117680064D01*
X127914903Y-117680063D01*
X127914902Y-117680063D01*
X127909280Y-117678571D01*
X127897752Y-117674902D01*
X127885035Y-117670159D01*
X127885029Y-117670158D01*
X127825433Y-117663751D01*
X127825431Y-117663750D01*
X127825423Y-117663750D01*
X127825414Y-117663750D01*
X125869679Y-117663750D01*
X125869673Y-117663751D01*
X125810066Y-117670158D01*
X125675221Y-117720452D01*
X125667436Y-117724704D01*
X125667381Y-117724603D01*
X125663253Y-117727103D01*
X125663357Y-117727286D01*
X125659509Y-117729479D01*
X124873388Y-118177483D01*
X124811993Y-118193750D01*
X111823497Y-118193750D01*
X111775962Y-118184277D01*
X111736044Y-118167709D01*
X110680208Y-117729480D01*
X110539542Y-117671096D01*
X110511591Y-117654945D01*
X110377847Y-117552320D01*
X110377843Y-117552317D01*
X110377839Y-117552314D01*
X110333439Y-117526680D01*
X110167764Y-117431027D01*
X110167755Y-117431023D01*
X109943654Y-117338197D01*
X109709335Y-117275411D01*
X109468839Y-117243750D01*
X109468838Y-117243750D01*
X109226262Y-117243750D01*
X109226261Y-117243750D01*
X108985764Y-117275411D01*
X108751445Y-117338197D01*
X108527344Y-117431023D01*
X108527335Y-117431027D01*
X108317256Y-117552317D01*
X108124813Y-117699983D01*
X108124806Y-117699989D01*
X107953289Y-117871506D01*
X107953283Y-117871513D01*
X107805617Y-118063956D01*
X107684327Y-118274035D01*
X107684323Y-118274044D01*
X107591497Y-118498145D01*
X107528711Y-118732464D01*
X107512327Y-118856916D01*
X107497050Y-118972962D01*
X99848050Y-118972962D01*
X99848050Y-100054653D01*
X106681343Y-100054653D01*
X106681343Y-100253846D01*
X106712504Y-100450590D01*
X106712504Y-100450593D01*
X106774056Y-100640030D01*
X106774058Y-100640033D01*
X106864490Y-100817516D01*
X106981574Y-100978668D01*
X107122425Y-101119519D01*
X107283577Y-101236603D01*
X107353296Y-101272127D01*
X107435015Y-101313765D01*
X107485811Y-101361740D01*
X107502606Y-101429561D01*
X107480068Y-101495696D01*
X107435015Y-101534735D01*
X107283576Y-101611897D01*
X107191633Y-101678697D01*
X107122425Y-101728981D01*
X107122423Y-101728983D01*
X107122422Y-101728983D01*
X106981576Y-101869829D01*
X106981576Y-101869830D01*
X106981574Y-101869832D01*
X106931290Y-101939040D01*
X106864490Y-102030983D01*
X106774056Y-102208469D01*
X106712504Y-102397906D01*
X106712504Y-102397909D01*
X106681343Y-102594653D01*
X106681343Y-102793846D01*
X106712504Y-102990590D01*
X106712504Y-102990593D01*
X106774056Y-103180030D01*
X106774058Y-103180033D01*
X106864490Y-103357516D01*
X106981574Y-103518668D01*
X107122425Y-103659519D01*
X107283577Y-103776603D01*
X107353296Y-103812127D01*
X107435015Y-103853765D01*
X107485811Y-103901740D01*
X107502606Y-103969561D01*
X107480068Y-104035696D01*
X107435015Y-104074735D01*
X107283576Y-104151897D01*
X107191633Y-104218697D01*
X107122425Y-104268981D01*
X107122423Y-104268983D01*
X107122422Y-104268983D01*
X106981576Y-104409829D01*
X106981576Y-104409830D01*
X106981574Y-104409832D01*
X106931290Y-104479040D01*
X106864490Y-104570983D01*
X106774056Y-104748469D01*
X106712504Y-104937906D01*
X106712504Y-104937909D01*
X106681343Y-105134653D01*
X106681343Y-105333846D01*
X106712504Y-105530590D01*
X106712504Y-105530593D01*
X106774056Y-105720030D01*
X106774058Y-105720033D01*
X106864490Y-105897516D01*
X106981574Y-106058668D01*
X107122425Y-106199519D01*
X107283577Y-106316603D01*
X107353296Y-106352127D01*
X107435015Y-106393765D01*
X107485811Y-106441740D01*
X107502606Y-106509561D01*
X107480068Y-106575696D01*
X107435015Y-106614735D01*
X107283576Y-106691897D01*
X107191633Y-106758697D01*
X107122425Y-106808981D01*
X107122423Y-106808983D01*
X107122422Y-106808983D01*
X106981576Y-106949829D01*
X106981576Y-106949830D01*
X106981574Y-106949832D01*
X106931290Y-107019040D01*
X106864490Y-107110983D01*
X106774056Y-107288469D01*
X106712504Y-107477906D01*
X106712504Y-107477909D01*
X106681343Y-107674653D01*
X106681343Y-107873846D01*
X106712504Y-108070590D01*
X106712504Y-108070593D01*
X106774056Y-108260030D01*
X106810325Y-108331211D01*
X106864490Y-108437516D01*
X106981574Y-108598668D01*
X107122425Y-108739519D01*
X107283577Y-108856603D01*
X107321428Y-108875889D01*
X107435015Y-108933765D01*
X107485811Y-108981740D01*
X107502606Y-109049561D01*
X107480068Y-109115696D01*
X107435015Y-109154735D01*
X107283576Y-109231897D01*
X107252820Y-109254243D01*
X107122425Y-109348981D01*
X107122423Y-109348983D01*
X107122422Y-109348983D01*
X106981576Y-109489829D01*
X106981576Y-109489830D01*
X106981574Y-109489832D01*
X106970150Y-109505556D01*
X106864490Y-109650983D01*
X106774056Y-109828469D01*
X106712504Y-110017906D01*
X106712504Y-110017909D01*
X106681343Y-110214653D01*
X106681343Y-110413846D01*
X106712504Y-110610590D01*
X106712504Y-110610593D01*
X106774056Y-110800030D01*
X106861914Y-110972461D01*
X106864490Y-110977516D01*
X106981574Y-111138668D01*
X107122425Y-111279519D01*
X107283577Y-111396603D01*
X107451369Y-111482097D01*
X107461062Y-111487036D01*
X107650500Y-111548588D01*
X107650501Y-111548588D01*
X107650504Y-111548589D01*
X107847246Y-111579750D01*
X107847247Y-111579750D01*
X108046439Y-111579750D01*
X108046440Y-111579750D01*
X108142551Y-111564526D01*
X108161321Y-111563002D01*
X108181529Y-111562902D01*
X108361390Y-111536126D01*
X109469911Y-111371102D01*
X109488170Y-111369750D01*
X116908440Y-111369750D01*
X116928536Y-111371389D01*
X117082050Y-111396602D01*
X117611450Y-111483551D01*
X117656151Y-111488862D01*
X117656152Y-111488861D01*
X117661927Y-111489548D01*
X117661917Y-111489625D01*
X117675870Y-111491171D01*
X117693859Y-111494750D01*
X117693860Y-111494750D01*
X117871243Y-111494750D01*
X117871244Y-111494749D01*
X117929232Y-111483214D01*
X118045208Y-111460146D01*
X118045211Y-111460144D01*
X118045216Y-111460144D01*
X118209097Y-111392263D01*
X118356585Y-111293714D01*
X118482014Y-111168285D01*
X118580563Y-111020797D01*
X118648444Y-110856916D01*
X118653950Y-110829239D01*
X118680088Y-110697831D01*
X118683050Y-110682941D01*
X118683050Y-110505559D01*
X118683050Y-110505556D01*
X118683049Y-110505554D01*
X118648446Y-110331591D01*
X118648443Y-110331582D01*
X118580566Y-110167709D01*
X118580559Y-110167696D01*
X118482014Y-110020215D01*
X118482011Y-110020211D01*
X118356588Y-109894788D01*
X118356584Y-109894785D01*
X118209103Y-109796240D01*
X118209090Y-109796233D01*
X118045217Y-109728356D01*
X118045208Y-109728353D01*
X117871244Y-109693750D01*
X117871241Y-109693750D01*
X117693859Y-109693750D01*
X117651228Y-109702229D01*
X117629519Y-109704586D01*
X117611463Y-109704947D01*
X117611454Y-109704947D01*
X116928534Y-109817111D01*
X116908437Y-109818750D01*
X109595062Y-109818750D01*
X109529819Y-109800198D01*
X108647426Y-109254243D01*
X108626948Y-109242802D01*
X108626943Y-109242799D01*
X108619033Y-109238380D01*
X108610109Y-109231897D01*
X108458100Y-109154444D01*
X108457472Y-109154116D01*
X108432815Y-109130316D01*
X108407874Y-109106760D01*
X108407705Y-109106078D01*
X108407201Y-109105592D01*
X108399321Y-109072225D01*
X108391079Y-109038939D01*
X108391305Y-109038275D01*
X108391144Y-109037593D01*
X108402547Y-109005285D01*
X108413616Y-108972804D01*
X108414186Y-108972309D01*
X108414399Y-108971707D01*
X108419053Y-108968092D01*
X108458670Y-108933765D01*
X108467959Y-108929031D01*
X108610109Y-108856603D01*
X108771261Y-108739519D01*
X108912112Y-108598668D01*
X109029196Y-108437516D01*
X109119628Y-108260033D01*
X109145843Y-108179352D01*
X109181181Y-108070593D01*
X109181181Y-108070592D01*
X109181182Y-108070589D01*
X109212343Y-107873847D01*
X109212343Y-107674653D01*
X109181182Y-107477911D01*
X109181181Y-107477907D01*
X109181181Y-107477906D01*
X109119629Y-107288469D01*
X109029195Y-107110983D01*
X109015079Y-107091554D01*
X108912112Y-106949832D01*
X108771261Y-106808981D01*
X108610109Y-106691897D01*
X108458670Y-106614735D01*
X108407874Y-106566760D01*
X108391079Y-106498939D01*
X108413616Y-106432804D01*
X108458670Y-106393765D01*
X108467959Y-106389031D01*
X108610109Y-106316603D01*
X108771261Y-106199519D01*
X108912112Y-106058668D01*
X109029196Y-105897516D01*
X109119628Y-105720033D01*
X109181182Y-105530589D01*
X109212343Y-105333847D01*
X109212343Y-105134653D01*
X109181182Y-104937911D01*
X109181181Y-104937907D01*
X109181181Y-104937906D01*
X109119629Y-104748469D01*
X109029195Y-104570983D01*
X108912112Y-104409832D01*
X108771261Y-104268981D01*
X108610109Y-104151897D01*
X108458670Y-104074735D01*
X108407874Y-104026760D01*
X108391079Y-103958939D01*
X108413616Y-103892804D01*
X108458670Y-103853765D01*
X108467959Y-103849031D01*
X108610109Y-103776603D01*
X108771261Y-103659519D01*
X108912112Y-103518668D01*
X109029196Y-103357516D01*
X109119628Y-103180033D01*
X109181182Y-102990589D01*
X109212343Y-102793847D01*
X109212343Y-102594653D01*
X109181182Y-102397911D01*
X109181181Y-102397907D01*
X109181181Y-102397906D01*
X109119629Y-102208469D01*
X109029195Y-102030983D01*
X108912112Y-101869832D01*
X108771261Y-101728981D01*
X108610109Y-101611897D01*
X108458670Y-101534735D01*
X108407874Y-101486760D01*
X108391079Y-101418939D01*
X108413616Y-101352804D01*
X108458670Y-101313765D01*
X108467959Y-101309031D01*
X108610109Y-101236603D01*
X108771261Y-101119519D01*
X108912112Y-100978668D01*
X109029196Y-100817516D01*
X109119628Y-100640033D01*
X109181182Y-100450589D01*
X109212343Y-100253847D01*
X109212343Y-100054653D01*
X109181182Y-99857911D01*
X109181181Y-99857907D01*
X109181181Y-99857906D01*
X109119629Y-99668469D01*
X109029195Y-99490983D01*
X108912112Y-99329832D01*
X108771261Y-99188981D01*
X108610109Y-99071897D01*
X108432623Y-98981463D01*
X108243185Y-98919911D01*
X108051560Y-98889561D01*
X108046440Y-98888750D01*
X107847246Y-98888750D01*
X107842126Y-98889561D01*
X107650502Y-98919911D01*
X107650499Y-98919911D01*
X107461062Y-98981463D01*
X107283576Y-99071897D01*
X107191633Y-99138697D01*
X107122425Y-99188981D01*
X107122423Y-99188983D01*
X107122422Y-99188983D01*
X106981576Y-99329829D01*
X106981576Y-99329830D01*
X106981574Y-99329832D01*
X106931290Y-99399040D01*
X106864490Y-99490983D01*
X106774056Y-99668469D01*
X106712504Y-99857906D01*
X106712504Y-99857909D01*
X106681343Y-100054653D01*
X99848050Y-100054653D01*
X99848050Y-63781385D01*
X106681343Y-63781385D01*
X106681343Y-65407120D01*
X106681344Y-65407126D01*
X106687751Y-65466733D01*
X106738045Y-65601578D01*
X106738049Y-65601585D01*
X106824295Y-65716794D01*
X106824298Y-65716797D01*
X106939507Y-65803043D01*
X106939514Y-65803047D01*
X107074360Y-65853341D01*
X107074359Y-65853341D01*
X107081287Y-65854085D01*
X107133970Y-65859750D01*
X107166411Y-65859749D01*
X107233448Y-65879432D01*
X107279204Y-65932234D01*
X107289149Y-66001393D01*
X107260126Y-66064949D01*
X107239298Y-66084066D01*
X107122425Y-66168980D01*
X106981576Y-66309829D01*
X106981576Y-66309830D01*
X106981574Y-66309832D01*
X106931290Y-66379040D01*
X106864490Y-66470983D01*
X106774056Y-66648469D01*
X106712504Y-66837906D01*
X106712504Y-66837909D01*
X106681343Y-67034653D01*
X106681343Y-67233846D01*
X106712504Y-67430590D01*
X106712504Y-67430593D01*
X106774056Y-67620030D01*
X106823668Y-67717398D01*
X106864490Y-67797516D01*
X106981574Y-67958668D01*
X107122425Y-68099519D01*
X107283577Y-68216603D01*
X107293204Y-68221508D01*
X107435015Y-68293765D01*
X107485811Y-68341740D01*
X107502606Y-68409561D01*
X107480068Y-68475696D01*
X107435015Y-68514735D01*
X107283576Y-68591897D01*
X107191633Y-68658697D01*
X107122425Y-68708981D01*
X107122423Y-68708983D01*
X107122422Y-68708983D01*
X106981576Y-68849829D01*
X106981576Y-68849830D01*
X106981574Y-68849832D01*
X106931290Y-68919040D01*
X106864490Y-69010983D01*
X106774056Y-69188469D01*
X106712504Y-69377906D01*
X106712504Y-69377909D01*
X106681343Y-69574653D01*
X106681343Y-69773846D01*
X106712504Y-69970590D01*
X106712504Y-69970593D01*
X106774056Y-70160030D01*
X106774058Y-70160033D01*
X106864490Y-70337516D01*
X106981574Y-70498668D01*
X107122425Y-70639519D01*
X107283577Y-70756603D01*
X107353296Y-70792127D01*
X107435015Y-70833765D01*
X107485811Y-70881740D01*
X107502606Y-70949561D01*
X107480068Y-71015696D01*
X107435015Y-71054735D01*
X107283576Y-71131897D01*
X107191633Y-71198697D01*
X107122425Y-71248981D01*
X107122423Y-71248983D01*
X107122422Y-71248983D01*
X106981576Y-71389829D01*
X106981576Y-71389830D01*
X106981574Y-71389832D01*
X106931290Y-71459040D01*
X106864490Y-71550983D01*
X106774056Y-71728469D01*
X106712504Y-71917906D01*
X106712504Y-71917909D01*
X106681343Y-72114653D01*
X106681343Y-72313846D01*
X106712504Y-72510590D01*
X106712504Y-72510593D01*
X106774056Y-72700030D01*
X106774058Y-72700033D01*
X106864490Y-72877516D01*
X106981574Y-73038668D01*
X107122425Y-73179519D01*
X107283577Y-73296603D01*
X107353296Y-73332127D01*
X107435015Y-73373765D01*
X107485811Y-73421740D01*
X107502606Y-73489561D01*
X107480068Y-73555696D01*
X107435015Y-73594735D01*
X107283576Y-73671897D01*
X107191633Y-73738697D01*
X107122425Y-73788981D01*
X107122423Y-73788983D01*
X107122422Y-73788983D01*
X106981576Y-73929829D01*
X106981576Y-73929830D01*
X106981574Y-73929832D01*
X106931290Y-73999040D01*
X106864490Y-74090983D01*
X106774056Y-74268469D01*
X106712504Y-74457906D01*
X106712504Y-74457909D01*
X106681343Y-74654653D01*
X106681343Y-74853846D01*
X106712504Y-75050590D01*
X106712504Y-75050593D01*
X106774056Y-75240030D01*
X106774058Y-75240033D01*
X106864490Y-75417516D01*
X106981574Y-75578668D01*
X107122425Y-75719519D01*
X107283577Y-75836603D01*
X107353296Y-75872127D01*
X107435015Y-75913765D01*
X107485811Y-75961740D01*
X107502606Y-76029561D01*
X107480068Y-76095696D01*
X107435015Y-76134735D01*
X107283576Y-76211897D01*
X107191633Y-76278697D01*
X107122425Y-76328981D01*
X107122423Y-76328983D01*
X107122422Y-76328983D01*
X106981576Y-76469829D01*
X106981576Y-76469830D01*
X106981574Y-76469832D01*
X106954863Y-76506597D01*
X106864490Y-76630983D01*
X106774056Y-76808469D01*
X106712504Y-76997906D01*
X106712504Y-76997909D01*
X106681343Y-77194653D01*
X106681343Y-77393846D01*
X106712504Y-77590590D01*
X106712504Y-77590593D01*
X106774056Y-77780030D01*
X106815515Y-77861397D01*
X106864490Y-77957516D01*
X106981574Y-78118668D01*
X107122425Y-78259519D01*
X107283577Y-78376603D01*
X107353296Y-78412127D01*
X107435015Y-78453765D01*
X107485811Y-78501740D01*
X107502606Y-78569561D01*
X107480068Y-78635696D01*
X107435015Y-78674735D01*
X107283576Y-78751897D01*
X107241257Y-78782644D01*
X107122425Y-78868981D01*
X107122423Y-78868983D01*
X107122422Y-78868983D01*
X106981576Y-79009829D01*
X106981576Y-79009830D01*
X106981574Y-79009832D01*
X106940024Y-79067021D01*
X106864490Y-79170983D01*
X106774056Y-79348469D01*
X106712504Y-79537906D01*
X106712504Y-79537909D01*
X106681343Y-79734653D01*
X106681343Y-79933846D01*
X106712504Y-80130590D01*
X106712504Y-80130593D01*
X106774056Y-80320030D01*
X106774058Y-80320033D01*
X106864490Y-80497516D01*
X106981574Y-80658668D01*
X107122425Y-80799519D01*
X107283577Y-80916603D01*
X107353296Y-80952127D01*
X107435015Y-80993765D01*
X107485811Y-81041740D01*
X107502606Y-81109561D01*
X107480068Y-81175696D01*
X107435015Y-81214735D01*
X107283576Y-81291897D01*
X107191633Y-81358697D01*
X107122425Y-81408981D01*
X107122423Y-81408983D01*
X107122422Y-81408983D01*
X106981576Y-81549829D01*
X106981576Y-81549830D01*
X106981574Y-81549832D01*
X106931290Y-81619040D01*
X106864490Y-81710983D01*
X106774056Y-81888469D01*
X106712504Y-82077906D01*
X106712504Y-82077909D01*
X106681343Y-82274653D01*
X106681343Y-82473846D01*
X106712504Y-82670590D01*
X106712504Y-82670593D01*
X106774056Y-82860030D01*
X106850764Y-83010578D01*
X106864490Y-83037516D01*
X106981574Y-83198668D01*
X107122425Y-83339519D01*
X107283577Y-83456603D01*
X107353296Y-83492127D01*
X107435015Y-83533765D01*
X107485811Y-83581740D01*
X107502606Y-83649561D01*
X107480068Y-83715696D01*
X107435015Y-83754735D01*
X107283576Y-83831897D01*
X107191633Y-83898697D01*
X107122425Y-83948981D01*
X107122423Y-83948983D01*
X107122422Y-83948983D01*
X106981576Y-84089829D01*
X106981576Y-84089830D01*
X106981574Y-84089832D01*
X106931290Y-84159040D01*
X106864490Y-84250983D01*
X106774056Y-84428469D01*
X106712504Y-84617906D01*
X106712504Y-84617909D01*
X106681343Y-84814653D01*
X106681343Y-85013846D01*
X106712504Y-85210590D01*
X106712504Y-85210593D01*
X106774056Y-85400030D01*
X106774058Y-85400033D01*
X106864490Y-85577516D01*
X106981574Y-85738668D01*
X107122425Y-85879519D01*
X107283577Y-85996603D01*
X107344230Y-86027507D01*
X107435015Y-86073765D01*
X107485811Y-86121740D01*
X107502606Y-86189561D01*
X107480068Y-86255696D01*
X107435015Y-86294735D01*
X107283576Y-86371897D01*
X107191633Y-86438697D01*
X107122425Y-86488981D01*
X107122423Y-86488983D01*
X107122422Y-86488983D01*
X106981576Y-86629829D01*
X106981576Y-86629830D01*
X106981574Y-86629832D01*
X106931290Y-86699040D01*
X106864490Y-86790983D01*
X106774056Y-86968469D01*
X106712504Y-87157906D01*
X106712504Y-87157909D01*
X106681343Y-87354653D01*
X106681343Y-87553846D01*
X106712504Y-87750590D01*
X106712504Y-87750593D01*
X106774056Y-87940030D01*
X106850764Y-88090578D01*
X106864490Y-88117516D01*
X106981574Y-88278668D01*
X107122425Y-88419519D01*
X107283577Y-88536603D01*
X107353296Y-88572127D01*
X107435015Y-88613765D01*
X107485811Y-88661740D01*
X107502606Y-88729561D01*
X107480068Y-88795696D01*
X107435015Y-88834735D01*
X107283576Y-88911897D01*
X107200259Y-88972431D01*
X107122425Y-89028981D01*
X107122423Y-89028983D01*
X107122422Y-89028983D01*
X106981576Y-89169829D01*
X106981576Y-89169830D01*
X106981574Y-89169832D01*
X106931290Y-89239040D01*
X106864490Y-89330983D01*
X106774056Y-89508469D01*
X106712504Y-89697906D01*
X106712504Y-89697909D01*
X106681343Y-89894653D01*
X106681343Y-90093846D01*
X106712504Y-90290590D01*
X106712504Y-90290593D01*
X106774056Y-90480030D01*
X106850764Y-90630578D01*
X106864490Y-90657516D01*
X106981574Y-90818668D01*
X107122425Y-90959519D01*
X107283577Y-91076603D01*
X107293204Y-91081508D01*
X107435015Y-91153765D01*
X107485811Y-91201740D01*
X107502606Y-91269561D01*
X107480068Y-91335696D01*
X107435015Y-91374735D01*
X107283576Y-91451897D01*
X107191633Y-91518697D01*
X107122425Y-91568981D01*
X107122423Y-91568983D01*
X107122422Y-91568983D01*
X106981576Y-91709829D01*
X106981576Y-91709830D01*
X106981574Y-91709832D01*
X106931290Y-91779040D01*
X106864490Y-91870983D01*
X106774056Y-92048469D01*
X106712504Y-92237906D01*
X106712504Y-92237909D01*
X106681343Y-92434653D01*
X106681343Y-92633846D01*
X106712504Y-92830590D01*
X106712504Y-92830593D01*
X106774056Y-93020030D01*
X106850764Y-93170578D01*
X106864490Y-93197516D01*
X106981574Y-93358668D01*
X107122425Y-93499519D01*
X107283577Y-93616603D01*
X107353296Y-93652127D01*
X107435015Y-93693765D01*
X107485811Y-93741740D01*
X107502606Y-93809561D01*
X107480068Y-93875696D01*
X107435015Y-93914735D01*
X107283576Y-93991897D01*
X107191633Y-94058697D01*
X107122425Y-94108981D01*
X107122423Y-94108983D01*
X107122422Y-94108983D01*
X106981576Y-94249829D01*
X106981576Y-94249830D01*
X106981574Y-94249832D01*
X106931290Y-94319040D01*
X106864490Y-94410983D01*
X106774056Y-94588469D01*
X106712504Y-94777906D01*
X106712504Y-94777909D01*
X106681343Y-94974653D01*
X106681343Y-95173846D01*
X106712504Y-95370590D01*
X106712504Y-95370593D01*
X106774056Y-95560030D01*
X106774058Y-95560033D01*
X106864490Y-95737516D01*
X106981574Y-95898668D01*
X107122425Y-96039519D01*
X107283577Y-96156603D01*
X107435014Y-96233764D01*
X107461062Y-96247036D01*
X107650500Y-96308588D01*
X107650501Y-96308588D01*
X107650504Y-96308589D01*
X107847246Y-96339750D01*
X107847247Y-96339750D01*
X108046439Y-96339750D01*
X108046440Y-96339750D01*
X108243182Y-96308589D01*
X108243185Y-96308588D01*
X108243186Y-96308588D01*
X108432623Y-96247036D01*
X108432623Y-96247035D01*
X108432626Y-96247035D01*
X108610109Y-96156603D01*
X108771261Y-96039519D01*
X108912112Y-95898668D01*
X109029196Y-95737516D01*
X109119628Y-95560033D01*
X109181182Y-95370589D01*
X109212343Y-95173847D01*
X109212343Y-94974653D01*
X109181182Y-94777911D01*
X109181181Y-94777907D01*
X109181181Y-94777906D01*
X109119629Y-94588469D01*
X109061013Y-94473429D01*
X109029196Y-94410984D01*
X108912112Y-94249832D01*
X108771261Y-94108981D01*
X108610109Y-93991897D01*
X108458670Y-93914735D01*
X108407874Y-93866760D01*
X108391079Y-93798939D01*
X108413616Y-93732804D01*
X108458670Y-93693765D01*
X108467959Y-93689031D01*
X108610109Y-93616603D01*
X108771261Y-93499519D01*
X108912112Y-93358668D01*
X109029196Y-93197516D01*
X109119628Y-93020033D01*
X109181182Y-92830589D01*
X109212343Y-92633847D01*
X109212343Y-92434653D01*
X109181182Y-92237911D01*
X109181181Y-92237907D01*
X109181181Y-92237906D01*
X109119629Y-92048469D01*
X109029195Y-91870983D01*
X108912112Y-91709832D01*
X108771261Y-91568981D01*
X108610109Y-91451897D01*
X108458670Y-91374735D01*
X108407874Y-91326760D01*
X108391079Y-91258939D01*
X108413616Y-91192804D01*
X108458670Y-91153765D01*
X108467959Y-91149031D01*
X108610109Y-91076603D01*
X108771261Y-90959519D01*
X108912112Y-90818668D01*
X109029196Y-90657516D01*
X109119628Y-90480033D01*
X109181182Y-90290589D01*
X109212343Y-90093847D01*
X109212343Y-89894653D01*
X109181182Y-89697911D01*
X109181181Y-89697907D01*
X109181181Y-89697906D01*
X109119629Y-89508469D01*
X109069160Y-89409418D01*
X109029196Y-89330984D01*
X108912112Y-89169832D01*
X108771261Y-89028981D01*
X108610109Y-88911897D01*
X108458670Y-88834735D01*
X108407874Y-88786760D01*
X108391079Y-88718939D01*
X108413616Y-88652804D01*
X108458670Y-88613765D01*
X108467959Y-88609031D01*
X108610109Y-88536603D01*
X108771261Y-88419519D01*
X108912112Y-88278668D01*
X109029196Y-88117516D01*
X109119628Y-87940033D01*
X109181182Y-87750589D01*
X109212343Y-87553847D01*
X109212343Y-87354653D01*
X109181182Y-87157911D01*
X109181181Y-87157907D01*
X109181181Y-87157906D01*
X109119629Y-86968469D01*
X109059122Y-86849717D01*
X109029196Y-86790984D01*
X108912112Y-86629832D01*
X108771261Y-86488981D01*
X108610109Y-86371897D01*
X108476155Y-86303644D01*
X108458670Y-86294735D01*
X108407874Y-86246760D01*
X108391079Y-86178939D01*
X108413616Y-86112804D01*
X108458670Y-86073765D01*
X108467959Y-86069031D01*
X108610109Y-85996603D01*
X108771261Y-85879519D01*
X108912112Y-85738668D01*
X109029196Y-85577516D01*
X109119628Y-85400033D01*
X109132391Y-85360753D01*
X109181181Y-85210593D01*
X109181181Y-85210592D01*
X109181182Y-85210589D01*
X109212343Y-85013847D01*
X109212343Y-84814653D01*
X109181182Y-84617911D01*
X109181181Y-84617907D01*
X109181181Y-84617906D01*
X109119629Y-84428469D01*
X109029195Y-84250983D01*
X108912112Y-84089832D01*
X108771261Y-83948981D01*
X108610109Y-83831897D01*
X108458670Y-83754735D01*
X108407874Y-83706760D01*
X108391079Y-83638939D01*
X108413616Y-83572804D01*
X108458670Y-83533765D01*
X108467959Y-83529031D01*
X108610109Y-83456603D01*
X108771261Y-83339519D01*
X108912112Y-83198668D01*
X109029196Y-83037516D01*
X109119628Y-82860033D01*
X109181182Y-82670589D01*
X109212343Y-82473847D01*
X109212343Y-82274653D01*
X109181182Y-82077911D01*
X109181181Y-82077907D01*
X109181181Y-82077906D01*
X109119629Y-81888469D01*
X109029195Y-81710983D01*
X108912112Y-81549832D01*
X108771261Y-81408981D01*
X108610109Y-81291897D01*
X108458670Y-81214735D01*
X108407874Y-81166760D01*
X108391079Y-81098939D01*
X108413616Y-81032804D01*
X108458670Y-80993765D01*
X108467959Y-80989031D01*
X108610109Y-80916603D01*
X108771261Y-80799519D01*
X108912112Y-80658668D01*
X109029196Y-80497516D01*
X109119628Y-80320033D01*
X109181182Y-80130589D01*
X109212343Y-79933847D01*
X109212343Y-79734653D01*
X109181182Y-79537911D01*
X109181181Y-79537907D01*
X109181181Y-79537906D01*
X109119629Y-79348469D01*
X109088428Y-79287234D01*
X109029196Y-79170984D01*
X108912112Y-79009832D01*
X108771261Y-78868981D01*
X108610109Y-78751897D01*
X108458670Y-78674735D01*
X108407874Y-78626760D01*
X108391079Y-78558939D01*
X108413616Y-78492804D01*
X108458670Y-78453765D01*
X108467959Y-78449031D01*
X108610109Y-78376603D01*
X108771261Y-78259519D01*
X108912112Y-78118668D01*
X109029196Y-77957516D01*
X109119628Y-77780033D01*
X109181182Y-77590589D01*
X109212343Y-77393847D01*
X109212343Y-77194653D01*
X109181182Y-76997911D01*
X109181181Y-76997907D01*
X109181181Y-76997906D01*
X109119629Y-76808469D01*
X109065793Y-76702810D01*
X109029196Y-76630984D01*
X108912112Y-76469832D01*
X108771261Y-76328981D01*
X108610109Y-76211897D01*
X108458670Y-76134735D01*
X108407874Y-76086760D01*
X108391079Y-76018939D01*
X108413616Y-75952804D01*
X108458670Y-75913765D01*
X108468446Y-75908784D01*
X108610109Y-75836603D01*
X108771261Y-75719519D01*
X108912112Y-75578668D01*
X109029196Y-75417516D01*
X109119628Y-75240033D01*
X109181182Y-75050589D01*
X109212343Y-74853847D01*
X109212343Y-74654653D01*
X109181182Y-74457911D01*
X109181181Y-74457907D01*
X109181181Y-74457906D01*
X109119629Y-74268469D01*
X109029195Y-74090983D01*
X108912112Y-73929832D01*
X108771261Y-73788981D01*
X108610109Y-73671897D01*
X108458670Y-73594735D01*
X108407874Y-73546760D01*
X108391079Y-73478939D01*
X108413616Y-73412804D01*
X108458670Y-73373765D01*
X108467959Y-73369031D01*
X108610109Y-73296603D01*
X108771261Y-73179519D01*
X108912112Y-73038668D01*
X109029196Y-72877516D01*
X109119628Y-72700033D01*
X109181182Y-72510589D01*
X109212343Y-72313847D01*
X109212343Y-72114653D01*
X109181182Y-71917911D01*
X109181181Y-71917907D01*
X109181181Y-71917906D01*
X109119629Y-71728469D01*
X109029195Y-71550983D01*
X108912112Y-71389832D01*
X108771261Y-71248981D01*
X108610109Y-71131897D01*
X108458670Y-71054735D01*
X108407874Y-71006760D01*
X108391079Y-70938939D01*
X108413616Y-70872804D01*
X108458670Y-70833765D01*
X108467959Y-70829031D01*
X108610109Y-70756603D01*
X108771261Y-70639519D01*
X108912112Y-70498668D01*
X109029196Y-70337516D01*
X109119628Y-70160033D01*
X109181182Y-69970589D01*
X109212343Y-69773847D01*
X109212343Y-69574653D01*
X109181182Y-69377911D01*
X109181181Y-69377907D01*
X109181181Y-69377906D01*
X109119629Y-69188469D01*
X109029195Y-69010983D01*
X108912112Y-68849832D01*
X108771261Y-68708981D01*
X108610109Y-68591897D01*
X108458670Y-68514735D01*
X108407874Y-68466760D01*
X108391079Y-68398939D01*
X108413616Y-68332804D01*
X108458670Y-68293765D01*
X108467959Y-68289031D01*
X108610109Y-68216603D01*
X108771261Y-68099519D01*
X108912112Y-67958668D01*
X109029196Y-67797516D01*
X109119628Y-67620033D01*
X109150209Y-67525915D01*
X109181181Y-67430593D01*
X109181181Y-67430592D01*
X109181182Y-67430589D01*
X109212343Y-67233847D01*
X109212343Y-67034653D01*
X109181182Y-66837911D01*
X109181181Y-66837907D01*
X109181181Y-66837906D01*
X109119629Y-66648469D01*
X109119628Y-66648467D01*
X109029196Y-66470984D01*
X108912112Y-66309832D01*
X108771261Y-66168981D01*
X108654386Y-66084066D01*
X108640289Y-66065785D01*
X108622862Y-66050641D01*
X108619356Y-66038638D01*
X108611721Y-66028737D01*
X108609745Y-66005736D01*
X108603272Y-65983574D01*
X108606811Y-65971580D01*
X108605742Y-65959124D01*
X108616514Y-65938707D01*
X108623051Y-65916563D01*
X108632513Y-65908387D01*
X108638348Y-65897329D01*
X108658449Y-65885976D01*
X108675920Y-65870882D01*
X108690948Y-65867623D01*
X108699186Y-65862972D01*
X108709798Y-65860986D01*
X108718488Y-65859749D01*
X108759715Y-65859749D01*
X108819326Y-65853341D01*
X108848550Y-65842440D01*
X108861446Y-65839414D01*
X108879296Y-65831293D01*
X108887268Y-65827999D01*
X108952571Y-65803644D01*
X108954172Y-65803047D01*
X108954172Y-65803046D01*
X108954174Y-65803046D01*
X108963197Y-65796290D01*
X108986181Y-65782676D01*
X108992415Y-65779842D01*
X109602088Y-65389333D01*
X109668969Y-65369750D01*
X110182311Y-65369750D01*
X110196718Y-65371169D01*
X110196755Y-65370803D01*
X110202818Y-65371400D01*
X110202820Y-65371400D01*
X111422281Y-65371400D01*
X111422282Y-65371399D01*
X111572105Y-65341598D01*
X111713237Y-65283139D01*
X111840252Y-65198270D01*
X112964638Y-64073884D01*
X114132454Y-62906069D01*
X114193777Y-62872584D01*
X114220135Y-62869750D01*
X137474966Y-62869750D01*
X137542005Y-62889435D01*
X137562647Y-62906069D01*
X140353194Y-65696617D01*
X140353198Y-65696620D01*
X140480206Y-65781485D01*
X140480212Y-65781488D01*
X140480213Y-65781489D01*
X140621345Y-65839948D01*
X140760477Y-65867623D01*
X140771165Y-65869749D01*
X140771169Y-65869750D01*
X140771170Y-65869750D01*
X140923930Y-65869750D01*
X141130814Y-65869750D01*
X141155004Y-65872132D01*
X141181164Y-65877336D01*
X141268705Y-65894750D01*
X141268708Y-65894750D01*
X141426394Y-65894750D01*
X141426395Y-65894749D01*
X141581047Y-65863987D01*
X141726729Y-65803644D01*
X141857839Y-65716039D01*
X141969339Y-65604539D01*
X142056944Y-65473429D01*
X142117287Y-65327747D01*
X142148050Y-65173092D01*
X142148050Y-65015408D01*
X142148050Y-65015405D01*
X142148049Y-65015403D01*
X142125362Y-64901349D01*
X142117287Y-64860753D01*
X142117285Y-64860748D01*
X142056947Y-64715077D01*
X142056940Y-64715064D01*
X141969339Y-64583961D01*
X141969336Y-64583957D01*
X141857842Y-64472463D01*
X141857838Y-64472460D01*
X141726735Y-64384859D01*
X141726722Y-64384852D01*
X141581051Y-64324514D01*
X141581039Y-64324511D01*
X141426395Y-64293750D01*
X141426392Y-64293750D01*
X141268708Y-64293750D01*
X141229504Y-64301548D01*
X141159912Y-64295319D01*
X141117633Y-64267611D01*
X138341905Y-61491882D01*
X138341901Y-61491879D01*
X138214893Y-61407014D01*
X138214884Y-61407009D01*
X138073755Y-61348552D01*
X138073747Y-61348550D01*
X137923934Y-61318750D01*
X137923930Y-61318750D01*
X113771170Y-61318750D01*
X113771165Y-61318750D01*
X113621352Y-61348550D01*
X113621344Y-61348552D01*
X113480210Y-61407011D01*
X113353201Y-61491876D01*
X113353193Y-61491882D01*
X111060997Y-63784081D01*
X110999674Y-63817566D01*
X110973316Y-63820400D01*
X110374439Y-63820400D01*
X110360031Y-63818980D01*
X110359995Y-63819347D01*
X110353933Y-63818750D01*
X110353930Y-63818750D01*
X109668970Y-63818750D01*
X109602089Y-63799167D01*
X108992418Y-63408658D01*
X108986093Y-63405777D01*
X108986093Y-63405776D01*
X108973907Y-63400226D01*
X108954174Y-63385454D01*
X108884047Y-63359297D01*
X108880058Y-63357481D01*
X108861944Y-63349231D01*
X108861926Y-63349224D01*
X108855634Y-63347380D01*
X108853492Y-63346874D01*
X108838706Y-63342387D01*
X108819325Y-63335158D01*
X108819326Y-63335158D01*
X108759726Y-63328751D01*
X108759724Y-63328750D01*
X108759716Y-63328750D01*
X108759707Y-63328750D01*
X107133972Y-63328750D01*
X107133966Y-63328751D01*
X107074359Y-63335158D01*
X106939514Y-63385452D01*
X106939507Y-63385456D01*
X106824298Y-63471702D01*
X106824295Y-63471705D01*
X106738049Y-63586914D01*
X106738045Y-63586921D01*
X106687751Y-63721767D01*
X106681344Y-63781366D01*
X106681343Y-63781385D01*
X99848050Y-63781385D01*
X99848050Y-55972961D01*
X136997050Y-55972961D01*
X136997050Y-56215538D01*
X137028711Y-56456035D01*
X137091497Y-56690354D01*
X137184323Y-56914455D01*
X137184326Y-56914462D01*
X137305614Y-57124539D01*
X137305616Y-57124542D01*
X137305617Y-57124543D01*
X137453283Y-57316986D01*
X137453289Y-57316993D01*
X137624806Y-57488510D01*
X137624812Y-57488515D01*
X137817261Y-57636186D01*
X138027338Y-57757474D01*
X138251450Y-57850304D01*
X138485761Y-57913088D01*
X138666136Y-57936834D01*
X138726261Y-57944750D01*
X138726262Y-57944750D01*
X138968839Y-57944750D01*
X139016938Y-57938417D01*
X139209339Y-57913088D01*
X139443650Y-57850304D01*
X139667762Y-57757474D01*
X139877839Y-57636186D01*
X140070288Y-57488515D01*
X140241815Y-57316988D01*
X140389486Y-57124539D01*
X140510774Y-56914462D01*
X140603604Y-56690350D01*
X140666388Y-56456039D01*
X140698050Y-56215538D01*
X140698050Y-55972962D01*
X140698050Y-55972961D01*
X141997050Y-55972961D01*
X141997050Y-56215538D01*
X142028711Y-56456035D01*
X142091497Y-56690354D01*
X142184323Y-56914455D01*
X142184326Y-56914462D01*
X142305614Y-57124539D01*
X142305616Y-57124542D01*
X142305617Y-57124543D01*
X142453283Y-57316986D01*
X142453289Y-57316993D01*
X142624806Y-57488510D01*
X142624812Y-57488515D01*
X142817261Y-57636186D01*
X143027338Y-57757474D01*
X143251450Y-57850304D01*
X143485761Y-57913088D01*
X143666136Y-57936834D01*
X143726261Y-57944750D01*
X143726262Y-57944750D01*
X143968839Y-57944750D01*
X144008921Y-57939473D01*
X144209339Y-57913088D01*
X144269193Y-57897049D01*
X144301382Y-57892824D01*
X145322196Y-57893657D01*
X145389220Y-57913396D01*
X145409776Y-57929976D01*
X149898086Y-62418285D01*
X150023515Y-62543714D01*
X150171003Y-62642263D01*
X150219002Y-62662145D01*
X150334884Y-62710145D01*
X150508854Y-62744749D01*
X150508858Y-62744750D01*
X150508859Y-62744750D01*
X152308643Y-62744750D01*
X152308644Y-62744749D01*
X152366632Y-62733214D01*
X152482608Y-62710146D01*
X152482611Y-62710144D01*
X152482616Y-62710144D01*
X152646497Y-62642263D01*
X152793985Y-62543714D01*
X152919414Y-62418285D01*
X153017963Y-62270797D01*
X153085844Y-62106916D01*
X153120450Y-61932941D01*
X153120450Y-61755559D01*
X153120450Y-61755556D01*
X153120449Y-61755554D01*
X153085846Y-61581591D01*
X153085843Y-61581582D01*
X153017966Y-61417709D01*
X153017959Y-61417696D01*
X152919414Y-61270215D01*
X152919411Y-61270211D01*
X152793988Y-61144788D01*
X152793984Y-61144785D01*
X152646503Y-61046240D01*
X152646490Y-61046233D01*
X152482617Y-60978356D01*
X152482608Y-60978353D01*
X152308644Y-60943750D01*
X152308641Y-60943750D01*
X151021911Y-60943750D01*
X150954872Y-60924065D01*
X150934230Y-60907431D01*
X146539224Y-56512424D01*
X146522113Y-56491035D01*
X146519040Y-56486177D01*
X146519036Y-56486172D01*
X146287911Y-56215538D01*
X145548876Y-55350172D01*
X145528610Y-55317100D01*
X145510774Y-55274038D01*
X145389486Y-55063961D01*
X145241815Y-54871512D01*
X145241810Y-54871506D01*
X145070293Y-54699989D01*
X145070286Y-54699983D01*
X144877843Y-54552317D01*
X144877842Y-54552316D01*
X144877839Y-54552314D01*
X144667762Y-54431026D01*
X144667750Y-54431020D01*
X144443653Y-54338197D01*
X144443651Y-54338196D01*
X144443650Y-54338196D01*
X144258192Y-54288501D01*
X144242835Y-54283288D01*
X144223818Y-54275411D01*
X144110216Y-54228355D01*
X144110208Y-54228353D01*
X143936246Y-54193750D01*
X143936242Y-54193750D01*
X143758858Y-54193750D01*
X143758853Y-54193750D01*
X143584891Y-54228353D01*
X143584879Y-54228356D01*
X143452262Y-54283288D01*
X143436905Y-54288501D01*
X143251455Y-54338194D01*
X143251448Y-54338196D01*
X143027349Y-54431020D01*
X143027335Y-54431027D01*
X142817256Y-54552317D01*
X142624813Y-54699983D01*
X142624806Y-54699989D01*
X142453289Y-54871506D01*
X142453283Y-54871513D01*
X142305617Y-55063956D01*
X142184327Y-55274035D01*
X142184323Y-55274044D01*
X142091497Y-55498145D01*
X142028711Y-55732464D01*
X141997050Y-55972961D01*
X140698050Y-55972961D01*
X140666388Y-55732461D01*
X140603604Y-55498150D01*
X140510774Y-55274038D01*
X140389486Y-55063961D01*
X140241815Y-54871512D01*
X140241810Y-54871506D01*
X140070293Y-54699989D01*
X140070286Y-54699983D01*
X139877843Y-54552317D01*
X139877842Y-54552316D01*
X139877839Y-54552314D01*
X139667762Y-54431026D01*
X139618191Y-54410493D01*
X139443654Y-54338197D01*
X139209335Y-54275411D01*
X138968839Y-54243750D01*
X138968838Y-54243750D01*
X138726262Y-54243750D01*
X138726261Y-54243750D01*
X138485764Y-54275411D01*
X138251445Y-54338197D01*
X138027344Y-54431023D01*
X138027335Y-54431027D01*
X137817256Y-54552317D01*
X137624813Y-54699983D01*
X137624806Y-54699989D01*
X137453289Y-54871506D01*
X137453283Y-54871513D01*
X137305617Y-55063956D01*
X137184327Y-55274035D01*
X137184323Y-55274044D01*
X137091497Y-55498145D01*
X137028711Y-55732464D01*
X136997050Y-55972961D01*
X99848050Y-55972961D01*
X99848050Y-53987963D01*
X100997050Y-53987963D01*
X100997050Y-54200536D01*
X101030303Y-54410489D01*
X101095994Y-54612664D01*
X101192501Y-54802070D01*
X101317440Y-54974036D01*
X101467763Y-55124359D01*
X101639729Y-55249298D01*
X101639731Y-55249299D01*
X101639734Y-55249301D01*
X101829138Y-55345807D01*
X102031307Y-55411496D01*
X102241263Y-55444750D01*
X102241264Y-55444750D01*
X102453836Y-55444750D01*
X102453837Y-55444750D01*
X102663793Y-55411496D01*
X102865962Y-55345807D01*
X103055366Y-55249301D01*
X103077339Y-55233336D01*
X103227336Y-55124359D01*
X103227338Y-55124356D01*
X103227342Y-55124354D01*
X103377654Y-54974042D01*
X103377656Y-54974038D01*
X103377659Y-54974036D01*
X103502598Y-54802070D01*
X103502597Y-54802070D01*
X103502601Y-54802066D01*
X103599107Y-54612662D01*
X103664796Y-54410493D01*
X103698050Y-54200537D01*
X103698050Y-53987963D01*
X165497050Y-53987963D01*
X165497050Y-54200536D01*
X165530303Y-54410489D01*
X165595994Y-54612664D01*
X165692501Y-54802070D01*
X165817440Y-54974036D01*
X165967763Y-55124359D01*
X166139729Y-55249298D01*
X166139731Y-55249299D01*
X166139734Y-55249301D01*
X166329138Y-55345807D01*
X166531307Y-55411496D01*
X166741263Y-55444750D01*
X166741264Y-55444750D01*
X166953836Y-55444750D01*
X166953837Y-55444750D01*
X167163793Y-55411496D01*
X167365962Y-55345807D01*
X167555366Y-55249301D01*
X167577339Y-55233336D01*
X167727336Y-55124359D01*
X167727338Y-55124356D01*
X167727342Y-55124354D01*
X167877654Y-54974042D01*
X167877656Y-54974038D01*
X167877659Y-54974036D01*
X168002598Y-54802070D01*
X168002597Y-54802070D01*
X168002601Y-54802066D01*
X168099107Y-54612662D01*
X168164796Y-54410493D01*
X168198050Y-54200537D01*
X168198050Y-53987963D01*
X168164796Y-53778007D01*
X168099107Y-53575838D01*
X168002601Y-53386434D01*
X168002599Y-53386431D01*
X168002598Y-53386429D01*
X167877659Y-53214463D01*
X167727336Y-53064140D01*
X167555370Y-52939201D01*
X167365964Y-52842694D01*
X167365963Y-52842693D01*
X167365962Y-52842693D01*
X167163793Y-52777004D01*
X167163791Y-52777003D01*
X167163790Y-52777003D01*
X167002507Y-52751458D01*
X166953837Y-52743750D01*
X166741263Y-52743750D01*
X166692592Y-52751458D01*
X166531310Y-52777003D01*
X166329135Y-52842694D01*
X166139729Y-52939201D01*
X165967763Y-53064140D01*
X165817440Y-53214463D01*
X165692501Y-53386429D01*
X165595994Y-53575835D01*
X165530303Y-53778010D01*
X165497050Y-53987963D01*
X103698050Y-53987963D01*
X103664796Y-53778007D01*
X103599107Y-53575838D01*
X103502601Y-53386434D01*
X103502599Y-53386431D01*
X103502598Y-53386429D01*
X103377659Y-53214463D01*
X103227336Y-53064140D01*
X103055370Y-52939201D01*
X102865964Y-52842694D01*
X102865963Y-52842693D01*
X102865962Y-52842693D01*
X102663793Y-52777004D01*
X102663791Y-52777003D01*
X102663790Y-52777003D01*
X102502507Y-52751458D01*
X102453837Y-52743750D01*
X102241263Y-52743750D01*
X102192592Y-52751458D01*
X102031310Y-52777003D01*
X101829135Y-52842694D01*
X101639729Y-52939201D01*
X101467763Y-53064140D01*
X101317440Y-53214463D01*
X101192501Y-53386429D01*
X101095994Y-53575835D01*
X101030303Y-53778010D01*
X100997050Y-53987963D01*
X99848050Y-53987963D01*
X99848050Y-51718750D01*
X99867735Y-51651711D01*
X99920539Y-51605956D01*
X99972050Y-51594750D01*
X169223050Y-51594750D01*
X169290089Y-51614435D01*
G37*
%TD.AperFunction*%
%TD*%
M02*
