M48
; DRILL file {KiCad 8.0.7} date 2025-01-07T13:33:49+0100
; FORMAT={-:-/ absolute / inch / decimal}
; #@! TF.CreationDate,2025-01-07T13:33:49+01:00
; #@! TF.GenerationSoftware,Kicad,Pcbnew,8.0.7
; #@! TF.FileFunction,Plated,1,2,PTH
FMAT,2
INCH
; #@! TA.AperFunction,Plated,PTH,ViaDrill
T1C0.0118
; #@! TA.AperFunction,Plated,PTH,ViaDrill
T2C0.0157
; #@! TA.AperFunction,Plated,PTH,ComponentDrill
T3C0.0394
; #@! TA.AperFunction,Plated,PTH,ComponentDrill
T4C0.0402
; #@! TA.AperFunction,Plated,PTH,ComponentDrill
T5C0.0488
; #@! TA.AperFunction,Plated,PTH,ComponentDrill
T6C0.0520
; #@! TA.AperFunction,Plated,PTH,ComponentDrill
T7C0.0709
%
G90
G05
T1
X5.3345Y-3.5289
X5.6645Y-4.5243
X5.6731Y-5.125
X5.7027Y-4.9742
X5.7568Y-4.7348
X5.7869Y-4.6742
X5.8747Y-4.8415
X5.9487Y-3.7006
X5.9929Y-2.4348
X6.0251Y-2.5513
X6.1357Y-4.9275
T2
X4.6371Y-4.2631
X5.8208Y-4.4742
X6.0858Y-4.8174
T3
X5.8544Y-3.2289
X5.8544Y-3.3289
X5.8544Y-3.4289
X5.8544Y-3.5289
X5.8544Y-3.6289
T4
X4.2499Y-2.4513
X4.2499Y-2.5513
X4.2499Y-2.6513
X4.2499Y-2.7513
X4.2499Y-2.8513
X4.2499Y-2.9513
X4.2499Y-3.0513
X4.2499Y-3.1513
X4.2499Y-3.2513
X4.2499Y-3.3513
X4.2499Y-3.4513
X4.2499Y-3.5513
X4.2499Y-3.6513
X4.2499Y-3.7513
X4.2499Y-3.8513
X4.2499Y-3.9513
X4.2499Y-4.0513
X4.2499Y-4.1513
X4.2499Y-4.2513
X5.2499Y-2.4513
X5.2499Y-2.5513
X5.2499Y-2.6513
X5.2499Y-2.7513
X5.2499Y-2.8513
X5.2499Y-2.9513
X5.2499Y-3.0513
X5.2499Y-3.1513
X5.2499Y-3.2513
X5.2499Y-3.3513
X5.2499Y-3.4513
X5.2499Y-3.5513
X5.2499Y-3.6513
X5.2499Y-3.7513
X5.2499Y-3.8513
X5.2499Y-3.9513
X5.2499Y-4.0513
X5.2499Y-4.1513
X5.2499Y-4.2513
T5
X4.994Y-4.6887
X4.994Y-4.7888
X4.994Y-4.8887
T6
X5.6042Y-4.3742
X5.6042Y-4.4742
X5.6042Y-4.5742
X5.6042Y-4.6742
X5.6042Y-4.7742
X5.6042Y-4.8742
X5.6042Y-4.9742
X5.6042Y-5.0742
X6.2042Y-4.3742
X6.2042Y-4.4742
X6.2042Y-4.5742
X6.2042Y-4.6742
X6.2042Y-4.7742
X6.2042Y-4.8742
X6.2042Y-4.9742
X6.2042Y-5.0742
T7
X4.305Y-4.6887
X4.305Y-4.8856
X6.7066Y-2.4348
X6.7066Y-2.6317
X6.7066Y-4.738
X6.7066Y-4.9348
M30
