%TF.GenerationSoftware,KiCad,Pcbnew,9.0.1*%
%TF.CreationDate,2025-04-18T16:29:56+02:00*%
%TF.ProjectId,Pendulo_Invertido,50656e64-756c-46f5-9f49-6e7665727469,rev?*%
%TF.SameCoordinates,Original*%
%TF.FileFunction,Copper,L2,Bot*%
%TF.FilePolarity,Positive*%
%FSLAX46Y46*%
G04 Gerber Fmt 4.6, Leading zero omitted, Abs format (unit mm)*
G04 Created by KiCad (PCBNEW 9.0.1) date 2025-04-18 16:29:56*
%MOMM*%
%LPD*%
G01*
G04 APERTURE LIST*
%TA.AperFunction,ComponentPad*%
%ADD10R,1.508000X1.508000*%
%TD*%
%TA.AperFunction,ComponentPad*%
%ADD11C,1.980000*%
%TD*%
%TA.AperFunction,ComponentPad*%
%ADD12R,1.860000X1.860000*%
%TD*%
%TA.AperFunction,ComponentPad*%
%ADD13C,1.860000*%
%TD*%
%TA.AperFunction,ComponentPad*%
%ADD14C,2.700000*%
%TD*%
%TA.AperFunction,ComponentPad*%
%ADD15R,1.530000X1.530000*%
%TD*%
%TA.AperFunction,ComponentPad*%
%ADD16C,1.530000*%
%TD*%
%TA.AperFunction,ViaPad*%
%ADD17C,0.600000*%
%TD*%
%TA.AperFunction,ViaPad*%
%ADD18C,0.800000*%
%TD*%
%TA.AperFunction,Conductor*%
%ADD19C,0.800000*%
%TD*%
%TA.AperFunction,Conductor*%
%ADD20C,0.200000*%
%TD*%
%TA.AperFunction,Conductor*%
%ADD21C,0.250000*%
%TD*%
%TA.AperFunction,Conductor*%
%ADD22C,0.550000*%
%TD*%
G04 APERTURE END LIST*
D10*
%TO.P,SEN0142,1,VIN*%
%TO.N,+3.3V*%
X148702550Y-82014250D03*
%TO.P,SEN0142,2,GND*%
%TO.N,GND*%
X148702550Y-84554250D03*
%TO.P,SEN0142,3,SDA*%
%TO.N,Net-(M1-SDA)*%
X148702550Y-87094250D03*
%TO.P,SEN0142,4,SCL*%
%TO.N,Net-(M1-SCL)*%
X148702550Y-89634250D03*
%TO.P,SEN0142,5,INT*%
%TO.N,unconnected-(M1-INT-Pad5)*%
X148702550Y-92174250D03*
%TD*%
D11*
%TO.P,ROB-1445,1,VM*%
%TO.N,+6V*%
X142347550Y-106974250D03*
%TO.P,ROB-1445,2,VCC*%
%TO.N,+3.3V*%
X142347550Y-109514250D03*
%TO.P,ROB-1445,3,GND*%
%TO.N,GND*%
X142347550Y-112054250D03*
%TO.P,ROB-1445,4,A01*%
%TO.N,Net-(U2-A01)*%
X142347550Y-114594250D03*
%TO.P,ROB-1445,5,A02*%
%TO.N,Net-(U2-A02)*%
X142347550Y-117134250D03*
%TO.P,ROB-1445,6,B02*%
%TO.N,Net-(U2-B02)*%
X142347550Y-119674250D03*
%TO.P,ROB-1445,7,B01*%
%TO.N,Net-(U2-B01)*%
X142347550Y-122214250D03*
%TO.P,ROB-1445,8,GND*%
%TO.N,GND*%
X142347550Y-124754250D03*
%TO.P,ROB-1445,9,GND*%
X157587550Y-124754250D03*
%TO.P,ROB-1445,10,PWMB*%
%TO.N,Net-(U1-IO16)*%
X157587550Y-122214250D03*
%TO.P,ROB-1445,11,BI2*%
%TO.N,Net-(U1-IO17)*%
X157587550Y-119674250D03*
%TO.P,ROB-1445,12,BI1*%
%TO.N,Net-(U1-IO5)*%
X157587550Y-117134250D03*
%TO.P,ROB-1445,13,STBY*%
%TO.N,Net-(U1-IO18)*%
X157587550Y-114594250D03*
%TO.P,ROB-1445,14,AI1*%
%TO.N,Net-(U1-IO4)*%
X157587550Y-112054250D03*
%TO.P,ROB-1445,15,AI2*%
%TO.N,Net-(U1-IO0)*%
X157587550Y-109514250D03*
%TO.P,ROB-1445,16,PWMA*%
%TO.N,Net-(U1-IO23)*%
X157587550Y-106974250D03*
%TD*%
D12*
%TO.P,LM7805CT,1,IN*%
%TO.N,+6V*%
X126847550Y-119094250D03*
D13*
%TO.P,LM7805CT,2,GND*%
%TO.N,GND*%
X126847550Y-121634250D03*
%TO.P,LM7805CT,3,OUT*%
%TO.N,+5V*%
X126847550Y-124174250D03*
%TD*%
D14*
%TO.P,XT 30 Alimentacion,P$1,+*%
%TO.N,+6V*%
X109347550Y-119094250D03*
%TO.P,XT 30 Alimentacion,P$2,-*%
%TO.N,GND*%
X109347550Y-124094250D03*
%TD*%
%TO.P,Motor DER.,P$1,+*%
%TO.N,Net-(U2-B01)*%
X138847550Y-56094250D03*
%TO.P,Motor DER.,P$2,-*%
%TO.N,Net-(U2-B02)*%
X143847550Y-56094250D03*
%TD*%
%TO.P,Motor IZ.,P$1,+*%
%TO.N,Net-(U2-A01)*%
X140847550Y-130594250D03*
%TO.P,Motor IZ.,P$2,-*%
%TO.N,Net-(U2-A02)*%
X145847550Y-130594250D03*
%TD*%
D15*
%TO.P,ESP32-DEVKITC-32D-F,1,3V3*%
%TO.N,+3.3V*%
X107946843Y-64594250D03*
D16*
%TO.P,ESP32-DEVKITC-32D-F,2,EN*%
%TO.N,unconnected-(U1-EN-Pad2)*%
X107946843Y-67134250D03*
%TO.P,ESP32-DEVKITC-32D-F,3,SENSOR_VP*%
%TO.N,unconnected-(U1-SENSOR_VP-Pad3)*%
X107946843Y-69674250D03*
%TO.P,ESP32-DEVKITC-32D-F,4,SENSOR_VN*%
%TO.N,unconnected-(U1-SENSOR_VN-Pad4)*%
X107946843Y-72214250D03*
%TO.P,ESP32-DEVKITC-32D-F,5,IO34*%
%TO.N,unconnected-(U1-IO34-Pad5)*%
X107946843Y-74754250D03*
%TO.P,ESP32-DEVKITC-32D-F,6,IO35*%
%TO.N,unconnected-(U1-IO35-Pad6)*%
X107946843Y-77294250D03*
%TO.P,ESP32-DEVKITC-32D-F,7,IO32*%
%TO.N,unconnected-(U1-IO32-Pad7)*%
X107946843Y-79834250D03*
%TO.P,ESP32-DEVKITC-32D-F,8,IO33*%
%TO.N,unconnected-(U1-IO33-Pad8)*%
X107946843Y-82374250D03*
%TO.P,ESP32-DEVKITC-32D-F,9,IO25*%
%TO.N,unconnected-(U1-IO25-Pad9)*%
X107946843Y-84914250D03*
%TO.P,ESP32-DEVKITC-32D-F,10,IO26*%
%TO.N,unconnected-(U1-IO26-Pad10)*%
X107946843Y-87454250D03*
%TO.P,ESP32-DEVKITC-32D-F,11,IO27*%
%TO.N,unconnected-(U1-IO27-Pad11)*%
X107946843Y-89994250D03*
%TO.P,ESP32-DEVKITC-32D-F,12,IO14*%
%TO.N,unconnected-(U1-IO14-Pad12)*%
X107946843Y-92534250D03*
%TO.P,ESP32-DEVKITC-32D-F,13,IO12*%
%TO.N,unconnected-(U1-IO12-Pad13)*%
X107946843Y-95074250D03*
%TO.P,ESP32-DEVKITC-32D-F,14,GND1*%
%TO.N,GND*%
X107946843Y-97614250D03*
%TO.P,ESP32-DEVKITC-32D-F,15,IO13*%
%TO.N,unconnected-(U1-IO13-Pad15)*%
X107946843Y-100154250D03*
%TO.P,ESP32-DEVKITC-32D-F,16,SD2*%
%TO.N,unconnected-(U1-SD2-Pad16)*%
X107946843Y-102694250D03*
%TO.P,ESP32-DEVKITC-32D-F,17,SD3*%
%TO.N,unconnected-(U1-SD3-Pad17)*%
X107946843Y-105234250D03*
%TO.P,ESP32-DEVKITC-32D-F,18,CMD*%
%TO.N,unconnected-(U1-CMD-Pad18)*%
X107946843Y-107774250D03*
%TO.P,ESP32-DEVKITC-32D-F,19,EXT_5V*%
%TO.N,+5V*%
X107946843Y-110314250D03*
%TO.P,ESP32-DEVKITC-32D-F,20,CLK*%
%TO.N,unconnected-(U1-CLK-Pad20)*%
X133346843Y-110314250D03*
%TO.P,ESP32-DEVKITC-32D-F,21,SD0*%
%TO.N,unconnected-(U1-SD0-Pad21)*%
X133346843Y-107774250D03*
%TO.P,ESP32-DEVKITC-32D-F,22,SD1*%
%TO.N,unconnected-(U1-SD1-Pad22)*%
X133346843Y-105234250D03*
%TO.P,ESP32-DEVKITC-32D-F,23,IO15*%
%TO.N,unconnected-(U1-IO15-Pad23)*%
X133346843Y-102694250D03*
%TO.P,ESP32-DEVKITC-32D-F,24,IO2*%
%TO.N,unconnected-(U1-IO2-Pad24)*%
X133346843Y-100154250D03*
%TO.P,ESP32-DEVKITC-32D-F,25,IO0*%
%TO.N,Net-(U1-IO0)*%
X133346843Y-97614250D03*
%TO.P,ESP32-DEVKITC-32D-F,26,IO4*%
%TO.N,Net-(U1-IO4)*%
X133346843Y-95074250D03*
%TO.P,ESP32-DEVKITC-32D-F,27,IO16*%
%TO.N,Net-(U1-IO16)*%
X133346843Y-92534250D03*
%TO.P,ESP32-DEVKITC-32D-F,28,IO17*%
%TO.N,Net-(U1-IO17)*%
X133346843Y-89994250D03*
%TO.P,ESP32-DEVKITC-32D-F,29,IO5*%
%TO.N,Net-(U1-IO5)*%
X133346843Y-87454250D03*
%TO.P,ESP32-DEVKITC-32D-F,30,IO18*%
%TO.N,Net-(U1-IO18)*%
X133346843Y-84914250D03*
%TO.P,ESP32-DEVKITC-32D-F,31,IO19*%
%TO.N,unconnected-(U1-IO19-Pad31)*%
X133346843Y-82374250D03*
%TO.P,ESP32-DEVKITC-32D-F,32,GND2*%
%TO.N,GND*%
X133346843Y-79834250D03*
%TO.P,ESP32-DEVKITC-32D-F,33,IO21*%
%TO.N,Net-(M1-SDA)*%
X133346843Y-77294250D03*
%TO.P,ESP32-DEVKITC-32D-F,34,RXD0*%
%TO.N,unconnected-(U1-RXD0-Pad34)*%
X133346843Y-74754250D03*
%TO.P,ESP32-DEVKITC-32D-F,35,TXD0*%
%TO.N,unconnected-(U1-TXD0-Pad35)*%
X133346843Y-72214250D03*
%TO.P,ESP32-DEVKITC-32D-F,36,IO22*%
%TO.N,Net-(M1-SCL)*%
X133346843Y-69674250D03*
%TO.P,ESP32-DEVKITC-32D-F,37,IO23*%
%TO.N,Net-(U1-IO23)*%
X133346843Y-67134250D03*
%TO.P,ESP32-DEVKITC-32D-F,38,GND3*%
%TO.N,GND*%
X133346843Y-64594250D03*
%TD*%
D17*
%TO.N,Net-(M1-SCL)*%
X136847550Y-85594250D03*
%TO.N,+3.3V*%
X141347550Y-65094250D03*
X144347550Y-78594250D03*
D18*
X147847550Y-109594250D03*
%TO.N,+5V*%
X117782550Y-110594250D03*
D17*
%TO.N,Net-(U1-IO16)*%
X145347550Y-121594250D03*
%TO.N,Net-(U1-IO5)*%
X146222750Y-117094250D03*
%TO.N,Net-(U1-IO23)*%
X153847550Y-64843623D03*
%TO.N,Net-(U1-IO18)*%
X146986450Y-114594250D03*
%TO.N,Net-(U1-IO17)*%
X151847550Y-94094250D03*
%TO.N,Net-(U1-IO4)*%
X143847550Y-111594250D03*
%TO.N,Net-(U2-B01)*%
X155842359Y-124219250D03*
D18*
%TO.N,Net-(U2-A01)*%
X144097550Y-126319250D03*
%TO.N,Net-(U2-A02)*%
X154579150Y-118594250D03*
%TO.N,Net-(U2-B02)*%
X152219950Y-61844250D03*
D17*
X149217450Y-119594250D03*
%TD*%
D19*
%TO.N,Net-(M1-SDA)*%
X133557550Y-77294250D02*
X133346843Y-77294250D01*
%TO.N,GND*%
X135847550Y-67094957D02*
X135847550Y-77333543D01*
D20*
X139347550Y-124254250D02*
X139847550Y-124754250D01*
X139347550Y-115054250D02*
X142347550Y-112054250D01*
X139347550Y-124254250D02*
X139347550Y-115054250D01*
D19*
X105847550Y-120594250D02*
X109347550Y-124094250D01*
D20*
X139847550Y-124754250D02*
X142347550Y-124754250D01*
D19*
X133346843Y-64594250D02*
X135847550Y-67094957D01*
X135847550Y-77333543D02*
X133346843Y-79834250D01*
X105847550Y-99713543D02*
X105847550Y-120594250D01*
X107946843Y-97614250D02*
X105847550Y-99713543D01*
D21*
%TO.N,Net-(M1-SCL)*%
X132427550Y-69674250D02*
X133346843Y-69674250D01*
X136735750Y-85706050D02*
X136735750Y-85482450D01*
X132347550Y-69594250D02*
X132427550Y-69674250D01*
X133015550Y-83823250D02*
X130847550Y-81655250D01*
X130847550Y-81655250D02*
X130847550Y-71094250D01*
X130847550Y-71094250D02*
X132347550Y-69594250D01*
X136847550Y-85594250D02*
X136735750Y-85706050D01*
X136735750Y-85482450D02*
X135076550Y-83823250D01*
X135076550Y-83823250D02*
X133015550Y-83823250D01*
D22*
%TO.N,+3.3V*%
X147347550Y-94603050D02*
X147347550Y-83369250D01*
X144347550Y-68094250D02*
X144347550Y-78594250D01*
X147347550Y-83369250D02*
X148702550Y-82014250D01*
X141347550Y-65094250D02*
X144347550Y-68094250D01*
X147847550Y-95103050D02*
X147347550Y-94603050D01*
X147847550Y-109594250D02*
X147847550Y-95103050D01*
%TO.N,+5V*%
X117782550Y-110594250D02*
X117782550Y-115109250D01*
X117782550Y-115109250D02*
X126847550Y-124174250D01*
D21*
%TO.N,Net-(U1-IO16)*%
X134287550Y-92534250D02*
X133346843Y-92534250D01*
X145347550Y-103594250D02*
X134287550Y-92534250D01*
X145347550Y-121594250D02*
X145347550Y-103594250D01*
%TO.N,Net-(U1-IO5)*%
X134815950Y-88923357D02*
X133346843Y-87454250D01*
X134815950Y-91112750D02*
X134815950Y-88923357D01*
X146222750Y-102519550D02*
X134815950Y-91112750D01*
X146222750Y-117094250D02*
X146222750Y-102519550D01*
%TO.N,Net-(U1-IO23)*%
X153847550Y-64843623D02*
X153847550Y-106584250D01*
X153847550Y-106584250D02*
X153457550Y-106974250D01*
X153457550Y-106974250D02*
X157587550Y-106974250D01*
%TO.N,Net-(U1-IO18)*%
X146986450Y-96223150D02*
X138357550Y-87594250D01*
X136026843Y-87594250D02*
X133346843Y-84914250D01*
X138357550Y-87594250D02*
X136026843Y-87594250D01*
X146986450Y-114594250D02*
X146986450Y-96223150D01*
%TO.N,Net-(U1-IO17)*%
X151847550Y-113934250D02*
X157587550Y-119674250D01*
X151847550Y-94094250D02*
X151847550Y-113934250D01*
X133347550Y-90412150D02*
X133347550Y-90204250D01*
%TO.N,Net-(U1-IO4)*%
X143847550Y-103244250D02*
X135677550Y-95074250D01*
X135677550Y-95074250D02*
X133346843Y-95074250D01*
X143847550Y-111594250D02*
X143847550Y-103244250D01*
D19*
%TO.N,Net-(U2-B01)*%
X155847550Y-124224441D02*
X155847550Y-129344250D01*
X158097550Y-130594250D02*
X159847550Y-128844250D01*
X154347550Y-59594250D02*
X143347550Y-59594250D01*
X157097550Y-130594250D02*
X158097550Y-130594250D01*
D21*
X155842359Y-124219250D02*
X155847550Y-124224441D01*
D19*
X143347550Y-59594250D02*
X138847550Y-55094250D01*
X159847550Y-65094250D02*
X154347550Y-59594250D01*
X155847550Y-129344250D02*
X157097550Y-130594250D01*
X159847550Y-128844250D02*
X159847550Y-65094250D01*
%TO.N,Net-(U2-A01)*%
X144347550Y-116594250D02*
X142347550Y-114594250D01*
X144347550Y-120224250D02*
X144347550Y-116594250D01*
X144097550Y-126319250D02*
X144097550Y-120474250D01*
D21*
X144097550Y-120474250D02*
X144347550Y-120224250D01*
D19*
%TO.N,Net-(U2-A02)*%
X154579150Y-118594250D02*
X154579150Y-121862650D01*
X154579150Y-121862650D02*
X145847550Y-130594250D01*
%TO.N,Net-(U2-B02)*%
X149217450Y-119594250D02*
X149217450Y-95224350D01*
X149217450Y-95224350D02*
X152219950Y-92221850D01*
X152219950Y-92221850D02*
X152219950Y-61844250D01*
%TD*%
%TA.AperFunction,Conductor*%
%TO.N,GND*%
G36*
X169290089Y-51614435D02*
G01*
X169335844Y-51667239D01*
X169347050Y-51718750D01*
X169347050Y-135469750D01*
X169327365Y-135536789D01*
X169274561Y-135582544D01*
X169223050Y-135593750D01*
X99972050Y-135593750D01*
X99905011Y-135574065D01*
X99859256Y-135521261D01*
X99848050Y-135469750D01*
X99848050Y-132987963D01*
X100997050Y-132987963D01*
X100997050Y-133200536D01*
X101030303Y-133410489D01*
X101095994Y-133612664D01*
X101192501Y-133802070D01*
X101317440Y-133974036D01*
X101467763Y-134124359D01*
X101639729Y-134249298D01*
X101639731Y-134249299D01*
X101639734Y-134249301D01*
X101829138Y-134345807D01*
X102031307Y-134411496D01*
X102241263Y-134444750D01*
X102241264Y-134444750D01*
X102453836Y-134444750D01*
X102453837Y-134444750D01*
X102663793Y-134411496D01*
X102865962Y-134345807D01*
X103055366Y-134249301D01*
X103077339Y-134233336D01*
X103227336Y-134124359D01*
X103227338Y-134124356D01*
X103227342Y-134124354D01*
X103377654Y-133974042D01*
X103377656Y-133974038D01*
X103377659Y-133974036D01*
X103502598Y-133802070D01*
X103502597Y-133802070D01*
X103502601Y-133802066D01*
X103599107Y-133612662D01*
X103664796Y-133410493D01*
X103698050Y-133200537D01*
X103698050Y-132987963D01*
X165497050Y-132987963D01*
X165497050Y-133200536D01*
X165530303Y-133410489D01*
X165595994Y-133612664D01*
X165692501Y-133802070D01*
X165817440Y-133974036D01*
X165967763Y-134124359D01*
X166139729Y-134249298D01*
X166139731Y-134249299D01*
X166139734Y-134249301D01*
X166329138Y-134345807D01*
X166531307Y-134411496D01*
X166741263Y-134444750D01*
X166741264Y-134444750D01*
X166953836Y-134444750D01*
X166953837Y-134444750D01*
X167163793Y-134411496D01*
X167365962Y-134345807D01*
X167555366Y-134249301D01*
X167577339Y-134233336D01*
X167727336Y-134124359D01*
X167727338Y-134124356D01*
X167727342Y-134124354D01*
X167877654Y-133974042D01*
X167877656Y-133974038D01*
X167877659Y-133974036D01*
X168002598Y-133802070D01*
X168002597Y-133802070D01*
X168002601Y-133802066D01*
X168099107Y-133612662D01*
X168164796Y-133410493D01*
X168198050Y-133200537D01*
X168198050Y-132987963D01*
X168164796Y-132778007D01*
X168099107Y-132575838D01*
X168002601Y-132386434D01*
X168002599Y-132386431D01*
X168002598Y-132386429D01*
X167877659Y-132214463D01*
X167727336Y-132064140D01*
X167555370Y-131939201D01*
X167365964Y-131842694D01*
X167365963Y-131842693D01*
X167365962Y-131842693D01*
X167163793Y-131777004D01*
X167163791Y-131777003D01*
X167163790Y-131777003D01*
X167002507Y-131751458D01*
X166953837Y-131743750D01*
X166741263Y-131743750D01*
X166692592Y-131751458D01*
X166531310Y-131777003D01*
X166329135Y-131842694D01*
X166139729Y-131939201D01*
X165967763Y-132064140D01*
X165817440Y-132214463D01*
X165692501Y-132386429D01*
X165595994Y-132575835D01*
X165530303Y-132778010D01*
X165497050Y-132987963D01*
X103698050Y-132987963D01*
X103664796Y-132778007D01*
X103599107Y-132575838D01*
X103502601Y-132386434D01*
X103502599Y-132386431D01*
X103502598Y-132386429D01*
X103377659Y-132214463D01*
X103227336Y-132064140D01*
X103055370Y-131939201D01*
X102865964Y-131842694D01*
X102865963Y-131842693D01*
X102865962Y-131842693D01*
X102663793Y-131777004D01*
X102663791Y-131777003D01*
X102663790Y-131777003D01*
X102502507Y-131751458D01*
X102453837Y-131743750D01*
X102241263Y-131743750D01*
X102192592Y-131751458D01*
X102031310Y-131777003D01*
X101829135Y-131842694D01*
X101639729Y-131939201D01*
X101467763Y-132064140D01*
X101317440Y-132214463D01*
X101192501Y-132386429D01*
X101095994Y-132575835D01*
X101030303Y-132778010D01*
X100997050Y-132987963D01*
X99848050Y-132987963D01*
X99848050Y-130472961D01*
X138997050Y-130472961D01*
X138997050Y-130715538D01*
X139028711Y-130956035D01*
X139091497Y-131190354D01*
X139147387Y-131325284D01*
X139184326Y-131414462D01*
X139305614Y-131624539D01*
X139305616Y-131624542D01*
X139305617Y-131624543D01*
X139453283Y-131816986D01*
X139453289Y-131816993D01*
X139624806Y-131988510D01*
X139624812Y-131988515D01*
X139817261Y-132136186D01*
X140027338Y-132257474D01*
X140251450Y-132350304D01*
X140485761Y-132413088D01*
X140666136Y-132436834D01*
X140726261Y-132444750D01*
X140726262Y-132444750D01*
X140968839Y-132444750D01*
X141016938Y-132438417D01*
X141209339Y-132413088D01*
X141443650Y-132350304D01*
X141667762Y-132257474D01*
X141877839Y-132136186D01*
X142070288Y-131988515D01*
X142241815Y-131816988D01*
X142389486Y-131624539D01*
X142510774Y-131414462D01*
X142603604Y-131190350D01*
X142666388Y-130956039D01*
X142698050Y-130715538D01*
X142698050Y-130472962D01*
X142666388Y-130232461D01*
X142603604Y-129998150D01*
X142510774Y-129774038D01*
X142389486Y-129563961D01*
X142288952Y-129432942D01*
X142241816Y-129371513D01*
X142241810Y-129371506D01*
X142070293Y-129199989D01*
X142070286Y-129199983D01*
X141877843Y-129052317D01*
X141877842Y-129052316D01*
X141877839Y-129052314D01*
X141671088Y-128932946D01*
X141667764Y-128931027D01*
X141667755Y-128931023D01*
X141443654Y-128838197D01*
X141209335Y-128775411D01*
X140968839Y-128743750D01*
X140968838Y-128743750D01*
X140726262Y-128743750D01*
X140726261Y-128743750D01*
X140485764Y-128775411D01*
X140251445Y-128838197D01*
X140027344Y-128931023D01*
X140027335Y-128931027D01*
X139817256Y-129052317D01*
X139624813Y-129199983D01*
X139624806Y-129199989D01*
X139453289Y-129371506D01*
X139453283Y-129371513D01*
X139305617Y-129563956D01*
X139184327Y-129774035D01*
X139184323Y-129774044D01*
X139091497Y-129998145D01*
X139028711Y-130232464D01*
X138997050Y-130472961D01*
X99848050Y-130472961D01*
X99848050Y-118972961D01*
X107497050Y-118972961D01*
X107497050Y-119215538D01*
X107528711Y-119456035D01*
X107591497Y-119690354D01*
X107660490Y-119856917D01*
X107684326Y-119914462D01*
X107805614Y-120124539D01*
X107805616Y-120124542D01*
X107805617Y-120124543D01*
X107953283Y-120316986D01*
X107953289Y-120316993D01*
X108124806Y-120488510D01*
X108124813Y-120488516D01*
X108163682Y-120518341D01*
X108317261Y-120636186D01*
X108527338Y-120757474D01*
X108751450Y-120850304D01*
X108985761Y-120913088D01*
X109166136Y-120936834D01*
X109226261Y-120944750D01*
X109226262Y-120944750D01*
X109468839Y-120944750D01*
X109516938Y-120938417D01*
X109709339Y-120913088D01*
X109943650Y-120850304D01*
X110167762Y-120757474D01*
X110377839Y-120636186D01*
X110570288Y-120488515D01*
X110741815Y-120316988D01*
X110889486Y-120124539D01*
X111010774Y-119914462D01*
X111103604Y-119690350D01*
X111166388Y-119456039D01*
X111198050Y-119215538D01*
X111198050Y-118972962D01*
X111166388Y-118732461D01*
X111103604Y-118498150D01*
X111010774Y-118274038D01*
X110889486Y-118063961D01*
X110775524Y-117915442D01*
X110741816Y-117871513D01*
X110741810Y-117871506D01*
X110570293Y-117699989D01*
X110570286Y-117699983D01*
X110377843Y-117552317D01*
X110377842Y-117552316D01*
X110377839Y-117552314D01*
X110167762Y-117431026D01*
X110167755Y-117431023D01*
X109943654Y-117338197D01*
X109709335Y-117275411D01*
X109468839Y-117243750D01*
X109468838Y-117243750D01*
X109226262Y-117243750D01*
X109226261Y-117243750D01*
X108985764Y-117275411D01*
X108751445Y-117338197D01*
X108527344Y-117431023D01*
X108527335Y-117431027D01*
X108317256Y-117552317D01*
X108124813Y-117699983D01*
X108124806Y-117699989D01*
X107953289Y-117871506D01*
X107953283Y-117871513D01*
X107805617Y-118063956D01*
X107684327Y-118274035D01*
X107684323Y-118274044D01*
X107591497Y-118498145D01*
X107528711Y-118732464D01*
X107497050Y-118972961D01*
X99848050Y-118972961D01*
X99848050Y-100054653D01*
X106681343Y-100054653D01*
X106681343Y-100253846D01*
X106712504Y-100450590D01*
X106712504Y-100450593D01*
X106774056Y-100640030D01*
X106774058Y-100640033D01*
X106864490Y-100817516D01*
X106981574Y-100978668D01*
X107122425Y-101119519D01*
X107283577Y-101236603D01*
X107353296Y-101272127D01*
X107435015Y-101313765D01*
X107485811Y-101361740D01*
X107502606Y-101429561D01*
X107480068Y-101495696D01*
X107435015Y-101534735D01*
X107283576Y-101611897D01*
X107191633Y-101678697D01*
X107122425Y-101728981D01*
X107122423Y-101728983D01*
X107122422Y-101728983D01*
X106981576Y-101869829D01*
X106981576Y-101869830D01*
X106981574Y-101869832D01*
X106931290Y-101939040D01*
X106864490Y-102030983D01*
X106774056Y-102208469D01*
X106712504Y-102397906D01*
X106712504Y-102397909D01*
X106681343Y-102594653D01*
X106681343Y-102793846D01*
X106712504Y-102990590D01*
X106712504Y-102990593D01*
X106774056Y-103180030D01*
X106774058Y-103180033D01*
X106864490Y-103357516D01*
X106981574Y-103518668D01*
X107122425Y-103659519D01*
X107283577Y-103776603D01*
X107349101Y-103809989D01*
X107435015Y-103853765D01*
X107485811Y-103901740D01*
X107502606Y-103969561D01*
X107480068Y-104035696D01*
X107435015Y-104074735D01*
X107283576Y-104151897D01*
X107191633Y-104218697D01*
X107122425Y-104268981D01*
X107122423Y-104268983D01*
X107122422Y-104268983D01*
X106981576Y-104409829D01*
X106981576Y-104409830D01*
X106981574Y-104409832D01*
X106931290Y-104479040D01*
X106864490Y-104570983D01*
X106774056Y-104748469D01*
X106712504Y-104937906D01*
X106712504Y-104937909D01*
X106681343Y-105134653D01*
X106681343Y-105333846D01*
X106712504Y-105530590D01*
X106712504Y-105530593D01*
X106774056Y-105720030D01*
X106833836Y-105837354D01*
X106864490Y-105897516D01*
X106981574Y-106058668D01*
X107122425Y-106199519D01*
X107283577Y-106316603D01*
X107316198Y-106333224D01*
X107435015Y-106393765D01*
X107485811Y-106441740D01*
X107502606Y-106509561D01*
X107480068Y-106575696D01*
X107435015Y-106614735D01*
X107283576Y-106691897D01*
X107191633Y-106758697D01*
X107122425Y-106808981D01*
X107122423Y-106808983D01*
X107122422Y-106808983D01*
X106981576Y-106949829D01*
X106981576Y-106949830D01*
X106981574Y-106949832D01*
X106931290Y-107019040D01*
X106864490Y-107110983D01*
X106774056Y-107288469D01*
X106712504Y-107477906D01*
X106712504Y-107477909D01*
X106681343Y-107674653D01*
X106681343Y-107873847D01*
X106692255Y-107942744D01*
X106712504Y-108070590D01*
X106712504Y-108070593D01*
X106774056Y-108260030D01*
X106817131Y-108344569D01*
X106864490Y-108437516D01*
X106981574Y-108598668D01*
X107122425Y-108739519D01*
X107283577Y-108856603D01*
X107353296Y-108892127D01*
X107435015Y-108933765D01*
X107485811Y-108981740D01*
X107502606Y-109049561D01*
X107480068Y-109115696D01*
X107435015Y-109154735D01*
X107283576Y-109231897D01*
X107191633Y-109298697D01*
X107122425Y-109348981D01*
X107122423Y-109348983D01*
X107122422Y-109348983D01*
X106981576Y-109489829D01*
X106981576Y-109489830D01*
X106981574Y-109489832D01*
X106931290Y-109559040D01*
X106864490Y-109650983D01*
X106774056Y-109828469D01*
X106712504Y-110017906D01*
X106712504Y-110017909D01*
X106712139Y-110020215D01*
X106681343Y-110214653D01*
X106681343Y-110413847D01*
X106692255Y-110482744D01*
X106712504Y-110610590D01*
X106712504Y-110610593D01*
X106774056Y-110800030D01*
X106832499Y-110914730D01*
X106864490Y-110977516D01*
X106981574Y-111138668D01*
X107122425Y-111279519D01*
X107283577Y-111396603D01*
X107451369Y-111482097D01*
X107461062Y-111487036D01*
X107650500Y-111548588D01*
X107650501Y-111548588D01*
X107650504Y-111548589D01*
X107847246Y-111579750D01*
X107847247Y-111579750D01*
X108046439Y-111579750D01*
X108046440Y-111579750D01*
X108243182Y-111548589D01*
X108243185Y-111548588D01*
X108243186Y-111548588D01*
X108432623Y-111487036D01*
X108432623Y-111487035D01*
X108432626Y-111487035D01*
X108610109Y-111396603D01*
X108771261Y-111279519D01*
X108912112Y-111138668D01*
X109029196Y-110977516D01*
X109119628Y-110800033D01*
X109130897Y-110765350D01*
X109181181Y-110610593D01*
X109181182Y-110610588D01*
X109197817Y-110505559D01*
X109197818Y-110505554D01*
X116882050Y-110505554D01*
X116882050Y-110505559D01*
X116882050Y-110682941D01*
X116890529Y-110725569D01*
X116892886Y-110747279D01*
X116893247Y-110765336D01*
X116893247Y-110765345D01*
X116932794Y-111006131D01*
X116997211Y-111398339D01*
X117005411Y-111448262D01*
X117007050Y-111468359D01*
X117007050Y-115185634D01*
X117036850Y-115335447D01*
X117036852Y-115335455D01*
X117095309Y-115476584D01*
X117095314Y-115476593D01*
X117180179Y-115603601D01*
X117180182Y-115603605D01*
X124904931Y-123328353D01*
X124930520Y-123365578D01*
X125482822Y-124605453D01*
X125487483Y-124617590D01*
X125521855Y-124723374D01*
X125521856Y-124723375D01*
X125624077Y-124923995D01*
X125671139Y-124988771D01*
X125681361Y-125003731D01*
X125683229Y-125005413D01*
X125688466Y-125012620D01*
X125688473Y-125012629D01*
X125756426Y-125106158D01*
X125915642Y-125265374D01*
X126097805Y-125397723D01*
X126192591Y-125446019D01*
X126298424Y-125499944D01*
X126298426Y-125499944D01*
X126298429Y-125499946D01*
X126413216Y-125537242D01*
X126512573Y-125569526D01*
X126623770Y-125587138D01*
X126734967Y-125604750D01*
X126734968Y-125604750D01*
X126960132Y-125604750D01*
X126960133Y-125604750D01*
X127182526Y-125569526D01*
X127396671Y-125499946D01*
X127597295Y-125397723D01*
X127779458Y-125265374D01*
X127938674Y-125106158D01*
X128071023Y-124923995D01*
X128173246Y-124723371D01*
X128242826Y-124509226D01*
X128278050Y-124286833D01*
X128278050Y-124061667D01*
X128262230Y-123961782D01*
X128242826Y-123839273D01*
X128199116Y-123704750D01*
X128173246Y-123625129D01*
X128173244Y-123625126D01*
X128173244Y-123625124D01*
X128072004Y-123426431D01*
X128071023Y-123424505D01*
X127938674Y-123242342D01*
X127779458Y-123083126D01*
X127597295Y-122950777D01*
X127396675Y-122848555D01*
X127290886Y-122814182D01*
X127278749Y-122809521D01*
X126038880Y-122257222D01*
X126001655Y-122231633D01*
X121886407Y-118116385D01*
X125417050Y-118116385D01*
X125417050Y-120072120D01*
X125417051Y-120072126D01*
X125423458Y-120131733D01*
X125473752Y-120266578D01*
X125473756Y-120266585D01*
X125560002Y-120381794D01*
X125560005Y-120381797D01*
X125675214Y-120468043D01*
X125675221Y-120468047D01*
X125810067Y-120518341D01*
X125810066Y-120518341D01*
X125816994Y-120519085D01*
X125869677Y-120524750D01*
X127825422Y-120524749D01*
X127885033Y-120518341D01*
X128019881Y-120468046D01*
X128135096Y-120381796D01*
X128221346Y-120266581D01*
X128271641Y-120131733D01*
X128278050Y-120072123D01*
X128278049Y-118116378D01*
X128271641Y-118056767D01*
X128221346Y-117921919D01*
X128221345Y-117921918D01*
X128221343Y-117921914D01*
X128135097Y-117806705D01*
X128135094Y-117806702D01*
X128019885Y-117720456D01*
X128019878Y-117720452D01*
X127885032Y-117670158D01*
X127885033Y-117670158D01*
X127825433Y-117663751D01*
X127825431Y-117663750D01*
X127825423Y-117663750D01*
X127825414Y-117663750D01*
X125869679Y-117663750D01*
X125869673Y-117663751D01*
X125810066Y-117670158D01*
X125675221Y-117720452D01*
X125675214Y-117720456D01*
X125560005Y-117806702D01*
X125560002Y-117806705D01*
X125473756Y-117921914D01*
X125473752Y-117921921D01*
X125423458Y-118056767D01*
X125417051Y-118116366D01*
X125417051Y-118116373D01*
X125417050Y-118116385D01*
X121886407Y-118116385D01*
X118594369Y-114824347D01*
X118560884Y-114763024D01*
X118558050Y-114736666D01*
X118558050Y-111468358D01*
X118559689Y-111448261D01*
X118568173Y-111396603D01*
X118671851Y-110765349D01*
X118677162Y-110720648D01*
X118677161Y-110720646D01*
X118677848Y-110714872D01*
X118677925Y-110714881D01*
X118679470Y-110700933D01*
X118683050Y-110682941D01*
X118683050Y-110505559D01*
X118683050Y-110505556D01*
X118683049Y-110505554D01*
X118648446Y-110331591D01*
X118648443Y-110331582D01*
X118580566Y-110167709D01*
X118580559Y-110167696D01*
X118482014Y-110020215D01*
X118482011Y-110020211D01*
X118356588Y-109894788D01*
X118356584Y-109894785D01*
X118209103Y-109796240D01*
X118209090Y-109796233D01*
X118045217Y-109728356D01*
X118045208Y-109728353D01*
X117871244Y-109693750D01*
X117871241Y-109693750D01*
X117693859Y-109693750D01*
X117693856Y-109693750D01*
X117519891Y-109728353D01*
X117519882Y-109728356D01*
X117356009Y-109796233D01*
X117355996Y-109796240D01*
X117208515Y-109894785D01*
X117208511Y-109894788D01*
X117083088Y-110020211D01*
X117083085Y-110020215D01*
X116984540Y-110167696D01*
X116984533Y-110167709D01*
X116916656Y-110331582D01*
X116916653Y-110331591D01*
X116882050Y-110505554D01*
X109197818Y-110505554D01*
X109212343Y-110413847D01*
X109212343Y-110214653D01*
X109181182Y-110017911D01*
X109181181Y-110017907D01*
X109181181Y-110017906D01*
X109119629Y-109828469D01*
X109119628Y-109828467D01*
X109029196Y-109650984D01*
X108912112Y-109489832D01*
X108771261Y-109348981D01*
X108610109Y-109231897D01*
X108458670Y-109154735D01*
X108407874Y-109106760D01*
X108391079Y-109038939D01*
X108413616Y-108972804D01*
X108458670Y-108933765D01*
X108467959Y-108929031D01*
X108610109Y-108856603D01*
X108771261Y-108739519D01*
X108912112Y-108598668D01*
X109029196Y-108437516D01*
X109119628Y-108260033D01*
X109145227Y-108181248D01*
X109181181Y-108070593D01*
X109181181Y-108070592D01*
X109181182Y-108070589D01*
X109212343Y-107873847D01*
X109212343Y-107674653D01*
X109181182Y-107477911D01*
X109181181Y-107477907D01*
X109181181Y-107477906D01*
X109119629Y-107288469D01*
X109029195Y-107110983D01*
X109015079Y-107091554D01*
X108912112Y-106949832D01*
X108771261Y-106808981D01*
X108610109Y-106691897D01*
X108458670Y-106614735D01*
X108407874Y-106566760D01*
X108391079Y-106498939D01*
X108413616Y-106432804D01*
X108458670Y-106393765D01*
X108467959Y-106389031D01*
X108610109Y-106316603D01*
X108771261Y-106199519D01*
X108912112Y-106058668D01*
X109029196Y-105897516D01*
X109119628Y-105720033D01*
X109125540Y-105701837D01*
X109181181Y-105530593D01*
X109181181Y-105530592D01*
X109181182Y-105530589D01*
X109212343Y-105333847D01*
X109212343Y-105134653D01*
X109181182Y-104937911D01*
X109181181Y-104937907D01*
X109181181Y-104937906D01*
X109119629Y-104748469D01*
X109029195Y-104570983D01*
X108912112Y-104409832D01*
X108771261Y-104268981D01*
X108610109Y-104151897D01*
X108458670Y-104074735D01*
X108407874Y-104026760D01*
X108391079Y-103958939D01*
X108413616Y-103892804D01*
X108458670Y-103853765D01*
X108492234Y-103836663D01*
X108610109Y-103776603D01*
X108771261Y-103659519D01*
X108912112Y-103518668D01*
X109029196Y-103357516D01*
X109119628Y-103180033D01*
X109181182Y-102990589D01*
X109212343Y-102793847D01*
X109212343Y-102594653D01*
X109181182Y-102397911D01*
X109181181Y-102397907D01*
X109181181Y-102397906D01*
X109119629Y-102208469D01*
X109029195Y-102030983D01*
X108912112Y-101869832D01*
X108771261Y-101728981D01*
X108610109Y-101611897D01*
X108560445Y-101586592D01*
X108458670Y-101534735D01*
X108407874Y-101486760D01*
X108391079Y-101418939D01*
X108413616Y-101352804D01*
X108458670Y-101313765D01*
X108467959Y-101309031D01*
X108610109Y-101236603D01*
X108771261Y-101119519D01*
X108912112Y-100978668D01*
X109029196Y-100817516D01*
X109119628Y-100640033D01*
X109181182Y-100450589D01*
X109212343Y-100253847D01*
X109212343Y-100054653D01*
X109181182Y-99857911D01*
X109181181Y-99857907D01*
X109181181Y-99857906D01*
X109119629Y-99668469D01*
X109029195Y-99490983D01*
X108912112Y-99329832D01*
X108771261Y-99188981D01*
X108610109Y-99071897D01*
X108432623Y-98981463D01*
X108243185Y-98919911D01*
X108051560Y-98889561D01*
X108046440Y-98888750D01*
X107847246Y-98888750D01*
X107842126Y-98889561D01*
X107650502Y-98919911D01*
X107650499Y-98919911D01*
X107461062Y-98981463D01*
X107283576Y-99071897D01*
X107191633Y-99138697D01*
X107122425Y-99188981D01*
X107122423Y-99188983D01*
X107122422Y-99188983D01*
X106981576Y-99329829D01*
X106981576Y-99329830D01*
X106981574Y-99329832D01*
X106931290Y-99399040D01*
X106864490Y-99490983D01*
X106774056Y-99668469D01*
X106712504Y-99857906D01*
X106712504Y-99857909D01*
X106681343Y-100054653D01*
X99848050Y-100054653D01*
X99848050Y-63781385D01*
X106681343Y-63781385D01*
X106681343Y-65407120D01*
X106681344Y-65407126D01*
X106687751Y-65466733D01*
X106738045Y-65601578D01*
X106738049Y-65601585D01*
X106824295Y-65716794D01*
X106824298Y-65716797D01*
X106939507Y-65803043D01*
X106939514Y-65803047D01*
X107074360Y-65853341D01*
X107074359Y-65853341D01*
X107081287Y-65854085D01*
X107133970Y-65859750D01*
X107166411Y-65859749D01*
X107233448Y-65879432D01*
X107279204Y-65932234D01*
X107289149Y-66001393D01*
X107260126Y-66064949D01*
X107239298Y-66084066D01*
X107122425Y-66168980D01*
X106981576Y-66309829D01*
X106981576Y-66309830D01*
X106981574Y-66309832D01*
X106931290Y-66379040D01*
X106864490Y-66470983D01*
X106774056Y-66648469D01*
X106712504Y-66837906D01*
X106712504Y-66837909D01*
X106681343Y-67034653D01*
X106681343Y-67233846D01*
X106712504Y-67430590D01*
X106712504Y-67430593D01*
X106774056Y-67620030D01*
X106774058Y-67620033D01*
X106864490Y-67797516D01*
X106981574Y-67958668D01*
X107122425Y-68099519D01*
X107283577Y-68216603D01*
X107353296Y-68252127D01*
X107435015Y-68293765D01*
X107485811Y-68341740D01*
X107502606Y-68409561D01*
X107480068Y-68475696D01*
X107435015Y-68514735D01*
X107283576Y-68591897D01*
X107191633Y-68658697D01*
X107122425Y-68708981D01*
X107122423Y-68708983D01*
X107122422Y-68708983D01*
X106981576Y-68849829D01*
X106981576Y-68849830D01*
X106981574Y-68849832D01*
X106965295Y-68872238D01*
X106864490Y-69010983D01*
X106774056Y-69188469D01*
X106712504Y-69377906D01*
X106712504Y-69377909D01*
X106681343Y-69574653D01*
X106681343Y-69773846D01*
X106712504Y-69970590D01*
X106712504Y-69970593D01*
X106774056Y-70160030D01*
X106774058Y-70160033D01*
X106864490Y-70337516D01*
X106981574Y-70498668D01*
X107122425Y-70639519D01*
X107283577Y-70756603D01*
X107353296Y-70792127D01*
X107435015Y-70833765D01*
X107485811Y-70881740D01*
X107502606Y-70949561D01*
X107480068Y-71015696D01*
X107435015Y-71054735D01*
X107283576Y-71131897D01*
X107191633Y-71198697D01*
X107122425Y-71248981D01*
X107122423Y-71248983D01*
X107122422Y-71248983D01*
X106981576Y-71389829D01*
X106981576Y-71389830D01*
X106981574Y-71389832D01*
X106931290Y-71459040D01*
X106864490Y-71550983D01*
X106774056Y-71728469D01*
X106712504Y-71917906D01*
X106712504Y-71917909D01*
X106681343Y-72114653D01*
X106681343Y-72313846D01*
X106712504Y-72510590D01*
X106712504Y-72510593D01*
X106774056Y-72700030D01*
X106774058Y-72700033D01*
X106864490Y-72877516D01*
X106981574Y-73038668D01*
X107122425Y-73179519D01*
X107283577Y-73296603D01*
X107353296Y-73332127D01*
X107435015Y-73373765D01*
X107485811Y-73421740D01*
X107502606Y-73489561D01*
X107480068Y-73555696D01*
X107435015Y-73594735D01*
X107283576Y-73671897D01*
X107191633Y-73738697D01*
X107122425Y-73788981D01*
X107122423Y-73788983D01*
X107122422Y-73788983D01*
X106981576Y-73929829D01*
X106981576Y-73929830D01*
X106981574Y-73929832D01*
X106931290Y-73999040D01*
X106864490Y-74090983D01*
X106774056Y-74268469D01*
X106712504Y-74457906D01*
X106712504Y-74457909D01*
X106681343Y-74654653D01*
X106681343Y-74853846D01*
X106712504Y-75050590D01*
X106712504Y-75050593D01*
X106774056Y-75240030D01*
X106774058Y-75240033D01*
X106864490Y-75417516D01*
X106981574Y-75578668D01*
X107122425Y-75719519D01*
X107283577Y-75836603D01*
X107353296Y-75872127D01*
X107435015Y-75913765D01*
X107485811Y-75961740D01*
X107502606Y-76029561D01*
X107480068Y-76095696D01*
X107435015Y-76134735D01*
X107283576Y-76211897D01*
X107191633Y-76278697D01*
X107122425Y-76328981D01*
X107122423Y-76328983D01*
X107122422Y-76328983D01*
X106981576Y-76469829D01*
X106981576Y-76469830D01*
X106981574Y-76469832D01*
X106931290Y-76539040D01*
X106864490Y-76630983D01*
X106774056Y-76808469D01*
X106712504Y-76997906D01*
X106712504Y-76997909D01*
X106681343Y-77194653D01*
X106681343Y-77393846D01*
X106712504Y-77590590D01*
X106712504Y-77590593D01*
X106774056Y-77780030D01*
X106774058Y-77780033D01*
X106864490Y-77957516D01*
X106981574Y-78118668D01*
X107122425Y-78259519D01*
X107283577Y-78376603D01*
X107332843Y-78401705D01*
X107435015Y-78453765D01*
X107485811Y-78501740D01*
X107502606Y-78569561D01*
X107480068Y-78635696D01*
X107435015Y-78674735D01*
X107283576Y-78751897D01*
X107191633Y-78818697D01*
X107122425Y-78868981D01*
X107122423Y-78868983D01*
X107122422Y-78868983D01*
X106981576Y-79009829D01*
X106981576Y-79009830D01*
X106981574Y-79009832D01*
X106931290Y-79079040D01*
X106864490Y-79170983D01*
X106774056Y-79348469D01*
X106712504Y-79537906D01*
X106712504Y-79537909D01*
X106681343Y-79734653D01*
X106681343Y-79933846D01*
X106712504Y-80130590D01*
X106712504Y-80130593D01*
X106774056Y-80320030D01*
X106774058Y-80320033D01*
X106864490Y-80497516D01*
X106981574Y-80658668D01*
X107122425Y-80799519D01*
X107283577Y-80916603D01*
X107353296Y-80952127D01*
X107435015Y-80993765D01*
X107485811Y-81041740D01*
X107502606Y-81109561D01*
X107480068Y-81175696D01*
X107435015Y-81214735D01*
X107283576Y-81291897D01*
X107210765Y-81344798D01*
X107122425Y-81408981D01*
X107122423Y-81408983D01*
X107122422Y-81408983D01*
X106981576Y-81549829D01*
X106981576Y-81549830D01*
X106981574Y-81549832D01*
X106931290Y-81619040D01*
X106864490Y-81710983D01*
X106774056Y-81888469D01*
X106712504Y-82077906D01*
X106712504Y-82077909D01*
X106681343Y-82274653D01*
X106681343Y-82473846D01*
X106712504Y-82670590D01*
X106712504Y-82670593D01*
X106774056Y-82860030D01*
X106846346Y-83001906D01*
X106864490Y-83037516D01*
X106981574Y-83198668D01*
X107122425Y-83339519D01*
X107283577Y-83456603D01*
X107353296Y-83492127D01*
X107435015Y-83533765D01*
X107485811Y-83581740D01*
X107502606Y-83649561D01*
X107480068Y-83715696D01*
X107435015Y-83754735D01*
X107283576Y-83831897D01*
X107191633Y-83898697D01*
X107122425Y-83948981D01*
X107122423Y-83948983D01*
X107122422Y-83948983D01*
X106981576Y-84089829D01*
X106981576Y-84089830D01*
X106981574Y-84089832D01*
X106931290Y-84159040D01*
X106864490Y-84250983D01*
X106774056Y-84428469D01*
X106712504Y-84617906D01*
X106712504Y-84617909D01*
X106681343Y-84814653D01*
X106681343Y-85013846D01*
X106712504Y-85210590D01*
X106712504Y-85210593D01*
X106774056Y-85400030D01*
X106850492Y-85550044D01*
X106864490Y-85577516D01*
X106981574Y-85738668D01*
X107122425Y-85879519D01*
X107283577Y-85996603D01*
X107304848Y-86007441D01*
X107435015Y-86073765D01*
X107485811Y-86121740D01*
X107502606Y-86189561D01*
X107480068Y-86255696D01*
X107435015Y-86294735D01*
X107283576Y-86371897D01*
X107191633Y-86438697D01*
X107122425Y-86488981D01*
X107122423Y-86488983D01*
X107122422Y-86488983D01*
X106981576Y-86629829D01*
X106981576Y-86629830D01*
X106981574Y-86629832D01*
X106931290Y-86699040D01*
X106864490Y-86790983D01*
X106774056Y-86968469D01*
X106712504Y-87157906D01*
X106712504Y-87157909D01*
X106681343Y-87354653D01*
X106681343Y-87553846D01*
X106712504Y-87750590D01*
X106712504Y-87750593D01*
X106774056Y-87940030D01*
X106801037Y-87992982D01*
X106864490Y-88117516D01*
X106981574Y-88278668D01*
X107122425Y-88419519D01*
X107283577Y-88536603D01*
X107350614Y-88570760D01*
X107435015Y-88613765D01*
X107485811Y-88661740D01*
X107502606Y-88729561D01*
X107480068Y-88795696D01*
X107435015Y-88834735D01*
X107283576Y-88911897D01*
X107191633Y-88978697D01*
X107122425Y-89028981D01*
X107122423Y-89028983D01*
X107122422Y-89028983D01*
X106981576Y-89169829D01*
X106981576Y-89169830D01*
X106981574Y-89169832D01*
X106931290Y-89239040D01*
X106864490Y-89330983D01*
X106774056Y-89508469D01*
X106712504Y-89697906D01*
X106712504Y-89697909D01*
X106681343Y-89894653D01*
X106681343Y-90093846D01*
X106712504Y-90290590D01*
X106712504Y-90290593D01*
X106774056Y-90480030D01*
X106850764Y-90630578D01*
X106864490Y-90657516D01*
X106981574Y-90818668D01*
X107122425Y-90959519D01*
X107283577Y-91076603D01*
X107353296Y-91112127D01*
X107435015Y-91153765D01*
X107485811Y-91201740D01*
X107502606Y-91269561D01*
X107480068Y-91335696D01*
X107435015Y-91374735D01*
X107283576Y-91451897D01*
X107234937Y-91487236D01*
X107122425Y-91568981D01*
X107122423Y-91568983D01*
X107122422Y-91568983D01*
X106981576Y-91709829D01*
X106981576Y-91709830D01*
X106981574Y-91709832D01*
X106974111Y-91720104D01*
X106864490Y-91870983D01*
X106774056Y-92048469D01*
X106712504Y-92237906D01*
X106712504Y-92237909D01*
X106712504Y-92237911D01*
X106681343Y-92434653D01*
X106681343Y-92633847D01*
X106694465Y-92716697D01*
X106712504Y-92830590D01*
X106712504Y-92830593D01*
X106774056Y-93020030D01*
X106850766Y-93170581D01*
X106864490Y-93197516D01*
X106981574Y-93358668D01*
X107122425Y-93499519D01*
X107283577Y-93616603D01*
X107330340Y-93640430D01*
X107435015Y-93693765D01*
X107485811Y-93741740D01*
X107502606Y-93809561D01*
X107480068Y-93875696D01*
X107435015Y-93914735D01*
X107283576Y-93991897D01*
X107191633Y-94058697D01*
X107122425Y-94108981D01*
X107122423Y-94108983D01*
X107122422Y-94108983D01*
X106981576Y-94249829D01*
X106981576Y-94249830D01*
X106981574Y-94249832D01*
X106951220Y-94291611D01*
X106864490Y-94410983D01*
X106774056Y-94588469D01*
X106712504Y-94777906D01*
X106712504Y-94777909D01*
X106681343Y-94974653D01*
X106681343Y-95173846D01*
X106712504Y-95370590D01*
X106712504Y-95370593D01*
X106774056Y-95560030D01*
X106845247Y-95699750D01*
X106864490Y-95737516D01*
X106981574Y-95898668D01*
X107122425Y-96039519D01*
X107283577Y-96156603D01*
X107435014Y-96233764D01*
X107461062Y-96247036D01*
X107650500Y-96308588D01*
X107650501Y-96308588D01*
X107650504Y-96308589D01*
X107847246Y-96339750D01*
X107847247Y-96339750D01*
X108046439Y-96339750D01*
X108046440Y-96339750D01*
X108243182Y-96308589D01*
X108243185Y-96308588D01*
X108243186Y-96308588D01*
X108432623Y-96247036D01*
X108432623Y-96247035D01*
X108432626Y-96247035D01*
X108610109Y-96156603D01*
X108771261Y-96039519D01*
X108912112Y-95898668D01*
X109029196Y-95737516D01*
X109119628Y-95560033D01*
X109181182Y-95370589D01*
X109212343Y-95173847D01*
X109212343Y-94974653D01*
X109181182Y-94777911D01*
X109181181Y-94777907D01*
X109181181Y-94777906D01*
X109119629Y-94588469D01*
X109074898Y-94500680D01*
X109029196Y-94410984D01*
X108912112Y-94249832D01*
X108771261Y-94108981D01*
X108610109Y-93991897D01*
X108458670Y-93914735D01*
X108407874Y-93866760D01*
X108391079Y-93798939D01*
X108413616Y-93732804D01*
X108458670Y-93693765D01*
X108467959Y-93689031D01*
X108610109Y-93616603D01*
X108771261Y-93499519D01*
X108912112Y-93358668D01*
X109029196Y-93197516D01*
X109119628Y-93020033D01*
X109119629Y-93020030D01*
X109181181Y-92830593D01*
X109181181Y-92830592D01*
X109181182Y-92830589D01*
X109212343Y-92633847D01*
X109212343Y-92434653D01*
X109181182Y-92237911D01*
X109181181Y-92237907D01*
X109181181Y-92237906D01*
X109119629Y-92048469D01*
X109029195Y-91870983D01*
X109024504Y-91864526D01*
X108912112Y-91709832D01*
X108771261Y-91568981D01*
X108610109Y-91451897D01*
X108555040Y-91423838D01*
X108458670Y-91374735D01*
X108407874Y-91326760D01*
X108391079Y-91258939D01*
X108413616Y-91192804D01*
X108458670Y-91153765D01*
X108467959Y-91149031D01*
X108610109Y-91076603D01*
X108771261Y-90959519D01*
X108912112Y-90818668D01*
X109029196Y-90657516D01*
X109119628Y-90480033D01*
X109181182Y-90290589D01*
X109212343Y-90093847D01*
X109212343Y-89894653D01*
X109181182Y-89697911D01*
X109181181Y-89697907D01*
X109181181Y-89697906D01*
X109119629Y-89508469D01*
X109029195Y-89330983D01*
X108912112Y-89169832D01*
X108771261Y-89028981D01*
X108610109Y-88911897D01*
X108458670Y-88834735D01*
X108407874Y-88786760D01*
X108391079Y-88718939D01*
X108413616Y-88652804D01*
X108458670Y-88613765D01*
X108467959Y-88609031D01*
X108610109Y-88536603D01*
X108771261Y-88419519D01*
X108912112Y-88278668D01*
X109029196Y-88117516D01*
X109119628Y-87940033D01*
X109181182Y-87750589D01*
X109212343Y-87553847D01*
X109212343Y-87354653D01*
X109181182Y-87157911D01*
X109181181Y-87157907D01*
X109181181Y-87157906D01*
X109119629Y-86968469D01*
X109029195Y-86790983D01*
X108912112Y-86629832D01*
X108771261Y-86488981D01*
X108610109Y-86371897D01*
X108458670Y-86294735D01*
X108407874Y-86246760D01*
X108391079Y-86178939D01*
X108413616Y-86112804D01*
X108458670Y-86073765D01*
X108467959Y-86069031D01*
X108610109Y-85996603D01*
X108771261Y-85879519D01*
X108912112Y-85738668D01*
X109029196Y-85577516D01*
X109119628Y-85400033D01*
X109132391Y-85360753D01*
X109181181Y-85210593D01*
X109181181Y-85210592D01*
X109181182Y-85210589D01*
X109212343Y-85013847D01*
X109212343Y-84814653D01*
X109181182Y-84617911D01*
X109181181Y-84617907D01*
X109181181Y-84617906D01*
X109119629Y-84428469D01*
X109029195Y-84250983D01*
X109029193Y-84250980D01*
X108912112Y-84089832D01*
X108771261Y-83948981D01*
X108610109Y-83831897D01*
X108458670Y-83754735D01*
X108407874Y-83706760D01*
X108391079Y-83638939D01*
X108413616Y-83572804D01*
X108458670Y-83533765D01*
X108467959Y-83529031D01*
X108610109Y-83456603D01*
X108771261Y-83339519D01*
X108912112Y-83198668D01*
X109029196Y-83037516D01*
X109119628Y-82860033D01*
X109133898Y-82816114D01*
X109181181Y-82670593D01*
X109181181Y-82670592D01*
X109181182Y-82670589D01*
X109212343Y-82473847D01*
X109212343Y-82274653D01*
X109181182Y-82077911D01*
X109181181Y-82077907D01*
X109181181Y-82077906D01*
X109119629Y-81888469D01*
X109112590Y-81874654D01*
X109029196Y-81710984D01*
X108912112Y-81549832D01*
X108771261Y-81408981D01*
X108610109Y-81291897D01*
X108458670Y-81214735D01*
X108407874Y-81166760D01*
X108391079Y-81098939D01*
X108413616Y-81032804D01*
X108458670Y-80993765D01*
X108467959Y-80989031D01*
X108610109Y-80916603D01*
X108771261Y-80799519D01*
X108912112Y-80658668D01*
X109029196Y-80497516D01*
X109119628Y-80320033D01*
X109181182Y-80130589D01*
X109212343Y-79933847D01*
X109212343Y-79734653D01*
X109181182Y-79537911D01*
X109181181Y-79537907D01*
X109181181Y-79537906D01*
X109119629Y-79348469D01*
X109096791Y-79303647D01*
X109029196Y-79170984D01*
X108912112Y-79009832D01*
X108771261Y-78868981D01*
X108610109Y-78751897D01*
X108458670Y-78674735D01*
X108407874Y-78626760D01*
X108391079Y-78558939D01*
X108413616Y-78492804D01*
X108458670Y-78453765D01*
X108467959Y-78449031D01*
X108610109Y-78376603D01*
X108771261Y-78259519D01*
X108912112Y-78118668D01*
X109029196Y-77957516D01*
X109119628Y-77780033D01*
X109181182Y-77590589D01*
X109212343Y-77393847D01*
X109212343Y-77194653D01*
X109181182Y-76997911D01*
X109181181Y-76997907D01*
X109181181Y-76997906D01*
X109119629Y-76808469D01*
X109029195Y-76630983D01*
X108912112Y-76469832D01*
X108771261Y-76328981D01*
X108610109Y-76211897D01*
X108458670Y-76134735D01*
X108407874Y-76086760D01*
X108391079Y-76018939D01*
X108413616Y-75952804D01*
X108458670Y-75913765D01*
X108467959Y-75909031D01*
X108610109Y-75836603D01*
X108771261Y-75719519D01*
X108912112Y-75578668D01*
X109029196Y-75417516D01*
X109119628Y-75240033D01*
X109181182Y-75050589D01*
X109212343Y-74853847D01*
X109212343Y-74654653D01*
X109181182Y-74457911D01*
X109181181Y-74457907D01*
X109181181Y-74457906D01*
X109119629Y-74268469D01*
X109029195Y-74090983D01*
X108912112Y-73929832D01*
X108771261Y-73788981D01*
X108610109Y-73671897D01*
X108458670Y-73594735D01*
X108407874Y-73546760D01*
X108391079Y-73478939D01*
X108413616Y-73412804D01*
X108458670Y-73373765D01*
X108467959Y-73369031D01*
X108610109Y-73296603D01*
X108771261Y-73179519D01*
X108912112Y-73038668D01*
X109029196Y-72877516D01*
X109119628Y-72700033D01*
X109181182Y-72510589D01*
X109212343Y-72313847D01*
X109212343Y-72114653D01*
X109181182Y-71917911D01*
X109181181Y-71917907D01*
X109181181Y-71917906D01*
X109119629Y-71728469D01*
X109029195Y-71550983D01*
X108912112Y-71389832D01*
X108771261Y-71248981D01*
X108610109Y-71131897D01*
X108458670Y-71054735D01*
X108458401Y-71054597D01*
X108435265Y-71032639D01*
X130222050Y-71032639D01*
X130222050Y-81716861D01*
X130246085Y-81837694D01*
X130246090Y-81837711D01*
X130293235Y-81951530D01*
X130293237Y-81951533D01*
X130293238Y-81951536D01*
X130327465Y-82002759D01*
X130361692Y-82053983D01*
X130448817Y-82141108D01*
X130448820Y-82141110D01*
X130456104Y-82148394D01*
X132313406Y-84005696D01*
X132346891Y-84067019D01*
X132341907Y-84136711D01*
X132326043Y-84166262D01*
X132264492Y-84250980D01*
X132174056Y-84428469D01*
X132112504Y-84617906D01*
X132112504Y-84617909D01*
X132081343Y-84814653D01*
X132081343Y-85013846D01*
X132112504Y-85210590D01*
X132112504Y-85210593D01*
X132174056Y-85400030D01*
X132250492Y-85550044D01*
X132264490Y-85577516D01*
X132381574Y-85738668D01*
X132522425Y-85879519D01*
X132683577Y-85996603D01*
X132704848Y-86007441D01*
X132835015Y-86073765D01*
X132885811Y-86121740D01*
X132902606Y-86189561D01*
X132880068Y-86255696D01*
X132835015Y-86294735D01*
X132683576Y-86371897D01*
X132591633Y-86438697D01*
X132522425Y-86488981D01*
X132522423Y-86488983D01*
X132522422Y-86488983D01*
X132381576Y-86629829D01*
X132381576Y-86629830D01*
X132381574Y-86629832D01*
X132331290Y-86699040D01*
X132264490Y-86790983D01*
X132174056Y-86968469D01*
X132112504Y-87157906D01*
X132112504Y-87157909D01*
X132081343Y-87354653D01*
X132081343Y-87553846D01*
X132112504Y-87750590D01*
X132112504Y-87750593D01*
X132174056Y-87940030D01*
X132201037Y-87992982D01*
X132264490Y-88117516D01*
X132381574Y-88278668D01*
X132522425Y-88419519D01*
X132683577Y-88536603D01*
X132750614Y-88570760D01*
X132835015Y-88613765D01*
X132885811Y-88661740D01*
X132902606Y-88729561D01*
X132880068Y-88795696D01*
X132835015Y-88834735D01*
X132683576Y-88911897D01*
X132591633Y-88978697D01*
X132522425Y-89028981D01*
X132522423Y-89028983D01*
X132522422Y-89028983D01*
X132381576Y-89169829D01*
X132381576Y-89169830D01*
X132381574Y-89169832D01*
X132331290Y-89239040D01*
X132264490Y-89330983D01*
X132174056Y-89508469D01*
X132112504Y-89697906D01*
X132112504Y-89697909D01*
X132081343Y-89894653D01*
X132081343Y-90093846D01*
X132112504Y-90290590D01*
X132112504Y-90290593D01*
X132174056Y-90480030D01*
X132250764Y-90630578D01*
X132264490Y-90657516D01*
X132381574Y-90818668D01*
X132522425Y-90959519D01*
X132683577Y-91076603D01*
X132753296Y-91112127D01*
X132835015Y-91153765D01*
X132885811Y-91201740D01*
X132902606Y-91269561D01*
X132880068Y-91335696D01*
X132835015Y-91374735D01*
X132683576Y-91451897D01*
X132634937Y-91487236D01*
X132522425Y-91568981D01*
X132522423Y-91568983D01*
X132522422Y-91568983D01*
X132381576Y-91709829D01*
X132381576Y-91709830D01*
X132381574Y-91709832D01*
X132374111Y-91720104D01*
X132264490Y-91870983D01*
X132174056Y-92048469D01*
X132112504Y-92237906D01*
X132112504Y-92237909D01*
X132112504Y-92237911D01*
X132081343Y-92434653D01*
X132081343Y-92633847D01*
X132094465Y-92716697D01*
X132112504Y-92830590D01*
X132112504Y-92830593D01*
X132174056Y-93020030D01*
X132250766Y-93170581D01*
X132264490Y-93197516D01*
X132381574Y-93358668D01*
X132522425Y-93499519D01*
X132683577Y-93616603D01*
X132730340Y-93640430D01*
X132835015Y-93693765D01*
X132885811Y-93741740D01*
X132902606Y-93809561D01*
X132880068Y-93875696D01*
X132835015Y-93914735D01*
X132683576Y-93991897D01*
X132591633Y-94058697D01*
X132522425Y-94108981D01*
X132522423Y-94108983D01*
X132522422Y-94108983D01*
X132381576Y-94249829D01*
X132381576Y-94249830D01*
X132381574Y-94249832D01*
X132351220Y-94291611D01*
X132264490Y-94410983D01*
X132174056Y-94588469D01*
X132112504Y-94777906D01*
X132112504Y-94777909D01*
X132081343Y-94974653D01*
X132081343Y-95173846D01*
X132112504Y-95370590D01*
X132112504Y-95370593D01*
X132174056Y-95560030D01*
X132245247Y-95699750D01*
X132264490Y-95737516D01*
X132381574Y-95898668D01*
X132522425Y-96039519D01*
X132683577Y-96156603D01*
X132693204Y-96161508D01*
X132835015Y-96233765D01*
X132885811Y-96281740D01*
X132902606Y-96349561D01*
X132880068Y-96415696D01*
X132835015Y-96454735D01*
X132683576Y-96531897D01*
X132591633Y-96598697D01*
X132522425Y-96648981D01*
X132522423Y-96648983D01*
X132522422Y-96648983D01*
X132381576Y-96789829D01*
X132381576Y-96789830D01*
X132381574Y-96789832D01*
X132331290Y-96859040D01*
X132264490Y-96950983D01*
X132174056Y-97128469D01*
X132112504Y-97317906D01*
X132112504Y-97317909D01*
X132081343Y-97514653D01*
X132081343Y-97713846D01*
X132112504Y-97910590D01*
X132112504Y-97910593D01*
X132174056Y-98100030D01*
X132174058Y-98100033D01*
X132264490Y-98277516D01*
X132381574Y-98438668D01*
X132522425Y-98579519D01*
X132683577Y-98696603D01*
X132753296Y-98732127D01*
X132835015Y-98773765D01*
X132885811Y-98821740D01*
X132902606Y-98889561D01*
X132880068Y-98955696D01*
X132835015Y-98994735D01*
X132683576Y-99071897D01*
X132591633Y-99138697D01*
X132522425Y-99188981D01*
X132522423Y-99188983D01*
X132522422Y-99188983D01*
X132381576Y-99329829D01*
X132381576Y-99329830D01*
X132381574Y-99329832D01*
X132331290Y-99399040D01*
X132264490Y-99490983D01*
X132174056Y-99668469D01*
X132112504Y-99857906D01*
X132112504Y-99857909D01*
X132081343Y-100054653D01*
X132081343Y-100253846D01*
X132112504Y-100450590D01*
X132112504Y-100450593D01*
X132174056Y-100640030D01*
X132174058Y-100640033D01*
X132264490Y-100817516D01*
X132381574Y-100978668D01*
X132522425Y-101119519D01*
X132683577Y-101236603D01*
X132753296Y-101272127D01*
X132835015Y-101313765D01*
X132885811Y-101361740D01*
X132902606Y-101429561D01*
X132880068Y-101495696D01*
X132835015Y-101534735D01*
X132683576Y-101611897D01*
X132591633Y-101678697D01*
X132522425Y-101728981D01*
X132522423Y-101728983D01*
X132522422Y-101728983D01*
X132381576Y-101869829D01*
X132381576Y-101869830D01*
X132381574Y-101869832D01*
X132331290Y-101939040D01*
X132264490Y-102030983D01*
X132174056Y-102208469D01*
X132112504Y-102397906D01*
X132112504Y-102397909D01*
X132081343Y-102594653D01*
X132081343Y-102793846D01*
X132112504Y-102990590D01*
X132112504Y-102990593D01*
X132174056Y-103180030D01*
X132174058Y-103180033D01*
X132264490Y-103357516D01*
X132381574Y-103518668D01*
X132522425Y-103659519D01*
X132683577Y-103776603D01*
X132749101Y-103809989D01*
X132835015Y-103853765D01*
X132885811Y-103901740D01*
X132902606Y-103969561D01*
X132880068Y-104035696D01*
X132835015Y-104074735D01*
X132683576Y-104151897D01*
X132591633Y-104218697D01*
X132522425Y-104268981D01*
X132522423Y-104268983D01*
X132522422Y-104268983D01*
X132381576Y-104409829D01*
X132381576Y-104409830D01*
X132381574Y-104409832D01*
X132331290Y-104479040D01*
X132264490Y-104570983D01*
X132174056Y-104748469D01*
X132112504Y-104937906D01*
X132112504Y-104937909D01*
X132081343Y-105134653D01*
X132081343Y-105333846D01*
X132112504Y-105530590D01*
X132112504Y-105530593D01*
X132174056Y-105720030D01*
X132233836Y-105837354D01*
X132264490Y-105897516D01*
X132381574Y-106058668D01*
X132522425Y-106199519D01*
X132683577Y-106316603D01*
X132716198Y-106333224D01*
X132835015Y-106393765D01*
X132885811Y-106441740D01*
X132902606Y-106509561D01*
X132880068Y-106575696D01*
X132835015Y-106614735D01*
X132683576Y-106691897D01*
X132591633Y-106758697D01*
X132522425Y-106808981D01*
X132522423Y-106808983D01*
X132522422Y-106808983D01*
X132381576Y-106949829D01*
X132381576Y-106949830D01*
X132381574Y-106949832D01*
X132331290Y-107019040D01*
X132264490Y-107110983D01*
X132174056Y-107288469D01*
X132112504Y-107477906D01*
X132112504Y-107477909D01*
X132081343Y-107674653D01*
X132081343Y-107873847D01*
X132092255Y-107942744D01*
X132112504Y-108070590D01*
X132112504Y-108070593D01*
X132174056Y-108260030D01*
X132217131Y-108344569D01*
X132264490Y-108437516D01*
X132381574Y-108598668D01*
X132522425Y-108739519D01*
X132683577Y-108856603D01*
X132753296Y-108892127D01*
X132835015Y-108933765D01*
X132885811Y-108981740D01*
X132902606Y-109049561D01*
X132880068Y-109115696D01*
X132835015Y-109154735D01*
X132683576Y-109231897D01*
X132591633Y-109298697D01*
X132522425Y-109348981D01*
X132522423Y-109348983D01*
X132522422Y-109348983D01*
X132381576Y-109489829D01*
X132381576Y-109489830D01*
X132381574Y-109489832D01*
X132331290Y-109559040D01*
X132264490Y-109650983D01*
X132174056Y-109828469D01*
X132112504Y-110017906D01*
X132112504Y-110017909D01*
X132112139Y-110020215D01*
X132081343Y-110214653D01*
X132081343Y-110413847D01*
X132092255Y-110482744D01*
X132112504Y-110610590D01*
X132112504Y-110610593D01*
X132174056Y-110800030D01*
X132232499Y-110914730D01*
X132264490Y-110977516D01*
X132381574Y-111138668D01*
X132522425Y-111279519D01*
X132683577Y-111396603D01*
X132851369Y-111482097D01*
X132861062Y-111487036D01*
X133050500Y-111548588D01*
X133050501Y-111548588D01*
X133050504Y-111548589D01*
X133247246Y-111579750D01*
X133247247Y-111579750D01*
X133446439Y-111579750D01*
X133446440Y-111579750D01*
X133643182Y-111548589D01*
X133643185Y-111548588D01*
X133643186Y-111548588D01*
X133832623Y-111487036D01*
X133832623Y-111487035D01*
X133832626Y-111487035D01*
X134010109Y-111396603D01*
X134171261Y-111279519D01*
X134312112Y-111138668D01*
X134429196Y-110977516D01*
X134519628Y-110800033D01*
X134530897Y-110765350D01*
X134581181Y-110610593D01*
X134581181Y-110610592D01*
X134581182Y-110610589D01*
X134612343Y-110413847D01*
X134612343Y-110214653D01*
X134581182Y-110017911D01*
X134581181Y-110017907D01*
X134581181Y-110017906D01*
X134519629Y-109828469D01*
X134519628Y-109828467D01*
X134429196Y-109650984D01*
X134312112Y-109489832D01*
X134171261Y-109348981D01*
X134010109Y-109231897D01*
X133858670Y-109154735D01*
X133807874Y-109106760D01*
X133791079Y-109038939D01*
X133813616Y-108972804D01*
X133858670Y-108933765D01*
X133867959Y-108929031D01*
X134010109Y-108856603D01*
X134171261Y-108739519D01*
X134312112Y-108598668D01*
X134429196Y-108437516D01*
X134519628Y-108260033D01*
X134545227Y-108181248D01*
X134581181Y-108070593D01*
X134581181Y-108070592D01*
X134581182Y-108070589D01*
X134612343Y-107873847D01*
X134612343Y-107674653D01*
X134581182Y-107477911D01*
X134581181Y-107477907D01*
X134581181Y-107477906D01*
X134519629Y-107288469D01*
X134429195Y-107110983D01*
X134415079Y-107091554D01*
X134312112Y-106949832D01*
X134171261Y-106808981D01*
X134010109Y-106691897D01*
X133858670Y-106614735D01*
X133807874Y-106566760D01*
X133791079Y-106498939D01*
X133813616Y-106432804D01*
X133858670Y-106393765D01*
X133867959Y-106389031D01*
X134010109Y-106316603D01*
X134171261Y-106199519D01*
X134312112Y-106058668D01*
X134429196Y-105897516D01*
X134519628Y-105720033D01*
X134525540Y-105701837D01*
X134581181Y-105530593D01*
X134581181Y-105530592D01*
X134581182Y-105530589D01*
X134612343Y-105333847D01*
X134612343Y-105134653D01*
X134581182Y-104937911D01*
X134581181Y-104937907D01*
X134581181Y-104937906D01*
X134519629Y-104748469D01*
X134429195Y-104570983D01*
X134312112Y-104409832D01*
X134171261Y-104268981D01*
X134010109Y-104151897D01*
X133858670Y-104074735D01*
X133807874Y-104026760D01*
X133791079Y-103958939D01*
X133813616Y-103892804D01*
X133858670Y-103853765D01*
X133892234Y-103836663D01*
X134010109Y-103776603D01*
X134171261Y-103659519D01*
X134312112Y-103518668D01*
X134429196Y-103357516D01*
X134519628Y-103180033D01*
X134581182Y-102990589D01*
X134612343Y-102793847D01*
X134612343Y-102594653D01*
X134581182Y-102397911D01*
X134581181Y-102397907D01*
X134581181Y-102397906D01*
X134519629Y-102208469D01*
X134429195Y-102030983D01*
X134312112Y-101869832D01*
X134171261Y-101728981D01*
X134010109Y-101611897D01*
X133960445Y-101586592D01*
X133858670Y-101534735D01*
X133807874Y-101486760D01*
X133791079Y-101418939D01*
X133813616Y-101352804D01*
X133858670Y-101313765D01*
X133867959Y-101309031D01*
X134010109Y-101236603D01*
X134171261Y-101119519D01*
X134312112Y-100978668D01*
X134429196Y-100817516D01*
X134519628Y-100640033D01*
X134581182Y-100450589D01*
X134612343Y-100253847D01*
X134612343Y-100054653D01*
X134581182Y-99857911D01*
X134581181Y-99857907D01*
X134581181Y-99857906D01*
X134519629Y-99668469D01*
X134429195Y-99490983D01*
X134312112Y-99329832D01*
X134171261Y-99188981D01*
X134010109Y-99071897D01*
X133858670Y-98994735D01*
X133807874Y-98946760D01*
X133791079Y-98878939D01*
X133813616Y-98812804D01*
X133858670Y-98773765D01*
X133867959Y-98769031D01*
X134010109Y-98696603D01*
X134171261Y-98579519D01*
X134312112Y-98438668D01*
X134429196Y-98277516D01*
X134519628Y-98100033D01*
X134581182Y-97910589D01*
X134612343Y-97713847D01*
X134612343Y-97514653D01*
X134581182Y-97317911D01*
X134581181Y-97317907D01*
X134581181Y-97317906D01*
X134519629Y-97128469D01*
X134429195Y-96950983D01*
X134312112Y-96789832D01*
X134171261Y-96648981D01*
X134012456Y-96533602D01*
X134010104Y-96531893D01*
X133858670Y-96454733D01*
X133849516Y-96446088D01*
X133837850Y-96441353D01*
X133824596Y-96422552D01*
X133807874Y-96406759D01*
X133804847Y-96394537D01*
X133797593Y-96384247D01*
X133796607Y-96361264D01*
X133791079Y-96338938D01*
X133795140Y-96327020D01*
X133794601Y-96314441D01*
X133806197Y-96294575D01*
X133813617Y-96272803D01*
X133824320Y-96263528D01*
X133829824Y-96254100D01*
X133858665Y-96233767D01*
X134000495Y-96161500D01*
X134004132Y-96159722D01*
X134845700Y-95765237D01*
X134960399Y-95711473D01*
X135013029Y-95699750D01*
X135367098Y-95699750D01*
X135434137Y-95719435D01*
X135454779Y-95736069D01*
X143185731Y-103467021D01*
X143219216Y-103528344D01*
X143222050Y-103554702D01*
X143222050Y-105544652D01*
X143202365Y-105611691D01*
X143149561Y-105657446D01*
X143080403Y-105667390D01*
X143041755Y-105655137D01*
X142919700Y-105592947D01*
X142696577Y-105520451D01*
X142580715Y-105502100D01*
X142464855Y-105483750D01*
X142230245Y-105483750D01*
X142153004Y-105495983D01*
X141998522Y-105520451D01*
X141775399Y-105592947D01*
X141566354Y-105699462D01*
X141376560Y-105837354D01*
X141376555Y-105837358D01*
X141210658Y-106003255D01*
X141210654Y-106003260D01*
X141072762Y-106193054D01*
X140966247Y-106402099D01*
X140893751Y-106625222D01*
X140857050Y-106856945D01*
X140857050Y-107091554D01*
X140893751Y-107323277D01*
X140966247Y-107546400D01*
X141072762Y-107755445D01*
X141210654Y-107945239D01*
X141210658Y-107945244D01*
X141376555Y-108111141D01*
X141376560Y-108111145D01*
X141421687Y-108143932D01*
X141464353Y-108199262D01*
X141470332Y-108268875D01*
X141437726Y-108330670D01*
X141421687Y-108344568D01*
X141376560Y-108377354D01*
X141376555Y-108377358D01*
X141210658Y-108543255D01*
X141210654Y-108543260D01*
X141072762Y-108733054D01*
X140966247Y-108942099D01*
X140893751Y-109165222D01*
X140857050Y-109396945D01*
X140857050Y-109631554D01*
X140893751Y-109863277D01*
X140966247Y-110086400D01*
X141072762Y-110295445D01*
X141210654Y-110485239D01*
X141210658Y-110485244D01*
X141376555Y-110651141D01*
X141376560Y-110651145D01*
X141525873Y-110759626D01*
X141566358Y-110789040D01*
X141765060Y-110890284D01*
X141775399Y-110895552D01*
X141874163Y-110927642D01*
X141998524Y-110968049D01*
X142230245Y-111004750D01*
X142230246Y-111004750D01*
X142464854Y-111004750D01*
X142464855Y-111004750D01*
X142696576Y-110968049D01*
X142919703Y-110895551D01*
X143020395Y-110844245D01*
X143089062Y-110831349D01*
X143153803Y-110857624D01*
X143194060Y-110914730D01*
X143197053Y-110984536D01*
X143194929Y-110992083D01*
X143082173Y-111349007D01*
X143081139Y-111352279D01*
X143080555Y-111354131D01*
X143077813Y-111360753D01*
X143076706Y-111366316D01*
X143075211Y-111371050D01*
X143075178Y-111371163D01*
X143075154Y-111371241D01*
X143067729Y-111397154D01*
X143067425Y-111398332D01*
X143067424Y-111398336D01*
X143053158Y-111480288D01*
X143051527Y-111492895D01*
X143047050Y-111515404D01*
X143047050Y-111673096D01*
X143077811Y-111827739D01*
X143077814Y-111827751D01*
X143138152Y-111973422D01*
X143138159Y-111973435D01*
X143225760Y-112104538D01*
X143225763Y-112104542D01*
X143337257Y-112216036D01*
X143337261Y-112216039D01*
X143468364Y-112303640D01*
X143468377Y-112303647D01*
X143614048Y-112363985D01*
X143614053Y-112363987D01*
X143768703Y-112394749D01*
X143768706Y-112394750D01*
X143768708Y-112394750D01*
X143926394Y-112394750D01*
X143926395Y-112394749D01*
X144081047Y-112363987D01*
X144226729Y-112303644D01*
X144357839Y-112216039D01*
X144469339Y-112104539D01*
X144494948Y-112066213D01*
X144548560Y-112021408D01*
X144617885Y-112012701D01*
X144680913Y-112042855D01*
X144717632Y-112102298D01*
X144722050Y-112135104D01*
X144722050Y-115395888D01*
X144715811Y-115417133D01*
X144714232Y-115439222D01*
X144706159Y-115450005D01*
X144702365Y-115462927D01*
X144685631Y-115477426D01*
X144672360Y-115495155D01*
X144659739Y-115499862D01*
X144649561Y-115508682D01*
X144627643Y-115511833D01*
X144606896Y-115519572D01*
X144593735Y-115516709D01*
X144580403Y-115518626D01*
X144560259Y-115509426D01*
X144538623Y-115504720D01*
X144520897Y-115491451D01*
X144516847Y-115489601D01*
X144510369Y-115483569D01*
X144451965Y-115425165D01*
X144429260Y-115393973D01*
X144413914Y-115363985D01*
X143736179Y-114039605D01*
X143730772Y-114026580D01*
X143730717Y-114026603D01*
X143728852Y-114022101D01*
X143728851Y-114022097D01*
X143622340Y-113813058D01*
X143622337Y-113813054D01*
X143608735Y-113794333D01*
X143608734Y-113794331D01*
X143608147Y-113793523D01*
X143564188Y-113730965D01*
X143559878Y-113727086D01*
X143511726Y-113660810D01*
X143484443Y-113623257D01*
X143318544Y-113457358D01*
X143318539Y-113457354D01*
X143128745Y-113319462D01*
X143128744Y-113319461D01*
X143128742Y-113319460D01*
X142968537Y-113237831D01*
X142919700Y-113212947D01*
X142696577Y-113140451D01*
X142580715Y-113122100D01*
X142464855Y-113103750D01*
X142230245Y-113103750D01*
X142153004Y-113115983D01*
X141998522Y-113140451D01*
X141775399Y-113212947D01*
X141566354Y-113319462D01*
X141376560Y-113457354D01*
X141376555Y-113457358D01*
X141210658Y-113623255D01*
X141210654Y-113623260D01*
X141072762Y-113813054D01*
X140966247Y-114022099D01*
X140893751Y-114245222D01*
X140873824Y-114371037D01*
X140857050Y-114476945D01*
X140857050Y-114711555D01*
X140875400Y-114827415D01*
X140893751Y-114943277D01*
X140966247Y-115166400D01*
X140991538Y-115216036D01*
X141066923Y-115363987D01*
X141072762Y-115375445D01*
X141210654Y-115565239D01*
X141210658Y-115565244D01*
X141376555Y-115731141D01*
X141376560Y-115731145D01*
X141421687Y-115763932D01*
X141464353Y-115819262D01*
X141470332Y-115888875D01*
X141437726Y-115950670D01*
X141421687Y-115964568D01*
X141376560Y-115997354D01*
X141376555Y-115997358D01*
X141210658Y-116163255D01*
X141210654Y-116163260D01*
X141072762Y-116353054D01*
X140966247Y-116562099D01*
X140893751Y-116785222D01*
X140877292Y-116889144D01*
X140857050Y-117016945D01*
X140857050Y-117251555D01*
X140860829Y-117275412D01*
X140893751Y-117483277D01*
X140966247Y-117706400D01*
X141012020Y-117796233D01*
X141062236Y-117894788D01*
X141072762Y-117915445D01*
X141210654Y-118105239D01*
X141210658Y-118105244D01*
X141376555Y-118271141D01*
X141376560Y-118271145D01*
X141421687Y-118303932D01*
X141464353Y-118359262D01*
X141470332Y-118428875D01*
X141437726Y-118490670D01*
X141421687Y-118504568D01*
X141376560Y-118537354D01*
X141376555Y-118537358D01*
X141210658Y-118703255D01*
X141210654Y-118703260D01*
X141072762Y-118893054D01*
X140966247Y-119102099D01*
X140893751Y-119325222D01*
X140857050Y-119556945D01*
X140857050Y-119791554D01*
X140893751Y-120023277D01*
X140966247Y-120246400D01*
X141019504Y-120350922D01*
X141035235Y-120381796D01*
X141072762Y-120455445D01*
X141210654Y-120645239D01*
X141210658Y-120645244D01*
X141376555Y-120811141D01*
X141376560Y-120811145D01*
X141421687Y-120843932D01*
X141464353Y-120899262D01*
X141470332Y-120968875D01*
X141437726Y-121030670D01*
X141421687Y-121044568D01*
X141376560Y-121077354D01*
X141376555Y-121077358D01*
X141210658Y-121243255D01*
X141210654Y-121243260D01*
X141072762Y-121433054D01*
X140966247Y-121642099D01*
X140893751Y-121865222D01*
X140876614Y-121973422D01*
X140857050Y-122096945D01*
X140857050Y-122331555D01*
X140862187Y-122363987D01*
X140893751Y-122563277D01*
X140966247Y-122786400D01*
X141072762Y-122995445D01*
X141210654Y-123185239D01*
X141210658Y-123185244D01*
X141376555Y-123351141D01*
X141376560Y-123351145D01*
X141498049Y-123439411D01*
X141566358Y-123489040D01*
X141775397Y-123595551D01*
X141775399Y-123595552D01*
X141840136Y-123616586D01*
X141998524Y-123668049D01*
X142230245Y-123704750D01*
X142230246Y-123704750D01*
X142464854Y-123704750D01*
X142464855Y-123704750D01*
X142696576Y-123668049D01*
X142919703Y-123595551D01*
X143016756Y-123546099D01*
X143085424Y-123533204D01*
X143150164Y-123559480D01*
X143190422Y-123616586D01*
X143197050Y-123656585D01*
X143197050Y-126407945D01*
X143231653Y-126581908D01*
X143231656Y-126581917D01*
X143299533Y-126745790D01*
X143299540Y-126745803D01*
X143398085Y-126893284D01*
X143398088Y-126893288D01*
X143523511Y-127018711D01*
X143523515Y-127018714D01*
X143670996Y-127117259D01*
X143671009Y-127117266D01*
X143793913Y-127168173D01*
X143834884Y-127185144D01*
X143834886Y-127185144D01*
X143834891Y-127185146D01*
X144008854Y-127219749D01*
X144008857Y-127219750D01*
X144008859Y-127219750D01*
X144186243Y-127219750D01*
X144186244Y-127219749D01*
X144244232Y-127208214D01*
X144360208Y-127185146D01*
X144360211Y-127185144D01*
X144360216Y-127185144D01*
X144524097Y-127117263D01*
X144671585Y-127018714D01*
X144797014Y-126893285D01*
X144895563Y-126745797D01*
X144963444Y-126581916D01*
X144998050Y-126407941D01*
X144998050Y-122492007D01*
X145017735Y-122424968D01*
X145070539Y-122379213D01*
X145139697Y-122369269D01*
X145146242Y-122370390D01*
X145268705Y-122394750D01*
X145268708Y-122394750D01*
X145426394Y-122394750D01*
X145426395Y-122394749D01*
X145581047Y-122363987D01*
X145726729Y-122303644D01*
X145857839Y-122216039D01*
X145969339Y-122104539D01*
X146056944Y-121973429D01*
X146117287Y-121827747D01*
X146148050Y-121673092D01*
X146148050Y-121515408D01*
X146148050Y-121515405D01*
X146137397Y-121461856D01*
X146122534Y-121387131D01*
X146119884Y-121371037D01*
X146118395Y-121366324D01*
X146117287Y-121360753D01*
X146116592Y-121359075D01*
X146112923Y-121349003D01*
X145978810Y-120924472D01*
X145973050Y-120887119D01*
X145973050Y-118011858D01*
X145992735Y-117944819D01*
X146045539Y-117899064D01*
X146114697Y-117889120D01*
X146121208Y-117890234D01*
X146143908Y-117894750D01*
X146143909Y-117894750D01*
X146301594Y-117894750D01*
X146301595Y-117894749D01*
X146456247Y-117863987D01*
X146594539Y-117806705D01*
X146601922Y-117803647D01*
X146601922Y-117803646D01*
X146601929Y-117803644D01*
X146733039Y-117716039D01*
X146844539Y-117604539D01*
X146932144Y-117473429D01*
X146992487Y-117327747D01*
X147023250Y-117173092D01*
X147023250Y-117015408D01*
X147023250Y-117015405D01*
X147012597Y-116961856D01*
X146997734Y-116887131D01*
X146995084Y-116871037D01*
X146993595Y-116866324D01*
X146992487Y-116860753D01*
X146991792Y-116859075D01*
X146988123Y-116849003D01*
X146854010Y-116424472D01*
X146848250Y-116387119D01*
X146848250Y-115518750D01*
X146867935Y-115451711D01*
X146920739Y-115405956D01*
X146972250Y-115394750D01*
X147065294Y-115394750D01*
X147065295Y-115394749D01*
X147219947Y-115363987D01*
X147365629Y-115303644D01*
X147496739Y-115216039D01*
X147608239Y-115104539D01*
X147695844Y-114973429D01*
X147756187Y-114827747D01*
X147786950Y-114673092D01*
X147786950Y-114515408D01*
X147786950Y-114515405D01*
X147776297Y-114461856D01*
X147761434Y-114387131D01*
X147758784Y-114371037D01*
X147757295Y-114366324D01*
X147756187Y-114360753D01*
X147755492Y-114359075D01*
X147751823Y-114349003D01*
X147617710Y-113924472D01*
X147611950Y-113887119D01*
X147611950Y-110616622D01*
X147631635Y-110549583D01*
X147684439Y-110503828D01*
X147753597Y-110493884D01*
X147758377Y-110494702D01*
X147758857Y-110494750D01*
X147758859Y-110494750D01*
X147936243Y-110494750D01*
X147936244Y-110494749D01*
X148010047Y-110480069D01*
X148110208Y-110460146D01*
X148110208Y-110460145D01*
X148110216Y-110460144D01*
X148145501Y-110445528D01*
X148214965Y-110438060D01*
X148277445Y-110469334D01*
X148313098Y-110529423D01*
X148316950Y-110560090D01*
X148316950Y-119682945D01*
X148351553Y-119856908D01*
X148351556Y-119856917D01*
X148419433Y-120020790D01*
X148419440Y-120020803D01*
X148517985Y-120168284D01*
X148517988Y-120168288D01*
X148643411Y-120293711D01*
X148643415Y-120293714D01*
X148790896Y-120392259D01*
X148790909Y-120392266D01*
X148913813Y-120443173D01*
X148954784Y-120460144D01*
X148954786Y-120460144D01*
X148954791Y-120460146D01*
X149128754Y-120494749D01*
X149128757Y-120494750D01*
X149128759Y-120494750D01*
X149306143Y-120494750D01*
X149306144Y-120494749D01*
X149364132Y-120483214D01*
X149480108Y-120460146D01*
X149480111Y-120460144D01*
X149480116Y-120460144D01*
X149643997Y-120392263D01*
X149791485Y-120293714D01*
X149916914Y-120168285D01*
X150015463Y-120020797D01*
X150016321Y-120018727D01*
X150059508Y-119914462D01*
X150083344Y-119856916D01*
X150096346Y-119791554D01*
X150117949Y-119682945D01*
X150117950Y-119682943D01*
X150117950Y-95648711D01*
X150137635Y-95581672D01*
X150154264Y-95561034D01*
X151008265Y-94707033D01*
X151011129Y-94705470D01*
X151012838Y-94702687D01*
X151041583Y-94688840D01*
X151069586Y-94673550D01*
X151072843Y-94673782D01*
X151075785Y-94672366D01*
X151107444Y-94676257D01*
X151139277Y-94678534D01*
X151141892Y-94680491D01*
X151145133Y-94680890D01*
X151169671Y-94701287D01*
X151195211Y-94720406D01*
X151197101Y-94724087D01*
X151198864Y-94725553D01*
X151214180Y-94757350D01*
X151216286Y-94764014D01*
X151222050Y-94801380D01*
X151222050Y-113995861D01*
X151246085Y-114116694D01*
X151246089Y-114116707D01*
X151293238Y-114230535D01*
X151293242Y-114230543D01*
X151298256Y-114238046D01*
X151298260Y-114238051D01*
X151361691Y-114332982D01*
X151361694Y-114332986D01*
X151453136Y-114424428D01*
X151453158Y-114424448D01*
X154519928Y-117491218D01*
X154553413Y-117552541D01*
X154548429Y-117622233D01*
X154506557Y-117678166D01*
X154456439Y-117700516D01*
X154316490Y-117728354D01*
X154316482Y-117728356D01*
X154152609Y-117796233D01*
X154152596Y-117796240D01*
X154005115Y-117894785D01*
X154005111Y-117894788D01*
X153879688Y-118020211D01*
X153879685Y-118020215D01*
X153781140Y-118167696D01*
X153781133Y-118167709D01*
X153713256Y-118331582D01*
X153713253Y-118331591D01*
X153678650Y-118505554D01*
X153678650Y-121438287D01*
X153658965Y-121505326D01*
X153642331Y-121525968D01*
X146961557Y-128206741D01*
X146921246Y-128233655D01*
X145684088Y-128745062D01*
X145652904Y-128753406D01*
X145485764Y-128775411D01*
X145251445Y-128838197D01*
X145027344Y-128931023D01*
X145027335Y-128931027D01*
X144817256Y-129052317D01*
X144624813Y-129199983D01*
X144624806Y-129199989D01*
X144453289Y-129371506D01*
X144453283Y-129371513D01*
X144305617Y-129563956D01*
X144184327Y-129774035D01*
X144184323Y-129774044D01*
X144091497Y-129998145D01*
X144028711Y-130232464D01*
X143997050Y-130472961D01*
X143997050Y-130715538D01*
X144028711Y-130956035D01*
X144091497Y-131190354D01*
X144147387Y-131325284D01*
X144184326Y-131414462D01*
X144305614Y-131624539D01*
X144305616Y-131624542D01*
X144305617Y-131624543D01*
X144453283Y-131816986D01*
X144453289Y-131816993D01*
X144624806Y-131988510D01*
X144624812Y-131988515D01*
X144817261Y-132136186D01*
X145027338Y-132257474D01*
X145251450Y-132350304D01*
X145485761Y-132413088D01*
X145666136Y-132436834D01*
X145726261Y-132444750D01*
X145726262Y-132444750D01*
X145968839Y-132444750D01*
X146016938Y-132438417D01*
X146209339Y-132413088D01*
X146443650Y-132350304D01*
X146667762Y-132257474D01*
X146877839Y-132136186D01*
X147070288Y-131988515D01*
X147241815Y-131816988D01*
X147389486Y-131624539D01*
X147510774Y-131414462D01*
X147603604Y-131190350D01*
X147666388Y-130956039D01*
X147688392Y-130788884D01*
X147696732Y-130757713D01*
X148208143Y-129520549D01*
X148235053Y-129480245D01*
X155278614Y-122436686D01*
X155318086Y-122377609D01*
X155377163Y-122289197D01*
X155415885Y-122195713D01*
X155445045Y-122125316D01*
X155479650Y-121951342D01*
X155479650Y-121773958D01*
X155479650Y-118836385D01*
X155499335Y-118769346D01*
X155552139Y-118723591D01*
X155621297Y-118713647D01*
X155684853Y-118742672D01*
X155721122Y-118796683D01*
X156128700Y-120002659D01*
X156132612Y-120018542D01*
X156132614Y-120018542D01*
X156132658Y-120018727D01*
X156133700Y-120022955D01*
X156133751Y-120023277D01*
X156206247Y-120246400D01*
X156259504Y-120350922D01*
X156275235Y-120381796D01*
X156312762Y-120455445D01*
X156450654Y-120645239D01*
X156450658Y-120645244D01*
X156616555Y-120811141D01*
X156616560Y-120811145D01*
X156661687Y-120843932D01*
X156704353Y-120899262D01*
X156710332Y-120968875D01*
X156677726Y-121030670D01*
X156661687Y-121044568D01*
X156616560Y-121077354D01*
X156616555Y-121077358D01*
X156450658Y-121243255D01*
X156450654Y-121243260D01*
X156312762Y-121433054D01*
X156206247Y-121642099D01*
X156133751Y-121865222D01*
X156116614Y-121973422D01*
X156097050Y-122096945D01*
X156097050Y-122331555D01*
X156102187Y-122363987D01*
X156133751Y-122563277D01*
X156206247Y-122786400D01*
X156312762Y-122995445D01*
X156450654Y-123185239D01*
X156450658Y-123185244D01*
X156616555Y-123351141D01*
X156616560Y-123351145D01*
X156738049Y-123439411D01*
X156806358Y-123489040D01*
X157015397Y-123595551D01*
X157015399Y-123595552D01*
X157080136Y-123616586D01*
X157238524Y-123668049D01*
X157470245Y-123704750D01*
X157470246Y-123704750D01*
X157704854Y-123704750D01*
X157704855Y-123704750D01*
X157936576Y-123668049D01*
X158159703Y-123595551D01*
X158368742Y-123489040D01*
X158558546Y-123351140D01*
X158724440Y-123185246D01*
X158724445Y-123185239D01*
X158727612Y-123181533D01*
X158729029Y-123182744D01*
X158778052Y-123144936D01*
X158847665Y-123138951D01*
X158909463Y-123171551D01*
X158943825Y-123232387D01*
X158947050Y-123260483D01*
X158947050Y-128419888D01*
X158927365Y-128486927D01*
X158910731Y-128507569D01*
X157760869Y-129657431D01*
X157733941Y-129672134D01*
X157708123Y-129688727D01*
X157701922Y-129689618D01*
X157699546Y-129690916D01*
X157673188Y-129693750D01*
X157521912Y-129693750D01*
X157454873Y-129674065D01*
X157434231Y-129657431D01*
X156784369Y-129007569D01*
X156750884Y-128946246D01*
X156748050Y-128919888D01*
X156748050Y-124135747D01*
X156748049Y-124135745D01*
X156713446Y-123961782D01*
X156713443Y-123961773D01*
X156645566Y-123797900D01*
X156645559Y-123797887D01*
X156547014Y-123650406D01*
X156547011Y-123650402D01*
X156421588Y-123524979D01*
X156421584Y-123524976D01*
X156274103Y-123426431D01*
X156274090Y-123426424D01*
X156110217Y-123358547D01*
X156110208Y-123358544D01*
X155936244Y-123323941D01*
X155936241Y-123323941D01*
X155758859Y-123323941D01*
X155758856Y-123323941D01*
X155584891Y-123358544D01*
X155584882Y-123358547D01*
X155421009Y-123426424D01*
X155420996Y-123426431D01*
X155273515Y-123524976D01*
X155273511Y-123524979D01*
X155148088Y-123650402D01*
X155148085Y-123650406D01*
X155049540Y-123797887D01*
X155049533Y-123797900D01*
X154981656Y-123961773D01*
X154981653Y-123961782D01*
X154947050Y-124135745D01*
X154947050Y-129432946D01*
X154981653Y-129606908D01*
X154981655Y-129606916D01*
X155011393Y-129678710D01*
X155011399Y-129678722D01*
X155012709Y-129681885D01*
X155049537Y-129770797D01*
X155066536Y-129796237D01*
X155123315Y-129881213D01*
X155148087Y-129918288D01*
X156523509Y-131293710D01*
X156523512Y-131293712D01*
X156523514Y-131293714D01*
X156575234Y-131328272D01*
X156671003Y-131392263D01*
X156752943Y-131426203D01*
X156834884Y-131460145D01*
X157008853Y-131494749D01*
X157008857Y-131494750D01*
X157008858Y-131494750D01*
X158186243Y-131494750D01*
X158186244Y-131494749D01*
X158360216Y-131460145D01*
X158442156Y-131426203D01*
X158524097Y-131392263D01*
X158619866Y-131328272D01*
X158671586Y-131293714D01*
X160547014Y-129418285D01*
X160578267Y-129371512D01*
X160645563Y-129270797D01*
X160686378Y-129172260D01*
X160713445Y-129106916D01*
X160748050Y-128932942D01*
X160748050Y-128755558D01*
X160748050Y-65005559D01*
X160713445Y-64831584D01*
X160660745Y-64704357D01*
X160645563Y-64667703D01*
X160645561Y-64667701D01*
X160645561Y-64667699D01*
X160547015Y-64520216D01*
X160491236Y-64464437D01*
X160421585Y-64394786D01*
X154921586Y-58894786D01*
X154921585Y-58894785D01*
X154921580Y-58894781D01*
X154867172Y-58858428D01*
X154867166Y-58858425D01*
X154862509Y-58855313D01*
X154774097Y-58796237D01*
X154692156Y-58762296D01*
X154610216Y-58728355D01*
X154610208Y-58728353D01*
X154436246Y-58693750D01*
X154436242Y-58693750D01*
X154436241Y-58693750D01*
X143771912Y-58693750D01*
X143704873Y-58674065D01*
X143684231Y-58657431D01*
X143053204Y-58026404D01*
X143019719Y-57965081D01*
X143024703Y-57895389D01*
X143066575Y-57839456D01*
X143132039Y-57815039D01*
X143188337Y-57824161D01*
X143251450Y-57850304D01*
X143485761Y-57913088D01*
X143666136Y-57936834D01*
X143726261Y-57944750D01*
X143726262Y-57944750D01*
X143968839Y-57944750D01*
X144016938Y-57938417D01*
X144209339Y-57913088D01*
X144443650Y-57850304D01*
X144667762Y-57757474D01*
X144877839Y-57636186D01*
X145070288Y-57488515D01*
X145241815Y-57316988D01*
X145389486Y-57124539D01*
X145510774Y-56914462D01*
X145603604Y-56690350D01*
X145666388Y-56456039D01*
X145698050Y-56215538D01*
X145698050Y-55972962D01*
X145666388Y-55732461D01*
X145603604Y-55498150D01*
X145510774Y-55274038D01*
X145389486Y-55063961D01*
X145241815Y-54871512D01*
X145241810Y-54871506D01*
X145070293Y-54699989D01*
X145070286Y-54699983D01*
X144877843Y-54552317D01*
X144877842Y-54552316D01*
X144877839Y-54552314D01*
X144667762Y-54431026D01*
X144618191Y-54410493D01*
X144443654Y-54338197D01*
X144209335Y-54275411D01*
X143968839Y-54243750D01*
X143968838Y-54243750D01*
X143726262Y-54243750D01*
X143726261Y-54243750D01*
X143485764Y-54275411D01*
X143251445Y-54338197D01*
X143027344Y-54431023D01*
X143027335Y-54431027D01*
X142817256Y-54552317D01*
X142624813Y-54699983D01*
X142624806Y-54699989D01*
X142453289Y-54871506D01*
X142453283Y-54871513D01*
X142305617Y-55063956D01*
X142184327Y-55274035D01*
X142184323Y-55274044D01*
X142091497Y-55498145D01*
X142028711Y-55732464D01*
X141997050Y-55972961D01*
X141997050Y-56215538D01*
X142028711Y-56456035D01*
X142091497Y-56690354D01*
X142117637Y-56753461D01*
X142125106Y-56822931D01*
X142093831Y-56885410D01*
X142033742Y-56921062D01*
X141963917Y-56918568D01*
X141915395Y-56888595D01*
X141539224Y-56512424D01*
X141522111Y-56491031D01*
X141519040Y-56486177D01*
X141519036Y-56486171D01*
X140675247Y-55498145D01*
X140548876Y-55350172D01*
X140528610Y-55317100D01*
X140510774Y-55274038D01*
X140389486Y-55063961D01*
X140241815Y-54871512D01*
X140241810Y-54871506D01*
X140070293Y-54699989D01*
X140070286Y-54699983D01*
X139877843Y-54552317D01*
X139877842Y-54552316D01*
X139877839Y-54552314D01*
X139667762Y-54431026D01*
X139667750Y-54431020D01*
X139443653Y-54338197D01*
X139443651Y-54338196D01*
X139443650Y-54338196D01*
X139258192Y-54288501D01*
X139242835Y-54283288D01*
X139223818Y-54275411D01*
X139110216Y-54228355D01*
X139110208Y-54228353D01*
X138936246Y-54193750D01*
X138936242Y-54193750D01*
X138758858Y-54193750D01*
X138758853Y-54193750D01*
X138584891Y-54228353D01*
X138584879Y-54228356D01*
X138452262Y-54283288D01*
X138436905Y-54288501D01*
X138251455Y-54338194D01*
X138251448Y-54338196D01*
X138027349Y-54431020D01*
X138027335Y-54431027D01*
X137817256Y-54552317D01*
X137624813Y-54699983D01*
X137624806Y-54699989D01*
X137453289Y-54871506D01*
X137453283Y-54871513D01*
X137305617Y-55063956D01*
X137184327Y-55274035D01*
X137184323Y-55274044D01*
X137091497Y-55498145D01*
X137028711Y-55732464D01*
X136997050Y-55972961D01*
X136997050Y-56215538D01*
X137028711Y-56456035D01*
X137091497Y-56690354D01*
X137184323Y-56914455D01*
X137184327Y-56914464D01*
X137206524Y-56952911D01*
X137305614Y-57124539D01*
X137305616Y-57124542D01*
X137305617Y-57124543D01*
X137453283Y-57316986D01*
X137453289Y-57316993D01*
X137624806Y-57488510D01*
X137624812Y-57488515D01*
X137817261Y-57636186D01*
X138027338Y-57757474D01*
X138251450Y-57850304D01*
X138485761Y-57913088D01*
X138666136Y-57936834D01*
X138726261Y-57944750D01*
X138726262Y-57944750D01*
X138968839Y-57944750D01*
X139008921Y-57939473D01*
X139209339Y-57913088D01*
X139269193Y-57897049D01*
X139301382Y-57892824D01*
X140322196Y-57893657D01*
X140389220Y-57913396D01*
X140409776Y-57929976D01*
X142773516Y-60293716D01*
X142807876Y-60316673D01*
X142832590Y-60333186D01*
X142921003Y-60392263D01*
X143002943Y-60426203D01*
X143009030Y-60428724D01*
X143009035Y-60428727D01*
X143045490Y-60443827D01*
X143084884Y-60460145D01*
X143258853Y-60494749D01*
X143258857Y-60494750D01*
X143258858Y-60494750D01*
X143258859Y-60494750D01*
X153923188Y-60494750D01*
X153990227Y-60514435D01*
X154010869Y-60531069D01*
X158910731Y-65430930D01*
X158944216Y-65492253D01*
X158947050Y-65518611D01*
X158947050Y-105928016D01*
X158927365Y-105995055D01*
X158874561Y-106040810D01*
X158805403Y-106050754D01*
X158741847Y-106021729D01*
X158727995Y-106006639D01*
X158727612Y-106006967D01*
X158724441Y-106003255D01*
X158558544Y-105837358D01*
X158558539Y-105837354D01*
X158368745Y-105699462D01*
X158368744Y-105699461D01*
X158368742Y-105699460D01*
X158264222Y-105646204D01*
X158159700Y-105592947D01*
X157936577Y-105520451D01*
X157820715Y-105502100D01*
X157704855Y-105483750D01*
X157470245Y-105483750D01*
X157393004Y-105495983D01*
X157238522Y-105520451D01*
X157015399Y-105592947D01*
X156806356Y-105699460D01*
X156806099Y-105699648D01*
X156802477Y-105701837D01*
X156802206Y-105702004D01*
X156802205Y-105702002D01*
X156788220Y-105710458D01*
X155524235Y-106335889D01*
X155469243Y-106348750D01*
X154597050Y-106348750D01*
X154530011Y-106329065D01*
X154484256Y-106276261D01*
X154473050Y-106224750D01*
X154473050Y-65550751D01*
X154478810Y-65513398D01*
X154491435Y-65473435D01*
X154614537Y-65083757D01*
X154617287Y-65077120D01*
X154618396Y-65071543D01*
X154619884Y-65066834D01*
X154627301Y-65040984D01*
X154627612Y-65039780D01*
X154641518Y-64960013D01*
X154641517Y-64960011D01*
X154641939Y-64957596D01*
X154643573Y-64944968D01*
X154648050Y-64922464D01*
X154648050Y-64764778D01*
X154648049Y-64764776D01*
X154638162Y-64715071D01*
X154617287Y-64610126D01*
X154606448Y-64583957D01*
X154556947Y-64464450D01*
X154556940Y-64464437D01*
X154469339Y-64333334D01*
X154469336Y-64333330D01*
X154357842Y-64221836D01*
X154357838Y-64221833D01*
X154226735Y-64134232D01*
X154226722Y-64134225D01*
X154081051Y-64073887D01*
X154081039Y-64073884D01*
X153926395Y-64043123D01*
X153926392Y-64043123D01*
X153768708Y-64043123D01*
X153768705Y-64043123D01*
X153614060Y-64073884D01*
X153614048Y-64073887D01*
X153468377Y-64134225D01*
X153468364Y-64134232D01*
X153337261Y-64221833D01*
X153337257Y-64221836D01*
X153332131Y-64226963D01*
X153270808Y-64260448D01*
X153201116Y-64255464D01*
X153145183Y-64213592D01*
X153120766Y-64148128D01*
X153120450Y-64139282D01*
X153120450Y-61755556D01*
X153120449Y-61755554D01*
X153085846Y-61581591D01*
X153085843Y-61581582D01*
X153017966Y-61417709D01*
X153017959Y-61417696D01*
X152919414Y-61270215D01*
X152919411Y-61270211D01*
X152793988Y-61144788D01*
X152793984Y-61144785D01*
X152646503Y-61046240D01*
X152646490Y-61046233D01*
X152482617Y-60978356D01*
X152482608Y-60978353D01*
X152308644Y-60943750D01*
X152308641Y-60943750D01*
X152131259Y-60943750D01*
X152131256Y-60943750D01*
X151957291Y-60978353D01*
X151957282Y-60978356D01*
X151793409Y-61046233D01*
X151793396Y-61046240D01*
X151645915Y-61144785D01*
X151645911Y-61144788D01*
X151520488Y-61270211D01*
X151520485Y-61270215D01*
X151421940Y-61417696D01*
X151421933Y-61417709D01*
X151354056Y-61581582D01*
X151354053Y-61581591D01*
X151319450Y-61755554D01*
X151319450Y-91797487D01*
X151299765Y-91864526D01*
X151283131Y-91885168D01*
X150168730Y-92999568D01*
X150107407Y-93033053D01*
X150037715Y-93028069D01*
X149981782Y-92986197D01*
X149957365Y-92920733D01*
X149957049Y-92911913D01*
X149957049Y-91372378D01*
X149950641Y-91312767D01*
X149944089Y-91295201D01*
X149900347Y-91177921D01*
X149900343Y-91177914D01*
X149814097Y-91062705D01*
X149814094Y-91062702D01*
X149735032Y-91003516D01*
X149693161Y-90947583D01*
X149688177Y-90877891D01*
X149721663Y-90816568D01*
X149735032Y-90804984D01*
X149779965Y-90771346D01*
X149814096Y-90745796D01*
X149900346Y-90630581D01*
X149950641Y-90495733D01*
X149957050Y-90436123D01*
X149957049Y-88832378D01*
X149950641Y-88772767D01*
X149938757Y-88740905D01*
X149900347Y-88637921D01*
X149900343Y-88637914D01*
X149814097Y-88522705D01*
X149814094Y-88522702D01*
X149735032Y-88463516D01*
X149693161Y-88407583D01*
X149688177Y-88337891D01*
X149721663Y-88276568D01*
X149735032Y-88264984D01*
X149814096Y-88205796D01*
X149900346Y-88090581D01*
X149950641Y-87955733D01*
X149957050Y-87896123D01*
X149957049Y-86292378D01*
X149950641Y-86232767D01*
X149934526Y-86189561D01*
X149900347Y-86097921D01*
X149900343Y-86097914D01*
X149814097Y-85982705D01*
X149814094Y-85982702D01*
X149698885Y-85896456D01*
X149698878Y-85896452D01*
X149564032Y-85846158D01*
X149564033Y-85846158D01*
X149504433Y-85839751D01*
X149504431Y-85839750D01*
X149504423Y-85839750D01*
X149504415Y-85839750D01*
X148247050Y-85839750D01*
X148180011Y-85820065D01*
X148134256Y-85767261D01*
X148123050Y-85715750D01*
X148123050Y-83874777D01*
X148142735Y-83807738D01*
X148190024Y-83764668D01*
X149120826Y-83282637D01*
X149177849Y-83268749D01*
X149504421Y-83268749D01*
X149504422Y-83268749D01*
X149564033Y-83262341D01*
X149698881Y-83212046D01*
X149814096Y-83125796D01*
X149900346Y-83010581D01*
X149950641Y-82875733D01*
X149957050Y-82816123D01*
X149957049Y-81212378D01*
X149950641Y-81152767D01*
X149934526Y-81109561D01*
X149900347Y-81017921D01*
X149900343Y-81017914D01*
X149814097Y-80902705D01*
X149814094Y-80902702D01*
X149698885Y-80816456D01*
X149698878Y-80816452D01*
X149564032Y-80766158D01*
X149564033Y-80766158D01*
X149504433Y-80759751D01*
X149504431Y-80759750D01*
X149504423Y-80759750D01*
X149504414Y-80759750D01*
X147900679Y-80759750D01*
X147900673Y-80759751D01*
X147841066Y-80766158D01*
X147706221Y-80816452D01*
X147706214Y-80816456D01*
X147591005Y-80902702D01*
X147591002Y-80902705D01*
X147504756Y-81017914D01*
X147504752Y-81017921D01*
X147454458Y-81152767D01*
X147449223Y-81201463D01*
X147448051Y-81212373D01*
X147448050Y-81212385D01*
X147448050Y-81538946D01*
X147434161Y-81595969D01*
X146809329Y-82802519D01*
X146786901Y-82833175D01*
X146745181Y-82874895D01*
X146745177Y-82874901D01*
X146660314Y-83001906D01*
X146660309Y-83001915D01*
X146601852Y-83143044D01*
X146601850Y-83143052D01*
X146572050Y-83292865D01*
X146572050Y-94624797D01*
X146552365Y-94691836D01*
X146499561Y-94737591D01*
X146430403Y-94747535D01*
X146366847Y-94718510D01*
X146360369Y-94712478D01*
X138853725Y-87205835D01*
X138843409Y-87195519D01*
X138843408Y-87195517D01*
X138756283Y-87108392D01*
X138693152Y-87066209D01*
X138653836Y-87039938D01*
X138653837Y-87039938D01*
X138653835Y-87039937D01*
X138572043Y-87006059D01*
X138572044Y-87006059D01*
X138564663Y-87003002D01*
X138540002Y-86992787D01*
X138479579Y-86980768D01*
X138475457Y-86979948D01*
X138475453Y-86979947D01*
X138419160Y-86968750D01*
X138419157Y-86968750D01*
X138419156Y-86968750D01*
X136337296Y-86968750D01*
X136270257Y-86949065D01*
X136249615Y-86932431D01*
X134967310Y-85650127D01*
X134938385Y-85604624D01*
X134709730Y-84972460D01*
X134580410Y-84614927D01*
X134578561Y-84584888D01*
X134574279Y-84555103D01*
X134576438Y-84550375D01*
X134576119Y-84545189D01*
X134590799Y-84518927D01*
X134603304Y-84491547D01*
X134607677Y-84488736D01*
X134610212Y-84484202D01*
X134636761Y-84470045D01*
X134662082Y-84453773D01*
X134669197Y-84452749D01*
X134671864Y-84451328D01*
X134697017Y-84448750D01*
X134766098Y-84448750D01*
X134833137Y-84468435D01*
X134853779Y-84485069D01*
X135905232Y-85536522D01*
X135927572Y-85567007D01*
X136132933Y-85962038D01*
X136137464Y-85971759D01*
X136138156Y-85973429D01*
X136138525Y-85974119D01*
X136142894Y-85981282D01*
X136156823Y-86006396D01*
X136157437Y-86007435D01*
X136205135Y-86075238D01*
X136212999Y-86085440D01*
X136225760Y-86104538D01*
X136225763Y-86104542D01*
X136337257Y-86216036D01*
X136337261Y-86216039D01*
X136468364Y-86303640D01*
X136468377Y-86303647D01*
X136614048Y-86363985D01*
X136614053Y-86363987D01*
X136768703Y-86394749D01*
X136768706Y-86394750D01*
X136768708Y-86394750D01*
X136926394Y-86394750D01*
X136926395Y-86394749D01*
X137081047Y-86363987D01*
X137226729Y-86303644D01*
X137357839Y-86216039D01*
X137469339Y-86104539D01*
X137556944Y-85973429D01*
X137617287Y-85827747D01*
X137648050Y-85673092D01*
X137648050Y-85515408D01*
X137648050Y-85515405D01*
X137648049Y-85515403D01*
X137625100Y-85400033D01*
X137617287Y-85360753D01*
X137617285Y-85360748D01*
X137556947Y-85215077D01*
X137556940Y-85215064D01*
X137469339Y-85083961D01*
X137469336Y-85083957D01*
X137357842Y-84972463D01*
X137357838Y-84972460D01*
X137250803Y-84900941D01*
X137250803Y-84900940D01*
X137249073Y-84899784D01*
X137235838Y-84890292D01*
X137231459Y-84888015D01*
X137226736Y-84884860D01*
X137226722Y-84884852D01*
X137225076Y-84884171D01*
X137215329Y-84879630D01*
X137050058Y-84793712D01*
X136820309Y-84674274D01*
X136789824Y-84651934D01*
X135569921Y-83432031D01*
X135562410Y-83424520D01*
X135562408Y-83424517D01*
X135475283Y-83337392D01*
X135416613Y-83298190D01*
X135410216Y-83293916D01*
X135410211Y-83293911D01*
X135372840Y-83268940D01*
X135372836Y-83268938D01*
X135356909Y-83262341D01*
X135292342Y-83235597D01*
X135259002Y-83221787D01*
X135198579Y-83209768D01*
X135193856Y-83208828D01*
X135193854Y-83208828D01*
X135138160Y-83197750D01*
X135138157Y-83197750D01*
X135138156Y-83197750D01*
X134549902Y-83197750D01*
X134482863Y-83178065D01*
X134437108Y-83125261D01*
X134427164Y-83056103D01*
X134439416Y-83017458D01*
X134519628Y-82860033D01*
X134533898Y-82816114D01*
X134581181Y-82670593D01*
X134581181Y-82670592D01*
X134581182Y-82670589D01*
X134612343Y-82473847D01*
X134612343Y-82274653D01*
X134581182Y-82077911D01*
X134581181Y-82077907D01*
X134581181Y-82077906D01*
X134519629Y-81888469D01*
X134512590Y-81874654D01*
X134429196Y-81710984D01*
X134312112Y-81549832D01*
X134171261Y-81408981D01*
X134010109Y-81291897D01*
X133832623Y-81201463D01*
X133643185Y-81139911D01*
X133451560Y-81109561D01*
X133446440Y-81108750D01*
X133247246Y-81108750D01*
X133242126Y-81109561D01*
X133050502Y-81139911D01*
X133050499Y-81139911D01*
X132861062Y-81201463D01*
X132683576Y-81291897D01*
X132610765Y-81344798D01*
X132522425Y-81408981D01*
X132522423Y-81408983D01*
X132522422Y-81408983D01*
X132381576Y-81549829D01*
X132381576Y-81549830D01*
X132381574Y-81549832D01*
X132367539Y-81569150D01*
X132264488Y-81710985D01*
X132181094Y-81874654D01*
X132133120Y-81925449D01*
X132065299Y-81942244D01*
X131999164Y-81919706D01*
X131982929Y-81906039D01*
X131509369Y-81432479D01*
X131475884Y-81371156D01*
X131473050Y-81344798D01*
X131473050Y-71404702D01*
X131492735Y-71337663D01*
X131509369Y-71317021D01*
X132266967Y-70559423D01*
X132271684Y-70556847D01*
X132274649Y-70552361D01*
X132302028Y-70540277D01*
X132328290Y-70525938D01*
X132333652Y-70526321D01*
X132338571Y-70524151D01*
X132368131Y-70528787D01*
X132397982Y-70530922D01*
X132403703Y-70534366D01*
X132407597Y-70534977D01*
X132424614Y-70546954D01*
X132437042Y-70554436D01*
X132439747Y-70556841D01*
X132522425Y-70639519D01*
X132578284Y-70680103D01*
X132596054Y-70695577D01*
X132597587Y-70696803D01*
X132631713Y-70719107D01*
X132636726Y-70722563D01*
X132666824Y-70744431D01*
X132683575Y-70756602D01*
X132835015Y-70833765D01*
X132885811Y-70881740D01*
X132902606Y-70949561D01*
X132880068Y-71015696D01*
X132835015Y-71054735D01*
X132683576Y-71131897D01*
X132591633Y-71198697D01*
X132522425Y-71248981D01*
X132522423Y-71248983D01*
X132522422Y-71248983D01*
X132381576Y-71389829D01*
X132381576Y-71389830D01*
X132381574Y-71389832D01*
X132331290Y-71459040D01*
X132264490Y-71550983D01*
X132174056Y-71728469D01*
X132112504Y-71917906D01*
X132112504Y-71917909D01*
X132081343Y-72114653D01*
X132081343Y-72313846D01*
X132112504Y-72510590D01*
X132112504Y-72510593D01*
X132174056Y-72700030D01*
X132174058Y-72700033D01*
X132264490Y-72877516D01*
X132381574Y-73038668D01*
X132522425Y-73179519D01*
X132683577Y-73296603D01*
X132753296Y-73332127D01*
X132835015Y-73373765D01*
X132885811Y-73421740D01*
X132902606Y-73489561D01*
X132880068Y-73555696D01*
X132835015Y-73594735D01*
X132683576Y-73671897D01*
X132591633Y-73738697D01*
X132522425Y-73788981D01*
X132522423Y-73788983D01*
X132522422Y-73788983D01*
X132381576Y-73929829D01*
X132381576Y-73929830D01*
X132381574Y-73929832D01*
X132331290Y-73999040D01*
X132264490Y-74090983D01*
X132174056Y-74268469D01*
X132112504Y-74457906D01*
X132112504Y-74457909D01*
X132081343Y-74654653D01*
X132081343Y-74853846D01*
X132112504Y-75050590D01*
X132112504Y-75050593D01*
X132174056Y-75240030D01*
X132174058Y-75240033D01*
X132264490Y-75417516D01*
X132381574Y-75578668D01*
X132522425Y-75719519D01*
X132683577Y-75836603D01*
X132753296Y-75872127D01*
X132835015Y-75913765D01*
X132885811Y-75961740D01*
X132902606Y-76029561D01*
X132880068Y-76095696D01*
X132835015Y-76134735D01*
X132683576Y-76211897D01*
X132591633Y-76278697D01*
X132522425Y-76328981D01*
X132522423Y-76328983D01*
X132522422Y-76328983D01*
X132381576Y-76469829D01*
X132381576Y-76469830D01*
X132381574Y-76469832D01*
X132331290Y-76539040D01*
X132264490Y-76630983D01*
X132174056Y-76808469D01*
X132112504Y-76997906D01*
X132112504Y-76997909D01*
X132081343Y-77194653D01*
X132081343Y-77393846D01*
X132112504Y-77590590D01*
X132112504Y-77590593D01*
X132174056Y-77780030D01*
X132174058Y-77780033D01*
X132264490Y-77957516D01*
X132381574Y-78118668D01*
X132522425Y-78259519D01*
X132683577Y-78376603D01*
X132732843Y-78401705D01*
X132861062Y-78467036D01*
X133050500Y-78528588D01*
X133050501Y-78528588D01*
X133050504Y-78528589D01*
X133247246Y-78559750D01*
X133247247Y-78559750D01*
X133446439Y-78559750D01*
X133446440Y-78559750D01*
X133643182Y-78528589D01*
X133643185Y-78528588D01*
X133643186Y-78528588D01*
X133832623Y-78467036D01*
X133832623Y-78467035D01*
X133832626Y-78467035D01*
X134010109Y-78376603D01*
X134171261Y-78259519D01*
X134312112Y-78118668D01*
X134429196Y-77957516D01*
X134519628Y-77780033D01*
X134581182Y-77590589D01*
X134612343Y-77393847D01*
X134612343Y-77194653D01*
X134581182Y-76997911D01*
X134581181Y-76997907D01*
X134581181Y-76997906D01*
X134519629Y-76808469D01*
X134429195Y-76630983D01*
X134312112Y-76469832D01*
X134171261Y-76328981D01*
X134010109Y-76211897D01*
X133858670Y-76134735D01*
X133807874Y-76086760D01*
X133791079Y-76018939D01*
X133813616Y-75952804D01*
X133858670Y-75913765D01*
X133867959Y-75909031D01*
X134010109Y-75836603D01*
X134171261Y-75719519D01*
X134312112Y-75578668D01*
X134429196Y-75417516D01*
X134519628Y-75240033D01*
X134581182Y-75050589D01*
X134612343Y-74853847D01*
X134612343Y-74654653D01*
X134581182Y-74457911D01*
X134581181Y-74457907D01*
X134581181Y-74457906D01*
X134519629Y-74268469D01*
X134429195Y-74090983D01*
X134312112Y-73929832D01*
X134171261Y-73788981D01*
X134010109Y-73671897D01*
X133858670Y-73594735D01*
X133807874Y-73546760D01*
X133791079Y-73478939D01*
X133813616Y-73412804D01*
X133858670Y-73373765D01*
X133867959Y-73369031D01*
X134010109Y-73296603D01*
X134171261Y-73179519D01*
X134312112Y-73038668D01*
X134429196Y-72877516D01*
X134519628Y-72700033D01*
X134581182Y-72510589D01*
X134612343Y-72313847D01*
X134612343Y-72114653D01*
X134581182Y-71917911D01*
X134581181Y-71917907D01*
X134581181Y-71917906D01*
X134519629Y-71728469D01*
X134429195Y-71550983D01*
X134312112Y-71389832D01*
X134171261Y-71248981D01*
X134010109Y-71131897D01*
X133858670Y-71054735D01*
X133807874Y-71006760D01*
X133791079Y-70938939D01*
X133813616Y-70872804D01*
X133858670Y-70833765D01*
X133889033Y-70818294D01*
X134010109Y-70756603D01*
X134171261Y-70639519D01*
X134312112Y-70498668D01*
X134429196Y-70337516D01*
X134519628Y-70160033D01*
X134581182Y-69970589D01*
X134612343Y-69773847D01*
X134612343Y-69574653D01*
X134581182Y-69377911D01*
X134581181Y-69377907D01*
X134581181Y-69377906D01*
X134519629Y-69188469D01*
X134478828Y-69108392D01*
X134429196Y-69010984D01*
X134312112Y-68849832D01*
X134171261Y-68708981D01*
X134010109Y-68591897D01*
X133858670Y-68514735D01*
X133807874Y-68466760D01*
X133791079Y-68398939D01*
X133813616Y-68332804D01*
X133858670Y-68293765D01*
X133867959Y-68289031D01*
X134010109Y-68216603D01*
X134171261Y-68099519D01*
X134312112Y-67958668D01*
X134429196Y-67797516D01*
X134519628Y-67620033D01*
X134561267Y-67491881D01*
X134581181Y-67430593D01*
X134581181Y-67430592D01*
X134581182Y-67430589D01*
X134612343Y-67233847D01*
X134612343Y-67034653D01*
X134581182Y-66837911D01*
X134581181Y-66837907D01*
X134581181Y-66837906D01*
X134519629Y-66648469D01*
X134429195Y-66470983D01*
X134312112Y-66309832D01*
X134171261Y-66168981D01*
X134010109Y-66051897D01*
X133964655Y-66028737D01*
X133832623Y-65961463D01*
X133643185Y-65899911D01*
X133495625Y-65876540D01*
X133446440Y-65868750D01*
X133247246Y-65868750D01*
X133181665Y-65879137D01*
X133050502Y-65899911D01*
X133050499Y-65899911D01*
X132861062Y-65961463D01*
X132683576Y-66051897D01*
X132591633Y-66118697D01*
X132522425Y-66168981D01*
X132522423Y-66168983D01*
X132522422Y-66168983D01*
X132381576Y-66309829D01*
X132381576Y-66309830D01*
X132381574Y-66309832D01*
X132331290Y-66379040D01*
X132264490Y-66470983D01*
X132174056Y-66648469D01*
X132112504Y-66837906D01*
X132112504Y-66837909D01*
X132081343Y-67034653D01*
X132081343Y-67233846D01*
X132112504Y-67430590D01*
X132112504Y-67430593D01*
X132174056Y-67620030D01*
X132174058Y-67620033D01*
X132264490Y-67797516D01*
X132381574Y-67958668D01*
X132522425Y-68099519D01*
X132683577Y-68216603D01*
X132753296Y-68252127D01*
X132835015Y-68293765D01*
X132885811Y-68341740D01*
X132902606Y-68409561D01*
X132880068Y-68475696D01*
X132835015Y-68514735D01*
X132683576Y-68591897D01*
X132522426Y-68708980D01*
X132381572Y-68849833D01*
X132371725Y-68863385D01*
X132357405Y-68879829D01*
X132285748Y-68948802D01*
X132223947Y-68981081D01*
X132223797Y-68981110D01*
X132223797Y-68981111D01*
X132223796Y-68981110D01*
X132165106Y-68992784D01*
X132165102Y-68992786D01*
X132165100Y-68992786D01*
X132165099Y-68992787D01*
X132123052Y-69010202D01*
X132051263Y-69039938D01*
X132051259Y-69039940D01*
X132002103Y-69072787D01*
X132002102Y-69072788D01*
X131948816Y-69108392D01*
X131948812Y-69108395D01*
X130719693Y-70337516D01*
X130448819Y-70608390D01*
X130448817Y-70608392D01*
X130417693Y-70639516D01*
X130361692Y-70695516D01*
X130343670Y-70722488D01*
X130343659Y-70722505D01*
X130342352Y-70724462D01*
X130293238Y-70797964D01*
X130288579Y-70809213D01*
X130284820Y-70818286D01*
X130284816Y-70818294D01*
X130246088Y-70911794D01*
X130246085Y-70911806D01*
X130222050Y-71032639D01*
X108435265Y-71032639D01*
X108433211Y-71030690D01*
X108407874Y-71006760D01*
X108407836Y-71006607D01*
X108407722Y-71006499D01*
X108399426Y-70972649D01*
X108391079Y-70938939D01*
X108391129Y-70938790D01*
X108391092Y-70938637D01*
X108402364Y-70905824D01*
X108413616Y-70872804D01*
X108413744Y-70872692D01*
X108413791Y-70872558D01*
X108415027Y-70871581D01*
X108458670Y-70833765D01*
X108489033Y-70818294D01*
X108610109Y-70756603D01*
X108771261Y-70639519D01*
X108912112Y-70498668D01*
X109029196Y-70337516D01*
X109119628Y-70160033D01*
X109181182Y-69970589D01*
X109212343Y-69773847D01*
X109212343Y-69574653D01*
X109181182Y-69377911D01*
X109181181Y-69377907D01*
X109181181Y-69377906D01*
X109119629Y-69188469D01*
X109078828Y-69108392D01*
X109029196Y-69010984D01*
X108912112Y-68849832D01*
X108771261Y-68708981D01*
X108610109Y-68591897D01*
X108458670Y-68514735D01*
X108407874Y-68466760D01*
X108391079Y-68398939D01*
X108413616Y-68332804D01*
X108458670Y-68293765D01*
X108467959Y-68289031D01*
X108610109Y-68216603D01*
X108771261Y-68099519D01*
X108912112Y-67958668D01*
X109029196Y-67797516D01*
X109119628Y-67620033D01*
X109161267Y-67491881D01*
X109181181Y-67430593D01*
X109181181Y-67430592D01*
X109181182Y-67430589D01*
X109212343Y-67233847D01*
X109212343Y-67034653D01*
X109181182Y-66837911D01*
X109181181Y-66837907D01*
X109181181Y-66837906D01*
X109119629Y-66648469D01*
X109029195Y-66470983D01*
X108912112Y-66309832D01*
X108771261Y-66168981D01*
X108654386Y-66084066D01*
X108611721Y-66028737D01*
X108605742Y-65959124D01*
X108638348Y-65897329D01*
X108699186Y-65862972D01*
X108727271Y-65859749D01*
X108759715Y-65859749D01*
X108819326Y-65853341D01*
X108954174Y-65803046D01*
X109069389Y-65716796D01*
X109155639Y-65601581D01*
X109205934Y-65466733D01*
X109212343Y-65407123D01*
X109212343Y-65015403D01*
X140547050Y-65015403D01*
X140547050Y-65173096D01*
X140577811Y-65327739D01*
X140577814Y-65327751D01*
X140638152Y-65473422D01*
X140638159Y-65473435D01*
X140725760Y-65604538D01*
X140725763Y-65604542D01*
X140837257Y-65716036D01*
X140837265Y-65716042D01*
X140933658Y-65780450D01*
X140952449Y-65795871D01*
X143535731Y-68379153D01*
X143569216Y-68440476D01*
X143572050Y-68466834D01*
X143572050Y-78377513D01*
X143569667Y-78401705D01*
X143547050Y-78515405D01*
X143547050Y-78673096D01*
X143577811Y-78827739D01*
X143577814Y-78827751D01*
X143638152Y-78973422D01*
X143638159Y-78973435D01*
X143725760Y-79104538D01*
X143725763Y-79104542D01*
X143837257Y-79216036D01*
X143837261Y-79216039D01*
X143968364Y-79303640D01*
X143968377Y-79303647D01*
X144076584Y-79348467D01*
X144114053Y-79363987D01*
X144268703Y-79394749D01*
X144268706Y-79394750D01*
X144268708Y-79394750D01*
X144426394Y-79394750D01*
X144426395Y-79394749D01*
X144581047Y-79363987D01*
X144726729Y-79303644D01*
X144857839Y-79216039D01*
X144969339Y-79104539D01*
X145056944Y-78973429D01*
X145117287Y-78827747D01*
X145148050Y-78673092D01*
X145148050Y-78515408D01*
X145148050Y-78515405D01*
X145125433Y-78401705D01*
X145123050Y-78377513D01*
X145123050Y-68017869D01*
X145123049Y-68017865D01*
X145093249Y-67868052D01*
X145093248Y-67868045D01*
X145034789Y-67726913D01*
X145034788Y-67726912D01*
X145034785Y-67726906D01*
X144949921Y-67599899D01*
X144949920Y-67599898D01*
X144841902Y-67491880D01*
X142049171Y-64699149D01*
X142033750Y-64680358D01*
X141969342Y-64583965D01*
X141969336Y-64583957D01*
X141857842Y-64472463D01*
X141857838Y-64472460D01*
X141726735Y-64384859D01*
X141726722Y-64384852D01*
X141581051Y-64324514D01*
X141581039Y-64324511D01*
X141426395Y-64293750D01*
X141426392Y-64293750D01*
X141268708Y-64293750D01*
X141268705Y-64293750D01*
X141114060Y-64324511D01*
X141114048Y-64324514D01*
X140968377Y-64384852D01*
X140968364Y-64384859D01*
X140837261Y-64472460D01*
X140837257Y-64472463D01*
X140725763Y-64583957D01*
X140725760Y-64583961D01*
X140638159Y-64715064D01*
X140638152Y-64715077D01*
X140577814Y-64860748D01*
X140577811Y-64860760D01*
X140547050Y-65015403D01*
X109212343Y-65015403D01*
X109212342Y-64583965D01*
X109212342Y-63781379D01*
X109212341Y-63781373D01*
X109212340Y-63781366D01*
X109205934Y-63721767D01*
X109155639Y-63586919D01*
X109155638Y-63586918D01*
X109155636Y-63586914D01*
X109069390Y-63471705D01*
X109069387Y-63471702D01*
X108954178Y-63385456D01*
X108954171Y-63385452D01*
X108819325Y-63335158D01*
X108819326Y-63335158D01*
X108759726Y-63328751D01*
X108759724Y-63328750D01*
X108759716Y-63328750D01*
X108759707Y-63328750D01*
X107133972Y-63328750D01*
X107133966Y-63328751D01*
X107074359Y-63335158D01*
X106939514Y-63385452D01*
X106939507Y-63385456D01*
X106824298Y-63471702D01*
X106824295Y-63471705D01*
X106738049Y-63586914D01*
X106738045Y-63586921D01*
X106687751Y-63721767D01*
X106681344Y-63781366D01*
X106681344Y-63781373D01*
X106681343Y-63781385D01*
X99848050Y-63781385D01*
X99848050Y-53987963D01*
X100997050Y-53987963D01*
X100997050Y-54200536D01*
X101030303Y-54410489D01*
X101095994Y-54612664D01*
X101192501Y-54802070D01*
X101317440Y-54974036D01*
X101467763Y-55124359D01*
X101639729Y-55249298D01*
X101639731Y-55249299D01*
X101639734Y-55249301D01*
X101829138Y-55345807D01*
X102031307Y-55411496D01*
X102241263Y-55444750D01*
X102241264Y-55444750D01*
X102453836Y-55444750D01*
X102453837Y-55444750D01*
X102663793Y-55411496D01*
X102865962Y-55345807D01*
X103055366Y-55249301D01*
X103077339Y-55233336D01*
X103227336Y-55124359D01*
X103227338Y-55124356D01*
X103227342Y-55124354D01*
X103377654Y-54974042D01*
X103377656Y-54974038D01*
X103377659Y-54974036D01*
X103502598Y-54802070D01*
X103502597Y-54802070D01*
X103502601Y-54802066D01*
X103599107Y-54612662D01*
X103664796Y-54410493D01*
X103698050Y-54200537D01*
X103698050Y-53987963D01*
X165497050Y-53987963D01*
X165497050Y-54200536D01*
X165530303Y-54410489D01*
X165595994Y-54612664D01*
X165692501Y-54802070D01*
X165817440Y-54974036D01*
X165967763Y-55124359D01*
X166139729Y-55249298D01*
X166139731Y-55249299D01*
X166139734Y-55249301D01*
X166329138Y-55345807D01*
X166531307Y-55411496D01*
X166741263Y-55444750D01*
X166741264Y-55444750D01*
X166953836Y-55444750D01*
X166953837Y-55444750D01*
X167163793Y-55411496D01*
X167365962Y-55345807D01*
X167555366Y-55249301D01*
X167577339Y-55233336D01*
X167727336Y-55124359D01*
X167727338Y-55124356D01*
X167727342Y-55124354D01*
X167877654Y-54974042D01*
X167877656Y-54974038D01*
X167877659Y-54974036D01*
X168002598Y-54802070D01*
X168002597Y-54802070D01*
X168002601Y-54802066D01*
X168099107Y-54612662D01*
X168164796Y-54410493D01*
X168198050Y-54200537D01*
X168198050Y-53987963D01*
X168164796Y-53778007D01*
X168099107Y-53575838D01*
X168002601Y-53386434D01*
X168002599Y-53386431D01*
X168002598Y-53386429D01*
X167877659Y-53214463D01*
X167727336Y-53064140D01*
X167555370Y-52939201D01*
X167365964Y-52842694D01*
X167365963Y-52842693D01*
X167365962Y-52842693D01*
X167163793Y-52777004D01*
X167163791Y-52777003D01*
X167163790Y-52777003D01*
X167002507Y-52751458D01*
X166953837Y-52743750D01*
X166741263Y-52743750D01*
X166692592Y-52751458D01*
X166531310Y-52777003D01*
X166329135Y-52842694D01*
X166139729Y-52939201D01*
X165967763Y-53064140D01*
X165817440Y-53214463D01*
X165692501Y-53386429D01*
X165595994Y-53575835D01*
X165530303Y-53778010D01*
X165497050Y-53987963D01*
X103698050Y-53987963D01*
X103664796Y-53778007D01*
X103599107Y-53575838D01*
X103502601Y-53386434D01*
X103502599Y-53386431D01*
X103502598Y-53386429D01*
X103377659Y-53214463D01*
X103227336Y-53064140D01*
X103055370Y-52939201D01*
X102865964Y-52842694D01*
X102865963Y-52842693D01*
X102865962Y-52842693D01*
X102663793Y-52777004D01*
X102663791Y-52777003D01*
X102663790Y-52777003D01*
X102502507Y-52751458D01*
X102453837Y-52743750D01*
X102241263Y-52743750D01*
X102192592Y-52751458D01*
X102031310Y-52777003D01*
X101829135Y-52842694D01*
X101639729Y-52939201D01*
X101467763Y-53064140D01*
X101317440Y-53214463D01*
X101192501Y-53386429D01*
X101095994Y-53575835D01*
X101030303Y-53778010D01*
X100997050Y-53987963D01*
X99848050Y-53987963D01*
X99848050Y-51718750D01*
X99867735Y-51651711D01*
X99920539Y-51605956D01*
X99972050Y-51594750D01*
X169223050Y-51594750D01*
X169290089Y-51614435D01*
G37*
%TD.AperFunction*%
%TD*%
%TA.AperFunction,Conductor*%
%TO.N,Net-(U1-IO16)*%
G36*
X145472249Y-121003441D02*
G01*
X145475133Y-121008190D01*
X145637865Y-121523312D01*
X145637089Y-121532233D01*
X145630232Y-121537993D01*
X145629028Y-121538304D01*
X145349870Y-121594780D01*
X145345230Y-121594780D01*
X145112103Y-121547616D01*
X145066070Y-121538303D01*
X145058642Y-121533304D01*
X145056923Y-121524516D01*
X145057230Y-121523325D01*
X145219967Y-121008189D01*
X145225727Y-121001333D01*
X145231124Y-121000014D01*
X145463976Y-121000014D01*
X145472249Y-121003441D01*
G37*
%TD.AperFunction*%
%TD*%
%TA.AperFunction,Conductor*%
%TO.N,Net-(U1-IO16)*%
G36*
X133780389Y-91906456D02*
G01*
X133781908Y-91907669D01*
X134773482Y-92843894D01*
X134777145Y-92852064D01*
X134773957Y-92860432D01*
X134773723Y-92860673D01*
X134607834Y-93026562D01*
X134602188Y-93029690D01*
X133507828Y-93281845D01*
X133498997Y-93280363D01*
X133493800Y-93273071D01*
X133493736Y-93272777D01*
X133347087Y-92538306D01*
X133348827Y-92529525D01*
X133764158Y-91909661D01*
X133771608Y-91904698D01*
X133780389Y-91906456D01*
G37*
%TD.AperFunction*%
%TD*%
%TA.AperFunction,Conductor*%
%TO.N,Net-(U1-IO4)*%
G36*
X133780950Y-94442440D02*
G01*
X134168937Y-94624309D01*
X134855410Y-94946093D01*
X134861446Y-94952707D01*
X134862144Y-94956687D01*
X134862144Y-95191812D01*
X134858717Y-95200085D01*
X134855410Y-95202406D01*
X133780950Y-95706059D01*
X133772004Y-95706467D01*
X133766263Y-95701976D01*
X133726569Y-95642709D01*
X133350202Y-95080759D01*
X133348446Y-95071980D01*
X133350201Y-95067741D01*
X133766264Y-94446522D01*
X133773714Y-94441556D01*
X133780950Y-94442440D01*
G37*
%TD.AperFunction*%
%TD*%
%TA.AperFunction,Conductor*%
%TO.N,Net-(U1-IO17)*%
G36*
X156296194Y-118201565D02*
G01*
X157687369Y-118671734D01*
X157770963Y-118699986D01*
X157777703Y-118705881D01*
X157778694Y-118713343D01*
X157589778Y-119667274D01*
X157584809Y-119674724D01*
X157580574Y-119676478D01*
X156626643Y-119865394D01*
X156617862Y-119863640D01*
X156613286Y-119857663D01*
X156224023Y-118705881D01*
X156114866Y-118382897D01*
X156115464Y-118373965D01*
X156117674Y-118370884D01*
X156284182Y-118204376D01*
X156292454Y-118200950D01*
X156296194Y-118201565D01*
G37*
%TD.AperFunction*%
%TD*%
%TA.AperFunction,Conductor*%
%TO.N,Net-(U1-IO17)*%
G36*
X152129029Y-94150196D02*
G01*
X152136457Y-94155195D01*
X152138176Y-94163983D01*
X152137865Y-94165187D01*
X151975133Y-94680310D01*
X151969373Y-94687167D01*
X151963976Y-94688486D01*
X151731124Y-94688486D01*
X151722851Y-94685059D01*
X151719967Y-94680310D01*
X151557234Y-94165187D01*
X151558010Y-94156266D01*
X151564867Y-94150506D01*
X151566050Y-94150200D01*
X151845232Y-94093719D01*
X151849868Y-94093719D01*
X152129029Y-94150196D01*
G37*
%TD.AperFunction*%
%TD*%
%TA.AperFunction,Conductor*%
%TO.N,Net-(M1-SCL)*%
G36*
X132928304Y-69048186D02*
G01*
X132929601Y-69049797D01*
X133343197Y-69668446D01*
X133344946Y-69677229D01*
X133343190Y-69681462D01*
X132929541Y-70298817D01*
X132922089Y-70303782D01*
X132913308Y-70302024D01*
X132911775Y-70300798D01*
X132267889Y-69690904D01*
X132264239Y-69682727D01*
X132267441Y-69674364D01*
X132267625Y-69674174D01*
X132435938Y-69505862D01*
X132911760Y-69047869D01*
X132920097Y-69044602D01*
X132928304Y-69048186D01*
G37*
%TD.AperFunction*%
%TD*%
%TA.AperFunction,Conductor*%
%TO.N,Net-(U2-A02)*%
G36*
X147219978Y-128660864D02*
G01*
X147223766Y-128663397D01*
X147778402Y-129218033D01*
X147781829Y-129226306D01*
X147780942Y-129230776D01*
X147189174Y-130662335D01*
X147182846Y-130668671D01*
X147177706Y-130669547D01*
X145857284Y-130595542D01*
X145849216Y-130591657D01*
X145846257Y-130584517D01*
X145772251Y-129264090D01*
X145775210Y-129255641D01*
X145779459Y-129252627D01*
X147211023Y-128660857D01*
X147219978Y-128660864D01*
G37*
%TD.AperFunction*%
%TD*%
%TA.AperFunction,Conductor*%
%TO.N,+3.3V*%
G36*
X148120888Y-108805363D02*
G01*
X148124160Y-108811740D01*
X148238034Y-109505076D01*
X148235994Y-109513795D01*
X148228800Y-109518442D01*
X147849861Y-109594784D01*
X147845239Y-109594784D01*
X147466299Y-109518442D01*
X147458866Y-109513448D01*
X147457065Y-109505076D01*
X147570940Y-108811740D01*
X147575662Y-108804131D01*
X147582485Y-108801936D01*
X148112615Y-108801936D01*
X148120888Y-108805363D01*
G37*
%TD.AperFunction*%
%TD*%
%TA.AperFunction,Conductor*%
%TO.N,Net-(U2-A01)*%
G36*
X143176006Y-114054762D02*
G01*
X143176686Y-114055923D01*
X144013133Y-115690446D01*
X144013852Y-115699372D01*
X144010991Y-115704049D01*
X143457349Y-116257691D01*
X143449076Y-116261118D01*
X143443746Y-116259833D01*
X141809223Y-115423386D01*
X141803419Y-115416567D01*
X141804138Y-115407641D01*
X141804809Y-115406495D01*
X142345546Y-114595487D01*
X142348787Y-114592246D01*
X143159782Y-114051517D01*
X143168565Y-114049780D01*
X143176006Y-114054762D01*
G37*
%TD.AperFunction*%
%TD*%
%TA.AperFunction,Conductor*%
%TO.N,+5V*%
G36*
X125746766Y-122680484D02*
G01*
X127351565Y-123395341D01*
X127357728Y-123401838D01*
X127357492Y-123410790D01*
X127356539Y-123412519D01*
X126849554Y-124173009D01*
X126846309Y-124176254D01*
X126085819Y-124683239D01*
X126077034Y-124684977D01*
X126069594Y-124679994D01*
X126068641Y-124678265D01*
X125845020Y-124176254D01*
X125353784Y-123073467D01*
X125353549Y-123064516D01*
X125356198Y-123060436D01*
X125733735Y-122682899D01*
X125742007Y-122679473D01*
X125746766Y-122680484D01*
G37*
%TD.AperFunction*%
%TD*%
%TA.AperFunction,Conductor*%
%TO.N,Net-(U1-IO23)*%
G36*
X157043245Y-106159625D02*
G01*
X157584193Y-106967742D01*
X157585947Y-106976523D01*
X157584193Y-106980758D01*
X157043245Y-107788874D01*
X157035795Y-107793843D01*
X157028333Y-107792852D01*
X155633084Y-107102471D01*
X155627189Y-107095731D01*
X155626573Y-107091985D01*
X155626573Y-106856514D01*
X155630000Y-106848241D01*
X155633082Y-106846028D01*
X157028335Y-106155646D01*
X157037268Y-106155049D01*
X157043245Y-106159625D01*
G37*
%TD.AperFunction*%
%TD*%
%TA.AperFunction,Conductor*%
%TO.N,Net-(U1-IO5)*%
G36*
X146347449Y-116503441D02*
G01*
X146350333Y-116508190D01*
X146513065Y-117023312D01*
X146512289Y-117032233D01*
X146505432Y-117037993D01*
X146504228Y-117038304D01*
X146225070Y-117094780D01*
X146220430Y-117094780D01*
X145987303Y-117047616D01*
X145941270Y-117038303D01*
X145933842Y-117033304D01*
X145932123Y-117024516D01*
X145932430Y-117023325D01*
X146095167Y-116508189D01*
X146100927Y-116501333D01*
X146106324Y-116500014D01*
X146339176Y-116500014D01*
X146347449Y-116503441D01*
G37*
%TD.AperFunction*%
%TD*%
%TA.AperFunction,Conductor*%
%TO.N,Net-(U1-IO23)*%
G36*
X154129029Y-64899569D02*
G01*
X154136457Y-64904568D01*
X154138176Y-64913356D01*
X154137865Y-64914560D01*
X153975133Y-65429683D01*
X153969373Y-65436540D01*
X153963976Y-65437859D01*
X153731124Y-65437859D01*
X153722851Y-65434432D01*
X153719967Y-65429683D01*
X153557234Y-64914560D01*
X153558010Y-64905639D01*
X153564867Y-64899879D01*
X153566050Y-64899573D01*
X153845232Y-64843092D01*
X153849868Y-64843092D01*
X154129029Y-64899569D01*
G37*
%TD.AperFunction*%
%TD*%
%TA.AperFunction,Conductor*%
%TO.N,+5V*%
G36*
X118163800Y-110670057D02*
G01*
X118171233Y-110675051D01*
X118173034Y-110683423D01*
X118059160Y-111376760D01*
X118054438Y-111384369D01*
X118047615Y-111386564D01*
X117517485Y-111386564D01*
X117509212Y-111383137D01*
X117505940Y-111376760D01*
X117392065Y-110683423D01*
X117394105Y-110674704D01*
X117401298Y-110670057D01*
X117780242Y-110593715D01*
X117784858Y-110593715D01*
X118163800Y-110670057D01*
G37*
%TD.AperFunction*%
%TD*%
%TA.AperFunction,Conductor*%
%TO.N,Net-(U1-IO18)*%
G36*
X147111149Y-114003441D02*
G01*
X147114033Y-114008190D01*
X147276765Y-114523312D01*
X147275989Y-114532233D01*
X147269132Y-114537993D01*
X147267928Y-114538304D01*
X146988770Y-114594780D01*
X146984130Y-114594780D01*
X146751003Y-114547616D01*
X146704970Y-114538303D01*
X146697542Y-114533304D01*
X146695823Y-114524516D01*
X146696130Y-114523325D01*
X146858867Y-114008189D01*
X146864627Y-114001333D01*
X146870024Y-114000014D01*
X147102876Y-114000014D01*
X147111149Y-114003441D01*
G37*
%TD.AperFunction*%
%TD*%
%TA.AperFunction,Conductor*%
%TO.N,Net-(M1-SCL)*%
G36*
X136523355Y-85089627D02*
G01*
X137002673Y-85338806D01*
X137008433Y-85345662D01*
X137007657Y-85354583D01*
X137007025Y-85355654D01*
X136849565Y-85592984D01*
X136846284Y-85596265D01*
X136608954Y-85753725D01*
X136600166Y-85755444D01*
X136592737Y-85750444D01*
X136592110Y-85749382D01*
X136342927Y-85270056D01*
X136342152Y-85261137D01*
X136345034Y-85256390D01*
X136509689Y-85091735D01*
X136517961Y-85088309D01*
X136523355Y-85089627D01*
G37*
%TD.AperFunction*%
%TD*%
%TA.AperFunction,Conductor*%
%TO.N,Net-(U2-B01)*%
G36*
X140103502Y-55608841D02*
G01*
X140107685Y-55611951D01*
X141134640Y-56814455D01*
X141137407Y-56822971D01*
X141134016Y-56830326D01*
X140579409Y-57384933D01*
X140571136Y-57388360D01*
X140571126Y-57388360D01*
X139202400Y-57387244D01*
X139194130Y-57383810D01*
X139191110Y-57378573D01*
X138849557Y-56103674D01*
X138850726Y-56094798D01*
X138856619Y-56089743D01*
X140094551Y-55608644D01*
X140103502Y-55608841D01*
G37*
%TD.AperFunction*%
%TD*%
%TA.AperFunction,Conductor*%
%TO.N,Net-(U1-IO5)*%
G36*
X134096070Y-87308712D02*
G01*
X134100560Y-87314452D01*
X134423746Y-88207968D01*
X134504181Y-88430346D01*
X134503773Y-88439292D01*
X134501452Y-88442599D01*
X134335192Y-88608859D01*
X134326919Y-88612286D01*
X134322939Y-88611588D01*
X133207046Y-88207968D01*
X133200432Y-88201932D01*
X133199548Y-88194696D01*
X133344615Y-87461228D01*
X133349582Y-87453779D01*
X133353820Y-87452023D01*
X134087289Y-87306955D01*
X134096070Y-87308712D01*
G37*
%TD.AperFunction*%
%TD*%
%TA.AperFunction,Conductor*%
%TO.N,Net-(U1-IO4)*%
G36*
X143972249Y-111003441D02*
G01*
X143975133Y-111008190D01*
X144137865Y-111523312D01*
X144137089Y-111532233D01*
X144130232Y-111537993D01*
X144129028Y-111538304D01*
X143849870Y-111594780D01*
X143845230Y-111594780D01*
X143612103Y-111547616D01*
X143566070Y-111538303D01*
X143558642Y-111533304D01*
X143556923Y-111524516D01*
X143557230Y-111523325D01*
X143719967Y-111008189D01*
X143725727Y-111001333D01*
X143731124Y-111000014D01*
X143963976Y-111000014D01*
X143972249Y-111003441D01*
G37*
%TD.AperFunction*%
%TD*%
%TA.AperFunction,Conductor*%
%TO.N,Net-(U1-IO18)*%
G36*
X134096070Y-84768712D02*
G01*
X134100560Y-84774452D01*
X134423746Y-85667968D01*
X134504181Y-85890346D01*
X134503773Y-85899292D01*
X134501452Y-85902599D01*
X134335192Y-86068859D01*
X134326919Y-86072286D01*
X134322939Y-86071588D01*
X133207046Y-85667968D01*
X133200432Y-85661932D01*
X133199548Y-85654696D01*
X133344615Y-84921228D01*
X133349582Y-84913779D01*
X133353820Y-84912023D01*
X134087289Y-84766955D01*
X134096070Y-84768712D01*
G37*
%TD.AperFunction*%
%TD*%
%TA.AperFunction,Conductor*%
%TO.N,+3.3V*%
G36*
X147958467Y-81706026D02*
G01*
X148698763Y-82011687D01*
X148705102Y-82018011D01*
X148705112Y-82018036D01*
X149010771Y-82758330D01*
X149010761Y-82767285D01*
X149005337Y-82773184D01*
X147617446Y-83491925D01*
X147608524Y-83492687D01*
X147603793Y-83489809D01*
X147226990Y-83113006D01*
X147223563Y-83104733D01*
X147224871Y-83099357D01*
X147943616Y-81711459D01*
X147950462Y-81705690D01*
X147958467Y-81706026D01*
G37*
%TD.AperFunction*%
%TD*%
M02*
